<svg width="255" height="255" viewBox="0 0 255 255" fill="none" xmlns="http://www.w3.org/2000/svg">
<path d="M85.3837 165.701C85.3837 189.926 85.3837 214.152 85.3837 238.382C85.3837 241.672 84.186 242.869 80.9067 242.869C60.4851 242.869 40.0583 242.869 19.6368 242.869C16.4756 242.869 15.2266 241.605 15.2266 238.408C15.2266 189.916 15.2266 141.424 15.2266 92.9327C15.2266 89.7562 16.491 88.4866 19.6676 88.4866C40.0892 88.4866 60.5159 88.4866 80.9375 88.4866C84.1449 88.4866 85.3785 89.7202 85.3785 92.907C85.3785 117.173 85.3785 141.44 85.3785 165.701H85.3837ZM92.4102 238.454C92.4102 241.63 93.6695 242.869 96.8718 242.869C117.37 242.869 137.869 242.869 158.368 242.869C161.246 242.869 162.603 241.543 162.603 238.695C162.603 201.702 162.603 164.704 162.603 127.711C162.603 124.909 161.262 123.604 158.435 123.604C150.591 123.604 142.752 123.604 134.908 123.604C122.099 123.604 109.285 123.609 96.476 123.593C95.2938 123.593 94.2503 123.82 93.4074 124.693C92.5233 125.608 92.4102 126.739 92.4102 127.932C92.4205 146.333 92.4153 164.735 92.4153 183.131C92.4153 201.569 92.4153 220.011 92.4153 238.449L92.4102 238.454ZM169.62 238.567C169.62 241.615 170.879 242.869 173.927 242.869C194.42 242.869 214.914 242.869 235.413 242.869C238.497 242.869 239.777 241.584 239.777 238.474C239.777 213.324 239.777 188.174 239.777 163.023C239.777 159.934 238.502 158.659 235.387 158.659C214.929 158.659 194.477 158.685 174.019 158.628C171.383 158.623 169.558 159.96 169.584 163.11C169.681 175.647 169.625 188.184 169.625 200.72C169.625 213.334 169.625 225.948 169.625 238.562L169.62 238.567ZM114.97 82.8016C101.662 86.9034 92.8368 98.4892 92.4256 112.403C92.3485 115.035 93.7518 116.587 96.2858 116.587C115.931 116.593 135.577 116.598 155.227 116.587C157.674 116.587 159.103 115.081 159.067 112.624C158.861 99.5326 150.755 88.024 138.507 83.4544C137.504 83.0792 136.471 82.7759 135.381 82.411C135.52 82.1283 135.602 81.9227 135.721 81.7325C138.543 77.0601 139.838 71.9509 139.822 66.5332C139.807 61.0128 137.216 56.9932 132.266 54.5414C130.046 53.4414 127.64 53.4723 125.219 53.3849C119.134 53.1638 113.598 57.0755 112.133 62.9968C111.043 67.3916 111.824 71.7299 113.186 75.9345C113.906 78.155 115.016 80.2573 115.972 82.4675C115.69 82.56 115.335 82.6885 114.975 82.8016H114.97ZM37.992 47.6639C24.7923 51.3854 15.278 63.8861 15.2317 77.569C15.2214 80.0363 16.6298 81.4858 19.1125 81.4858C38.7528 81.4909 58.3982 81.4909 78.0385 81.4858C80.5263 81.4858 81.9295 80.0568 81.8576 77.5484C81.5235 66.487 76.738 57.8413 67.6349 51.5807C64.7719 49.612 61.5851 48.3065 58.2132 47.3761C58.2851 47.1756 58.3108 47.0163 58.3879 46.8878C61.143 42.3748 62.3663 37.4557 62.6336 32.1974C62.9266 26.4199 59.5701 21.064 54.1473 19.0748C51.9782 18.278 49.732 18.3346 47.4806 18.3243C41.6055 18.3037 36.5374 22.1125 34.9594 27.7615C34.1421 30.6811 34.4762 33.6161 34.9131 36.5356C35.4837 40.3804 36.8921 43.9322 38.9995 47.3504C38.5729 47.484 38.2799 47.5868 37.9869 47.6691L37.992 47.6639ZM196.009 117.78C182.67 121.512 173.218 133.868 173.135 147.685C173.12 150.255 174.472 151.627 177.068 151.627C196.631 151.627 216.199 151.627 235.762 151.627C238.456 151.627 239.802 150.224 239.766 147.495C239.592 135.112 231.794 123.665 220.306 118.972C218.923 118.407 217.499 117.96 216.081 117.451C219.643 111.386 220.424 106.41 220.496 101.702C220.589 95.7855 216.919 90.558 211.28 89.0468C209.332 88.5225 207.219 88.4917 205.179 88.4814C199.226 88.4403 194.025 92.6192 192.714 98.4224C191.953 101.789 192.292 105.187 193.182 108.44C194.03 111.55 195.346 114.531 196.477 117.61C196.518 117.595 196.271 117.703 196.014 117.775L196.009 117.78Z" fill="url(#paint0_linear_2957_1034)"/>
<defs>
<linearGradient id="paint0_linear_2957_1034" x1="241.9" y1="66.3996" x2="55.4478" y2="184.375" gradientUnits="userSpaceOnUse">
<stop stop-color="#B9852C"/>
<stop offset="0.06" stop-color="#C18D29"/>
<stop offset="0.17" stop-color="#D9A222"/>
<stop offset="0.24" stop-color="#EEB61D"/>
<stop offset="0.68" stop-color="#FDF289"/>
<stop offset="0.84" stop-color="#ECCA65"/>
<stop offset="1" stop-color="#B9852C"/>
</linearGradient>
</defs>
</svg>
