<svg width="45" height="44" viewBox="0 0 45 44" fill="none" xmlns="http://www.w3.org/2000/svg">
<path d="M22.5 42C25.1269 42.0032 27.7286 41.4874 30.1555 40.4821C32.5824 39.4768 34.7868 38.0018 36.642 36.142C38.5018 34.2868 39.9768 32.0824 40.9821 29.6555C41.9874 27.2286 42.5032 24.6269 42.5 22C42.5032 19.3731 41.9874 16.7714 40.9821 14.3445C39.9768 11.9176 38.5018 9.71318 36.642 7.85801C34.7868 5.99817 32.5824 4.52323 30.1555 3.51793C27.7286 2.51263 25.1269 1.99678 22.5 2.00002C19.8731 1.99678 17.2714 2.51263 14.8445 3.51793C12.4176 4.52323 10.2132 5.99817 8.35801 7.85801C6.49817 9.71318 5.02323 11.9176 4.01793 14.3445C3.01263 16.7714 2.49678 19.3731 2.50002 22C2.49678 24.6269 3.01263 27.2286 4.01793 29.6555C5.02323 32.0824 6.49817 34.2868 8.35801 36.142C10.2132 38.0018 12.4176 39.4768 14.8445 40.4821C17.2714 41.4874 19.8731 42.0032 22.5 42Z" stroke="#90C403" stroke-width="4" stroke-linejoin="round"/>
<path d="M14.5 22L20.5 28L32.5 16" stroke="#90C403" stroke-width="4" stroke-linecap="round" stroke-linejoin="round"/>
</svg>
