<svg width="40" height="34" viewBox="0 0 40 34" fill="none" xmlns="http://www.w3.org/2000/svg">
<mask id="path-1-inside-1_3006_6834" fill="white">
<path d="M10 11C10 10.7348 10.1054 10.4804 10.2929 10.2929C10.4804 10.1054 10.7348 10 11 10H23C23.2652 10 23.5196 10.1054 23.7071 10.2929C23.8946 10.4804 24 10.7348 24 11C24 11.2652 23.8946 11.5196 23.7071 11.7071C23.5196 11.8946 23.2652 12 23 12H11C10.7348 12 10.4804 11.8946 10.2929 11.7071C10.1054 11.5196 10 11.2652 10 11ZM11.25 17C11.25 16.8011 11.329 16.6103 11.4697 16.4697C11.6103 16.329 11.8011 16.25 12 16.25H27.19L25.97 15.03C25.8963 14.9613 25.8372 14.8785 25.7962 14.7865C25.7552 14.6945 25.7332 14.5952 25.7314 14.4945C25.7296 14.3938 25.7482 14.2938 25.7859 14.2004C25.8236 14.107 25.8797 14.0222 25.951 13.951C26.0222 13.8797 26.107 13.8236 26.2004 13.7859C26.2938 13.7482 26.3938 13.7296 26.4945 13.7314C26.5952 13.7332 26.6945 13.7552 26.7865 13.7962C26.8785 13.8372 26.9613 13.8963 27.03 13.97L29.53 16.47C29.6705 16.6106 29.7493 16.8012 29.7493 17C29.7493 17.1988 29.6705 17.3894 29.53 17.53L27.03 20.03C26.9613 20.1037 26.8785 20.1628 26.7865 20.2038C26.6945 20.2448 26.5952 20.2668 26.4945 20.2686C26.3938 20.2704 26.2938 20.2518 26.2004 20.2141C26.107 20.1764 26.0222 20.1203 25.951 20.049C25.8797 19.9778 25.8236 19.893 25.7859 19.7996C25.7482 19.7062 25.7296 19.6062 25.7314 19.5055C25.7332 19.4048 25.7552 19.3055 25.7962 19.2135C25.8372 19.1215 25.8963 19.0387 25.97 18.97L27.19 17.75H12C11.8011 17.75 11.6103 17.671 11.4697 17.5303C11.329 17.3897 11.25 17.1989 11.25 17ZM11 22C10.7348 22 10.4804 22.1054 10.2929 22.2929C10.1054 22.4804 10 22.7348 10 23C10 23.2652 10.1054 23.5196 10.2929 23.7071C10.4804 23.8946 10.7348 24 11 24H23C23.2652 24 23.5196 23.8946 23.7071 23.7071C23.8946 23.5196 24 23.2652 24 23C24 22.7348 23.8946 22.4804 23.7071 22.2929C23.5196 22.1054 23.2652 22 23 22H11Z"/>
</mask>
<path d="M10 11C10 10.7348 10.1054 10.4804 10.2929 10.2929C10.4804 10.1054 10.7348 10 11 10H23C23.2652 10 23.5196 10.1054 23.7071 10.2929C23.8946 10.4804 24 10.7348 24 11C24 11.2652 23.8946 11.5196 23.7071 11.7071C23.5196 11.8946 23.2652 12 23 12H11C10.7348 12 10.4804 11.8946 10.2929 11.7071C10.1054 11.5196 10 11.2652 10 11ZM11.25 17C11.25 16.8011 11.329 16.6103 11.4697 16.4697C11.6103 16.329 11.8011 16.25 12 16.25H27.19L25.97 15.03C25.8963 14.9613 25.8372 14.8785 25.7962 14.7865C25.7552 14.6945 25.7332 14.5952 25.7314 14.4945C25.7296 14.3938 25.7482 14.2938 25.7859 14.2004C25.8236 14.107 25.8797 14.0222 25.951 13.951C26.0222 13.8797 26.107 13.8236 26.2004 13.7859C26.2938 13.7482 26.3938 13.7296 26.4945 13.7314C26.5952 13.7332 26.6945 13.7552 26.7865 13.7962C26.8785 13.8372 26.9613 13.8963 27.03 13.97L29.53 16.47C29.6705 16.6106 29.7493 16.8012 29.7493 17C29.7493 17.1988 29.6705 17.3894 29.53 17.53L27.03 20.03C26.9613 20.1037 26.8785 20.1628 26.7865 20.2038C26.6945 20.2448 26.5952 20.2668 26.4945 20.2686C26.3938 20.2704 26.2938 20.2518 26.2004 20.2141C26.107 20.1764 26.0222 20.1203 25.951 20.049C25.8797 19.9778 25.8236 19.893 25.7859 19.7996C25.7482 19.7062 25.7296 19.6062 25.7314 19.5055C25.7332 19.4048 25.7552 19.3055 25.7962 19.2135C25.8372 19.1215 25.8963 19.0387 25.97 18.97L27.19 17.75H12C11.8011 17.75 11.6103 17.671 11.4697 17.5303C11.329 17.3897 11.25 17.1989 11.25 17ZM11 22C10.7348 22 10.4804 22.1054 10.2929 22.2929C10.1054 22.4804 10 22.7348 10 23C10 23.2652 10.1054 23.5196 10.2929 23.7071C10.4804 23.8946 10.7348 24 11 24H23C23.2652 24 23.5196 23.8946 23.7071 23.7071C23.8946 23.5196 24 23.2652 24 23C24 22.7348 23.8946 22.4804 23.7071 22.2929C23.5196 22.1054 23.2652 22 23 22H11Z" fill="#C28E02"/>
<path d="M10 11H7H10ZM11 10V13V10ZM11.25 17H8.25H11.25ZM27.19 16.25V19.25H34.4326L29.3113 14.1287L27.19 16.25ZM25.97 15.03L28.0913 12.9087L28.0539 12.8713L28.0152 12.8352L25.97 15.03ZM27.03 13.97L24.8352 16.0152L24.8713 16.0539L24.9087 16.0913L27.03 13.97ZM29.53 16.47L31.6526 14.35L31.6513 14.3487L29.53 16.47ZM29.53 17.53L31.6513 19.6513L31.6526 19.65L29.53 17.53ZM27.03 20.03L24.9087 17.9087L24.8713 17.9461L24.8352 17.9848L27.03 20.03ZM25.97 18.97L28.0152 21.1648L28.0539 21.1287L28.0913 21.0913L25.97 18.97ZM27.19 17.75L29.3113 19.8713L34.4326 14.75H27.19V17.75ZM12 17.75V20.75V17.75ZM10 23H7H10ZM10 11H13C13 11.5304 12.7893 12.0391 12.4142 12.4142L10.2929 10.2929L8.17157 8.17157C7.42143 8.92172 7 9.93913 7 11H10ZM10.2929 10.2929L12.4142 12.4142C12.0391 12.7893 11.5304 13 11 13V10V7C9.93913 7 8.92172 7.42143 8.17157 8.17157L10.2929 10.2929ZM11 10V13H23V10V7H11V10ZM23 10V13C22.4696 13 21.9609 12.7893 21.5858 12.4142L23.7071 10.2929L25.8284 8.17157C25.0783 7.42143 24.0609 7 23 7V10ZM23.7071 10.2929L21.5858 12.4142C21.2107 12.0391 21 11.5304 21 11H24H27C27 9.93914 26.5786 8.92172 25.8284 8.17157L23.7071 10.2929ZM24 11H21C21 10.4696 21.2107 9.96086 21.5858 9.58579L23.7071 11.7071L25.8284 13.8284C26.5786 13.0783 27 12.0609 27 11H24ZM23.7071 11.7071L21.5858 9.58579C21.9609 9.21071 22.4696 9 23 9V12V15C24.0609 15 25.0783 14.5786 25.8284 13.8284L23.7071 11.7071ZM23 12V9H11V12V15H23V12ZM11 12V9C11.5304 9 12.0391 9.21071 12.4142 9.58579L10.2929 11.7071L8.17157 13.8284C8.92172 14.5786 9.93913 15 11 15V12ZM10.2929 11.7071L12.4142 9.58579C12.7893 9.96086 13 10.4696 13 11H10H7C7 12.0609 7.42143 13.0783 8.17157 13.8284L10.2929 11.7071ZM11.25 17H14.25C14.25 17.5967 14.0129 18.169 13.591 18.591L11.4697 16.4697L9.34835 14.3484C8.64509 15.0516 8.25 16.0054 8.25 17H11.25ZM11.4697 16.4697L13.591 18.591C13.169 19.0129 12.5967 19.25 12 19.25V16.25V13.25C11.0054 13.25 10.0516 13.6451 9.34835 14.3484L11.4697 16.4697ZM12 16.25V19.25H27.19V16.25V13.25H12V16.25ZM27.19 16.25L29.3113 14.1287L28.0913 12.9087L25.97 15.03L23.8487 17.1513L25.0687 18.3713L27.19 16.25ZM25.97 15.03L28.0152 12.8352C28.2362 13.0412 28.4135 13.2896 28.5365 13.5656L25.7962 14.7865L23.0559 16.0075C23.2609 16.4675 23.5564 16.8815 23.9248 17.2248L25.97 15.03ZM25.7962 14.7865L28.5365 13.5656C28.6595 13.8416 28.7256 14.1395 28.7309 14.4416L25.7314 14.4945L22.7319 14.5474C22.7408 15.0509 22.851 15.5475 23.0559 16.0075L25.7962 14.7865ZM25.7314 14.4945L28.7309 14.4416C28.7363 14.7437 28.6807 15.0438 28.5675 15.324L25.7859 14.2004L23.0042 13.0768C22.8156 13.5438 22.723 14.0439 22.7319 14.5474L25.7314 14.4945ZM25.7859 14.2004L28.5675 15.324C28.4544 15.6041 28.2859 15.8586 28.0723 16.0723L25.951 13.951L23.8296 11.8296C23.4736 12.1857 23.1928 12.6099 23.0042 13.0768L25.7859 14.2004ZM25.951 13.951L28.0723 16.0723C27.8586 16.2859 27.6041 16.4544 27.324 16.5675L26.2004 13.7859L25.0768 11.0042C24.6099 11.1928 24.1857 11.4736 23.8296 11.8296L25.951 13.951ZM26.2004 13.7859L27.324 16.5675C27.0438 16.6807 26.7437 16.7363 26.4416 16.7309L26.4945 13.7314L26.5474 10.7319C26.0439 10.723 25.5438 10.8156 25.0768 11.0042L26.2004 13.7859ZM26.4945 13.7314L26.4416 16.7309C26.1395 16.7256 25.8416 16.6595 25.5656 16.5365L26.7865 13.7962L28.0075 11.0559C27.5475 10.851 27.051 10.7408 26.5474 10.7319L26.4945 13.7314ZM26.7865 13.7962L25.5656 16.5365C25.2895 16.4135 25.0411 16.2362 24.8352 16.0152L27.03 13.97L29.2248 11.9248C28.8815 11.5564 28.4675 11.2609 28.0075 11.0559L26.7865 13.7962ZM27.03 13.97L24.9087 16.0913L27.4087 18.5913L29.53 16.47L31.6513 14.3487L29.1513 11.8487L27.03 13.97ZM29.53 16.47L27.4074 18.59C26.986 18.1681 26.7493 17.5962 26.7493 17H29.7493H32.7493C32.7493 16.0063 32.3549 15.0531 31.6526 14.35L29.53 16.47ZM29.7493 17H26.7493C26.7493 16.4038 26.986 15.8319 27.4074 15.41L29.53 17.53L31.6526 19.65C32.3549 18.9469 32.7493 17.9937 32.7493 17H29.7493ZM29.53 17.53L27.4087 15.4087L24.9087 17.9087L27.03 20.03L29.1513 22.1513L31.6513 19.6513L29.53 17.53ZM27.03 20.03L24.8352 17.9848C25.0411 17.7638 25.2895 17.5865 25.5656 17.4635L26.7865 20.2038L28.0075 22.9441C28.4675 22.7391 28.8815 22.4436 29.2248 22.0752L27.03 20.03ZM26.7865 20.2038L25.5656 17.4635C25.8416 17.3405 26.1395 17.2744 26.4416 17.2691L26.4945 20.2686L26.5474 23.2681C27.051 23.2592 27.5475 23.149 28.0075 22.9441L26.7865 20.2038ZM26.4945 20.2686L26.4416 17.2691C26.7437 17.2637 27.0438 17.3193 27.324 17.4325L26.2004 20.2141L25.0768 22.9958C25.5438 23.1844 26.0439 23.277 26.5474 23.2681L26.4945 20.2686ZM26.2004 20.2141L27.324 17.4325C27.6041 17.5456 27.8586 17.7141 28.0723 17.9277L25.951 20.049L23.8296 22.1704C24.1857 22.5264 24.6099 22.8072 25.0768 22.9958L26.2004 20.2141ZM25.951 20.049L28.0723 17.9277C28.2859 18.1414 28.4544 18.3959 28.5675 18.676L25.7859 19.7996L23.0042 20.9232C23.1928 21.3901 23.4736 21.8143 23.8296 22.1704L25.951 20.049ZM25.7859 19.7996L28.5675 18.676C28.6807 18.9562 28.7363 19.2563 28.7309 19.5584L25.7314 19.5055L22.7319 19.4526C22.723 19.9561 22.8156 20.4562 23.0042 20.9232L25.7859 19.7996ZM25.7314 19.5055L28.7309 19.5584C28.7256 19.8605 28.6595 20.1584 28.5365 20.4344L25.7962 19.2135L23.0559 17.9925C22.851 18.4525 22.7408 18.9491 22.7319 19.4526L25.7314 19.5055ZM25.7962 19.2135L28.5365 20.4344C28.4135 20.7104 28.2362 20.9588 28.0152 21.1648L25.97 18.97L23.9248 16.7752C23.5564 17.1185 23.2609 17.5325 23.0559 17.9925L25.7962 19.2135ZM25.97 18.97L28.0913 21.0913L29.3113 19.8713L27.19 17.75L25.0687 15.6287L23.8487 16.8487L25.97 18.97ZM27.19 17.75V14.75H12V17.75V20.75H27.19V17.75ZM12 17.75V14.75C12.5967 14.75 13.169 14.9871 13.591 15.409L11.4697 17.5303L9.34835 19.6517C10.0516 20.3549 11.0054 20.75 12 20.75V17.75ZM11.4697 17.5303L13.591 15.409C14.0129 15.831 14.25 16.4033 14.25 17H11.25H8.25C8.25 17.9946 8.64509 18.9484 9.34835 19.6517L11.4697 17.5303ZM11 22V19C9.93914 19 8.92172 19.4214 8.17157 20.1716L10.2929 22.2929L12.4142 24.4142C12.0391 24.7893 11.5304 25 11 25V22ZM10.2929 22.2929L8.17157 20.1716C7.42143 20.9217 7 21.9391 7 23H10H13C13 23.5304 12.7893 24.0391 12.4142 24.4142L10.2929 22.2929ZM10 23H7C7 24.0609 7.42143 25.0783 8.17157 25.8284L10.2929 23.7071L12.4142 21.5858C12.7893 21.9609 13 22.4696 13 23H10ZM10.2929 23.7071L8.17157 25.8284C8.92172 26.5786 9.93914 27 11 27V24V21C11.5304 21 12.0391 21.2107 12.4142 21.5858L10.2929 23.7071ZM11 24V27H23V24V21H11V24ZM23 24V27C24.0609 27 25.0783 26.5786 25.8284 25.8284L23.7071 23.7071L21.5858 21.5858C21.9609 21.2107 22.4696 21 23 21V24ZM23.7071 23.7071L25.8284 25.8284C26.5786 25.0783 27 24.0609 27 23H24H21C21 22.4696 21.2107 21.9609 21.5858 21.5858L23.7071 23.7071ZM24 23H27C27 21.9391 26.5786 20.9217 25.8284 20.1716L23.7071 22.2929L21.5858 24.4142C21.2107 24.0391 21 23.5304 21 23H24ZM23.7071 22.2929L25.8284 20.1716C25.0783 19.4214 24.0609 19 23 19V22V25C22.4696 25 21.9609 24.7893 21.5858 24.4142L23.7071 22.2929ZM23 22V19H11V22V25H23V22Z" fill="#C28E02" mask="url(#path-1-inside-1_3006_6834)"/>
</svg>
