<svg width="223" height="215" viewBox="0 0 223 215" fill="none" xmlns="http://www.w3.org/2000/svg">
<path d="M94.588 72.7524C96.4853 73.6059 98.3094 74.4142 100.119 75.2443C102.621 76.3874 105.152 77.3853 107.927 77.6516C109.983 77.8489 111.978 77.591 113.945 76.9932C114.283 76.8921 114.852 76.9595 115.082 77.183C117.378 79.4258 120.102 80.8033 123.258 81.3335C123.397 81.3538 123.529 81.4189 123.667 81.4602C120.065 90.9119 125.351 101.126 135.955 102.954C135.631 104.498 135.141 106.024 135.016 107.589C134.522 113.693 136.97 118.516 141.974 121.898C146.958 125.27 152.375 125.771 157.743 122.928C163.196 120.035 168.504 116.856 173.819 113.7C177.379 111.59 179.662 108.444 180.681 104.389C180.817 104.404 180.941 104.386 181.025 104.438C191.136 110.731 201.036 117.32 209.95 125.264C213.6 128.513 217.051 131.964 219.694 136.123C220.466 137.331 221.11 138.633 221.704 139.943C222.866 142.491 222.471 145.064 221.734 147.641C220.158 153.14 217.224 157.906 213.766 162.381C208.34 169.419 201.871 175.418 194.946 180.929C185.917 188.117 176.25 194.337 166.02 199.665C154.205 205.821 141.971 210.902 128.821 213.454C123.653 214.455 118.445 214.875 113.16 214.439C104.256 213.706 98.2275 209.061 94.4536 201.14C90.6324 193.124 88.9188 184.558 87.7936 175.846C85.9857 161.843 85.7014 147.767 86.0921 133.684C86.4952 119.158 87.1625 104.646 87.7122 90.129C87.7617 88.911 87.8832 87.6782 87.7717 86.4725C87.6019 84.6418 88.1524 83.1278 89.1383 81.611C90.9989 78.7694 92.7075 75.8273 94.588 72.7524ZM129.98 134.985C128.898 135.858 127.909 136.577 127.004 137.395C121.802 142.132 120.404 148.289 123.292 154.235C125.556 158.889 129.218 161.553 134.557 161.36C136.354 161.297 138.15 160.973 139.924 160.647C141.358 160.384 142.76 159.937 144.139 159.578L150.983 171.432C148.807 172.285 146.602 172.725 144.353 172.707C142.083 172.686 139.819 172.455 137.488 172.316C137.051 174.853 136.608 177.427 136.155 180.04C139.35 180.79 142.496 181.084 145.606 180.545C148.71 180.009 151.758 179.13 155.061 178.345L157.427 182.443L161.298 180.208L158.746 175.788C159.075 175.544 159.278 175.393 159.482 175.235C162.486 172.977 164.972 170.298 166.431 166.774C169.817 158.589 164.68 148.189 154.254 148.825C153.111 148.894 151.962 148.999 150.849 149.225C148.794 149.646 146.766 150.172 144.701 150.658L138.087 139.202C141.551 137.974 145.078 137.611 148.74 137.749C148.942 135.085 149.14 132.518 149.34 129.896C143.927 129.6 138.824 130.457 133.881 132.813L132.202 129.905L128.331 132.14L129.972 134.982L129.98 134.985ZM80.4275 95.7394C79.6553 96.6019 79.2128 97.5697 78.5528 98.3473C78.0099 98.99 77.2728 99.6105 76.4987 99.876C75.0629 100.369 73.3772 99.6957 72.5993 98.4647C71.7145 97.0603 71.9386 95.6675 72.7792 94.2951C77.7049 86.2632 82.601 78.2148 87.5296 70.188C88.3559 68.8373 89.2328 67.5044 90.2112 66.2541C91.4343 64.6944 92.3998 64.4461 94.1941 65.1911C96.2422 66.0381 98.2069 67.1013 100.272 67.8848C102.681 68.7988 105.134 69.6476 107.63 70.2696C109.572 70.7475 111.602 70.4562 113.279 69.2865C116.395 67.1178 117.908 64.0128 117.724 60.2483C117.551 56.6317 115.376 54.3531 112.239 52.7969C106.716 50.0517 101.145 47.3745 95.756 44.3839C92.4923 42.5721 89.3701 42.2511 85.8828 43.4043C79.0106 45.6785 72.1333 47.9556 65.1834 49.9789C60.7625 51.2612 58.0218 53.9053 56.8965 58.3116C56.8909 58.3485 56.8773 58.3832 56.8638 58.4179C53.9099 67.025 50.9055 75.6143 48.0181 84.2435C46.2229 89.6078 42.8049 93.5233 37.9118 96.2341C35.3857 97.6321 32.8471 98.9969 30.3123 100.38C29.9688 100.565 29.6369 100.77 29.3244 100.95L58.6509 151.745C60.8938 150.45 63.0807 149.221 65.2355 147.937C69.4516 145.415 73.8187 143.411 78.8456 143.842C79.3736 127.705 79.8959 111.731 80.4203 95.7503L80.4275 95.7394ZM17.7339 94.9473C17.5026 95.0472 17.3311 95.0993 17.1748 95.1895C12.7848 97.724 8.36863 100.213 4.02809 102.834C3.0569 103.421 2.16879 104.351 1.58046 105.322C0.0733746 107.798 0.385567 110.306 1.81145 112.776C12.6087 131.454 23.388 150.136 34.1752 168.82C34.341 169.107 34.5048 169.402 34.6858 169.681C36.7971 172.884 40.698 173.844 44.0319 171.959C45.9992 170.85 47.9431 169.701 49.8987 168.572C52.4591 167.094 55.0195 165.616 57.6556 164.094L17.7339 94.9473ZM97.7577 0.756286C92.2994 5.73555 86.8577 10.7321 81.3907 15.6962C79.8974 17.0557 78.5102 18.5756 76.481 19.2163C69.1967 21.5335 61.9191 23.8737 54.6385 26.2089C53.6358 26.5325 52.6381 26.8531 51.3976 27.2535C51.9235 27.6756 52.2207 27.9342 52.5343 28.1631C58.2955 32.3568 64.0739 36.5338 69.8086 40.763C70.5835 41.3371 71.2098 41.4325 72.1072 41.1361C76.4803 39.6664 80.8614 38.1988 85.2791 36.8646C89.123 35.7004 92.9927 35.489 96.7487 37.2921C97.334 37.5725 97.8943 37.9143 98.2879 38.1306C99.6491 36.4375 100.88 34.7861 102.259 33.2641C102.809 32.6574 103.051 32.1683 102.939 31.3459C101.651 21.794 100.403 12.2397 99.1407 2.68621C99.0309 1.85581 98.9002 1.02407 98.7505 0.00832933C98.3188 0.331494 98.0172 0.519079 97.7577 0.756286ZM149.906 90.5444C152.471 89.0632 155.075 87.6476 157.589 86.0887C162.109 83.2908 163.023 76.6678 159.505 72.7045C156.493 69.3157 152.127 68.6443 147.934 71.0184C143.263 73.6611 138.631 76.3693 133.997 79.0645C133.327 79.4515 132.682 79.9048 132.119 80.4314C128.742 83.6039 128.304 88.6886 131.034 92.4281C133.566 95.8926 138.695 96.9432 142.608 94.758C145.063 93.3878 147.48 91.952 149.914 90.5465C149.914 90.5465 149.911 90.5415 149.908 90.5364L149.906 90.5444ZM162.414 112.348C164.974 110.87 167.571 109.444 170.089 107.903C174.776 105.022 175.71 98.6899 172.13 94.5139C169.276 91.1887 165.06 90.3232 161.233 92.4589C156.134 95.302 151.103 98.274 146.053 101.203C145.61 101.459 145.185 101.771 144.807 102.117C141.347 105.297 140.837 110.384 143.583 114.174C146.127 117.685 151.262 118.733 155.222 116.513C157.639 115.158 160.028 113.745 162.427 112.36L162.422 112.35L162.414 112.348ZM127.987 74.1947C129.445 73.7291 130.807 72.9225 132.151 72.1535C136.583 69.6216 141.038 67.1301 145.378 64.4499C149.267 62.0497 150.466 56.7342 148.213 52.8201C145.895 48.7821 140.125 47.1338 135.864 49.439C132.097 51.4799 128.415 53.6929 124.705 55.8347C124.554 55.922 124.435 56.0647 124.323 56.1627C126.099 62.4156 124.335 67.7755 120.34 72.6825C122.693 74.4421 125.247 75.071 127.992 74.1918L127.987 74.1947ZM114.569 46.2168C116.409 47.204 118.151 48.4162 119.776 49.7293C120.568 50.3676 121.011 50.4139 121.834 49.9187C124.715 48.1813 127.723 46.6397 130.541 44.8044C132.217 43.7155 133.827 42.383 135.112 40.8613C138.334 37.0593 137.692 32.1411 133.779 29.0307C130.726 26.6065 126.825 26.3791 123.191 28.4433C118.176 31.2917 113.15 34.1331 108.158 37.0219C106.52 37.9676 105.326 39.356 104.534 41.2314C107.954 42.9191 111.314 44.467 114.569 46.2168ZM158.844 163.003C158.944 160.277 156.81 157.78 154.137 157.421C152.27 157.168 150.493 157.629 148.644 158.173L154.984 169.156C157.108 167.573 158.743 165.749 158.846 162.995L158.844 163.003ZM130.137 145.196C129.101 147.884 130.561 151.053 133.274 151.946C135.384 152.644 137.463 152.182 139.626 151.727L133.649 141.374C132 142.313 130.789 143.509 130.137 145.196Z" fill="url(#paint0_linear_2924_1815)"/>
<defs>
<linearGradient id="paint0_linear_2924_1815" x1="-64.7775" y1="60.726" x2="186.721" y2="129.563" gradientUnits="userSpaceOnUse">
<stop stop-color="#B9852C"/>
<stop offset="0.06" stop-color="#C18D29"/>
<stop offset="0.17" stop-color="#D9A222"/>
<stop offset="0.24" stop-color="#EEB61D"/>
<stop offset="0.68" stop-color="#FDF289"/>
<stop offset="0.84" stop-color="#ECCA65"/>
<stop offset="1" stop-color="#B9852C"/>
</linearGradient>
</defs>
</svg>
