<svg width="279" height="280" viewBox="0 0 279 280" fill="none" xmlns="http://www.w3.org/2000/svg">
<g clip-path="url(#clip0_2924_1858)">
<path d="M173.131 73.6677C174.176 69.0349 178.61 65.5286 183.976 66.7261C189.764 68.0218 191.827 73.3956 190.903 77.529C189.801 82.4389 185.013 85.5432 180.119 84.4793C175.193 83.4082 172.062 78.5652 173.131 73.6677ZM120.179 84.1633C119.223 83.0108 118.273 81.8546 117.317 80.702C115.581 78.6047 113.862 76.492 112.112 74.4156C110.648 72.6778 108.044 72.8445 106.868 74.7123C106.094 75.945 106.222 77.4162 107.223 78.627C110.628 82.7537 114.039 86.8769 117.449 91.0047C118.914 92.7813 120.803 92.9438 122.558 91.4261C124.924 89.3877 127.283 87.3426 129.646 85.2986C129.777 85.1876 129.897 85.0598 130.021 84.9375C129.969 84.9549 129.913 84.9667 129.861 84.9841C128.716 83.1817 127.57 81.3792 126.41 79.5589C124.489 81.2183 122.539 82.9002 120.57 84.602C120.419 84.4335 120.293 84.3043 120.183 84.169L120.179 84.1633ZM105.871 116.082C105.943 115.693 105.883 115.395 105.667 115.062C103.169 111.262 100.688 107.451 98.2015 103.643C98.1263 103.525 98.0388 103.419 97.8996 103.219C97.8416 103.481 97.7993 103.651 97.7663 103.822C96.8981 108.769 96.0345 113.717 95.1479 118.66C95.0945 118.966 94.8898 119.302 94.6508 119.51C93.4876 120.536 92.289 121.525 91.1058 122.532C87.8988 125.249 84.6893 127.955 81.4941 130.683C79.9187 132.023 79.2486 133.699 79.7322 135.765C80.601 139.47 85.0226 140.903 87.9819 138.411C92.9149 134.263 97.8183 130.074 102.748 125.92C103.893 124.953 104.565 123.77 104.796 122.291C105.125 120.216 105.491 118.15 105.871 116.082ZM120.811 120.224C120.843 118.836 120.506 117.613 119.744 116.455C116.469 111.479 113.221 106.485 109.973 101.496C109.843 101.298 109.71 101.027 109.734 100.811C109.865 99.5221 110.056 98.2423 110.192 96.955C110.538 93.6683 111.358 90.4865 112.42 87.3678C112.599 86.8428 112.53 86.4801 112.166 86.0521C110.236 83.7623 108.325 81.4525 106.432 79.1274C104.83 77.1613 105.219 74.405 107.25 73.0113C109.042 71.7818 111.407 72.1268 112.86 73.8672C115.282 76.7724 117.68 79.6919 120.094 82.6099C120.277 82.829 120.46 83.048 120.667 83.2916C122.48 81.7243 124.255 80.2015 126.015 78.6609C126.338 78.38 126.601 78.0185 126.865 77.6764C127.871 76.3791 128.8 75.0165 129.878 73.7881C131.362 72.0994 133.102 70.7136 135.253 69.9305C136.225 69.576 137.193 69.4286 138.181 69.8739C138.861 70.1789 139.557 70.4583 140.246 70.746C140.369 70.7975 140.5 70.8408 140.661 70.8959C140.691 68.7986 139.951 67.1292 138.362 65.8509C137.333 65.0249 136.125 64.5742 134.893 64.147C133.504 63.6657 132.27 63.8993 131.11 64.7138C130.835 64.9087 130.57 65.212 130.448 65.5228C129.574 67.8385 128.057 69.5874 125.932 70.8397C125.654 71.005 125.378 71.272 125.237 71.5593C124.32 73.436 122.819 74.8748 121.577 76.6072C120.012 74.8904 118.531 73.2548 117.027 71.6336C116.711 71.2935 116.304 71.0393 115.942 70.7371C115.09 70.0275 114.247 69.3051 113.39 68.5991C113.157 68.4076 112.909 68.1983 112.632 68.1178C110.843 67.6108 109.081 67.7661 107.374 68.4595C104.962 69.436 103.291 71.2086 102.03 73.4388C98.4616 79.7519 96.464 86.5093 96.07 93.7616C95.9048 96.7747 96.5546 99.4857 98.2293 102.013C102.311 108.186 106.336 114.395 110.367 120.6C110.557 120.898 110.675 121.305 110.668 121.661C110.56 128.19 110.421 134.722 110.303 141.253C110.254 144.157 112.46 146.44 115.305 146.472C118.116 146.505 120.338 144.29 120.395 141.397C120.533 134.34 120.648 127.281 120.811 120.224ZM119.033 70.963C123.951 72.0514 128.82 68.9746 129.904 64.0801C130.899 59.4075 128.347 54.3934 122.993 53.2276C117.1 51.9473 113.045 56.0491 112.161 60.09C111.082 65.0289 114.126 69.8719 119.029 70.962L119.033 70.963ZM190.741 116.063C191.698 113.679 192.534 111.229 193.245 108.761C194.688 103.725 194.798 98.5616 194.402 93.3735C194.288 91.8814 193.875 90.458 193.152 89.1448C191.867 86.7998 189.979 85.2141 187.325 84.622C186.884 84.5242 186.496 84.5976 186.055 84.7365C184.985 85.0787 183.878 85.3066 182.785 85.5809C182.488 85.6552 182.172 85.6912 181.891 85.8029C179.911 86.6145 177.943 87.443 175.97 88.2658C175.795 88.338 175.612 88.4036 175.38 88.4922C174.999 86.3958 174.237 84.4561 174.198 82.3629C174.192 82.043 174.048 81.688 173.866 81.4209C172.474 79.3851 171.837 77.1596 172.027 74.6876C172.051 74.36 171.942 73.9595 171.757 73.6867C171.292 72.9952 170.845 72.2255 169.998 71.9512C168.539 71.4787 167.035 71.3195 165.503 71.5257C163.674 71.7674 162.175 72.5889 161.128 74.1376C160.891 74.4858 160.713 74.8759 160.511 75.2461C161.595 75.3172 162.593 75.3884 163.591 75.4551C164.219 75.4975 164.735 75.7612 165.222 76.1538C166.363 77.0819 167.212 78.2397 167.88 79.5361C169.154 81.9992 169.803 84.6473 170.172 87.383C170.218 87.7019 170.3 88.0289 170.432 88.3236C171.337 90.3624 172.254 92.3893 173.169 94.4255C173.244 94.5869 173.325 94.7448 173.428 94.9558C174.231 94.5739 175.002 94.2089 175.773 93.8439C178.659 92.4704 181.542 91.0867 184.431 89.7188C186.894 88.5557 189.635 89.7753 190.339 92.3293C190.877 94.2774 189.953 96.2732 188.038 97.2054C185.395 98.4877 182.742 99.768 180.065 100.985C179.39 101.289 179.203 101.696 179.129 102.38C178.837 105.071 178.378 107.734 177.577 110.326C177.079 111.948 176.507 113.549 176.013 115.172C175.895 115.552 175.729 115.8 175.394 116.005C170.27 119.185 165.158 122.377 160.034 125.557C158.983 126.207 158.252 127.088 157.758 128.209C155.014 134.435 152.252 140.656 149.5 146.88C149.076 147.833 148.635 148.778 148.634 149.853C148.635 152.334 150.262 154.315 152.722 154.841C155.058 155.338 157.335 154.144 158.346 151.863C160.991 145.891 163.627 139.912 166.284 133.947C166.419 133.639 166.685 133.331 166.971 133.153C173.507 129.065 180.065 125.011 186.594 120.912C188.459 119.742 189.916 118.11 190.734 116.071L190.741 116.063ZM181.907 139.296C181.572 138.585 181.531 137.964 181.735 137.217C183.014 132.569 184.249 127.906 185.497 123.25C185.544 123.082 185.572 122.91 185.628 122.657C185.483 122.726 185.42 122.746 185.364 122.782C181.379 125.263 177.391 127.739 173.413 130.231C173.239 130.342 173.091 130.575 173.031 130.779C172.44 132.906 171.875 135.044 171.287 137.177C170.912 138.523 171.017 139.81 171.612 141.071C172.282 142.489 172.931 143.921 173.589 145.35C175.64 149.795 177.686 154.243 179.743 158.684C180.85 161.072 183.341 162.245 185.773 161.548C188.797 160.683 190.254 157.392 188.891 154.416C186.577 149.368 184.258 144.324 181.897 139.294L181.907 139.296ZM164.416 92.9851C165.719 95.8841 167.017 98.782 168.326 101.677C169.204 103.619 171.03 104.283 172.961 103.365C177.825 101.054 182.691 98.7337 187.552 96.4173C189.327 95.57 190.04 93.7011 189.247 92.0297C188.457 90.3639 186.552 89.7492 184.774 90.5908C182.316 91.7549 179.86 92.9293 177.401 94.098C175.934 94.7963 174.472 95.491 172.956 96.2168C171.879 93.8216 170.818 91.4635 169.783 89.1643C167.946 90.3355 166.137 91.4889 164.287 92.6719C164.297 92.6934 164.351 92.8405 164.415 92.9897L164.416 92.9851ZM162.271 91.1446C161.116 89.147 160.101 87.0358 157.845 85.9379C157.087 85.5675 156.4 85.0101 155.757 84.448C154.713 83.5413 154.305 82.3749 154.667 80.8048C155.218 78.8808 156.503 77.3942 158.601 76.6811C160.322 76.0971 162.082 76.1053 163.847 76.4575C164.101 76.5089 164.349 76.6747 164.559 76.8371C165.702 77.7125 166.505 78.8601 167.136 80.129C168.35 82.5594 168.961 85.1606 169.269 87.8442C169.286 88.0072 169.201 88.2633 169.076 88.3467C167.513 89.3905 165.944 90.4185 164.36 91.4285C164.107 91.5897 163.789 91.6738 163.492 91.7528C162.781 91.9332 162.628 91.7739 162.265 91.1482L162.271 91.1446ZM164.26 78.537C161.884 78.5226 159.089 81.0356 159.042 83.2305C160.57 81.3635 162.089 79.5813 164.26 78.537ZM143.643 78.2246C143.459 79.7087 142.634 80.7325 141.211 81.1655C140.327 81.433 139.398 81.6183 138.48 81.6901C136.961 81.8124 135.592 82.2428 134.37 83.1642C133.641 83.7121 132.879 84.2095 132.147 84.7472C131.797 85.0025 131.456 84.9271 131.197 84.6815C130.688 84.1924 130.144 83.7053 129.762 83.119C128.926 81.8385 128.171 80.4988 127.413 79.1682C127.33 79.0195 127.336 78.7313 127.421 78.5861C128.838 76.2649 130.506 74.154 132.648 72.4566C133.748 71.5854 134.945 70.8899 136.332 70.5939C136.677 70.5205 137.043 70.5437 137.4 70.5215C139.074 71.0899 140.625 71.7999 141.881 73.0381C143.335 74.4698 143.892 76.2242 143.646 78.2302L143.643 78.2246ZM135.773 72.2026C137.41 74.1186 138.05 76.3691 138.633 78.7081C139.541 76.7424 137.859 72.8524 135.773 72.2026ZM252.545 77.7587L229.573 181.541C226.838 193.897 214.472 201.785 202.07 199.04L53.2021 166.088C40.8049 163.344 32.9166 150.978 35.6525 138.617L58.6245 34.8348C61.3595 22.479 73.7263 14.5907 86.1281 17.3358L235 50.2883C247.398 53.0324 255.286 65.3993 252.55 77.7597L252.545 77.7587ZM233.208 87.1828C235.559 76.5612 228.428 66.268 217.807 63.9169L95.4675 36.8374C84.846 34.4864 74.2762 40.905 71.9251 51.5266L54.0676 132.203C51.7166 142.824 59.7784 150.679 70.4 153.03L192.739 180.11C203.361 182.461 213 178.481 215.351 167.859L233.208 87.1828ZM142.051 202.398C144.678 199.664 146.638 196.214 147.602 192.272L104.867 182.813C104.036 187.069 104.469 191.285 105.91 195.064L84.8246 232.05C83.3697 234.503 84.2978 237.57 86.8881 238.795L89.4785 240.019C91.6732 241.07 94.5148 240.179 95.7308 238.021L114.278 205.568C116.436 207.002 118.883 208.069 121.565 208.663C124.449 209.301 127.328 209.33 130.066 208.841L133.175 246.309C133.367 248.779 135.567 250.786 138 250.76L140.865 250.742C143.731 250.725 145.903 248.345 145.624 245.508L142.06 202.4L142.051 202.398Z" fill="url(#paint0_linear_2924_1858)"/>
</g>
<defs>
<linearGradient id="paint0_linear_2924_1858" x1="76.151" y1="-25.4016" x2="192.35" y2="203.056" gradientUnits="userSpaceOnUse">
<stop stop-color="#B9852C"/>
<stop offset="0.06" stop-color="#C18D29"/>
<stop offset="0.17" stop-color="#D9A222"/>
<stop offset="0.24" stop-color="#EEB61D"/>
<stop offset="0.68" stop-color="#FDF289"/>
<stop offset="0.84" stop-color="#ECCA65"/>
<stop offset="1" stop-color="#B9852C"/>
</linearGradient>
<clipPath id="clip0_2924_1858">
<rect width="233.733" height="233.733" fill="white" transform="translate(50.6484 0.816406) rotate(12.481)"/>
</clipPath>
</defs>
</svg>
