<svg width="20" height="20" viewBox="0 0 20 20" fill="none" xmlns="http://www.w3.org/2000/svg">
<path d="M10.001 0C15.524 0 20.001 4.477 20.001 10C20.001 15.523 15.524 20 10.001 20C8.23375 20.003 6.49758 19.5353 4.971 18.645L0.00499965 20L1.357 15.032C0.465958 13.5049 -0.00209743 11.768 0.000999461 10C0.000999461 4.477 4.478 0 10.001 0ZM6.593 5.3L6.393 5.308C6.26369 5.31691 6.13735 5.35087 6.021 5.408C5.91257 5.46951 5.81356 5.5463 5.727 5.636C5.607 5.749 5.539 5.847 5.466 5.942C5.09612 6.4229 4.89697 7.01331 4.9 7.62C4.902 8.11 5.03 8.587 5.23 9.033C5.639 9.935 6.312 10.89 7.2 11.775C7.414 11.988 7.624 12.202 7.85 12.401C8.95343 13.3724 10.2683 14.073 11.69 14.447L12.258 14.534C12.443 14.544 12.628 14.53 12.814 14.521C13.1052 14.5056 13.3895 14.4268 13.647 14.29C13.7778 14.2223 13.9056 14.1489 14.03 14.07C14.03 14.07 14.0723 14.0413 14.155 13.98C14.29 13.88 14.373 13.809 14.485 13.692C14.569 13.6053 14.639 13.5047 14.695 13.39C14.773 13.227 14.851 12.916 14.883 12.657C14.907 12.459 14.9 12.351 14.897 12.284C14.893 12.177 14.804 12.066 14.707 12.019L14.125 11.758C14.125 11.758 13.255 11.379 12.723 11.137C12.6673 11.1128 12.6077 11.0989 12.547 11.096C12.4786 11.0888 12.4094 11.0965 12.3442 11.1184C12.279 11.1403 12.2192 11.176 12.169 11.223C12.164 11.221 12.097 11.278 11.374 12.154C11.3325 12.2098 11.2753 12.2519 11.2098 12.2751C11.1443 12.2982 11.0733 12.3013 11.006 12.284C10.9408 12.2666 10.877 12.2446 10.815 12.218C10.691 12.166 10.648 12.146 10.563 12.11C9.98887 11.8599 9.45744 11.5215 8.988 11.107C8.862 10.997 8.745 10.877 8.625 10.761C8.23161 10.3842 7.88875 9.95799 7.605 9.493L7.546 9.398C7.50426 9.3338 7.47004 9.26501 7.444 9.193C7.406 9.046 7.505 8.928 7.505 8.928C7.505 8.928 7.748 8.662 7.861 8.518C7.971 8.378 8.064 8.242 8.124 8.145C8.242 7.955 8.279 7.76 8.217 7.609C7.937 6.925 7.64767 6.24467 7.349 5.568C7.29 5.434 7.115 5.338 6.956 5.319C6.902 5.31233 6.848 5.307 6.794 5.303C6.65973 5.2953 6.52509 5.29664 6.391 5.307L6.593 5.3Z" fill="#EFAF00"/>
</svg>
