<svg width="40" height="40" viewBox="0 0 40 40" fill="none" xmlns="http://www.w3.org/2000/svg">
<path d="M28.3939 0.462402C31.2903 0.462402 34.068 1.61298 36.116 3.66101C38.1641 5.70904 39.3146 8.48678 39.3146 11.3831V28.8563C39.3146 31.7527 38.1641 34.5304 36.116 36.5784C34.068 38.6265 31.2903 39.777 28.3939 39.777H10.9207C8.02437 39.777 5.24664 38.6265 3.19861 36.5784C1.15057 34.5304 0 31.7527 0 28.8563V11.3831C0 8.48678 1.15057 5.70904 3.19861 3.66101C5.24664 1.61298 8.02437 0.462402 10.9207 0.462402H28.3939ZM19.6573 11.3831C17.3402 11.3831 15.118 12.3036 13.4796 13.942C11.8412 15.5804 10.9207 17.8026 10.9207 20.1197C10.9207 22.4368 11.8412 24.659 13.4796 26.2974C15.118 27.9358 17.3402 28.8563 19.6573 28.8563C21.9744 28.8563 24.1966 27.9358 25.835 26.2974C27.4734 24.659 28.3939 22.4368 28.3939 20.1197C28.3939 17.8026 27.4734 15.5804 25.835 13.942C24.1966 12.3036 21.9744 11.3831 19.6573 11.3831ZM19.6573 15.7514C20.8159 15.7514 21.927 16.2117 22.7462 17.0309C23.5654 17.8501 24.0256 18.9612 24.0256 20.1197C24.0256 21.2783 23.5654 22.3894 22.7462 23.2086C21.927 24.0278 20.8159 24.488 19.6573 24.488C18.4988 24.488 17.3877 24.0278 16.5685 23.2086C15.7493 22.3894 15.289 21.2783 15.289 20.1197C15.289 18.9612 15.7493 17.8501 16.5685 17.0309C17.3877 16.2117 18.4988 15.7514 19.6573 15.7514ZM29.486 8.10691C28.9067 8.10691 28.3512 8.33703 27.9415 8.74664C27.5319 9.15624 27.3018 9.71179 27.3018 10.2911C27.3018 10.8703 27.5319 11.4259 27.9415 11.8355C28.3512 12.2451 28.9067 12.4752 29.486 12.4752C30.0652 12.4752 30.6208 12.2451 31.0304 11.8355C31.44 11.4259 31.6701 10.8703 31.6701 10.2911C31.6701 9.71179 31.44 9.15624 31.0304 8.74664C30.6208 8.33703 30.0652 8.10691 29.486 8.10691Z" fill="#EFAF00"/>
</svg>
