<svg width="53" height="35" viewBox="0 0 53 35" fill="none" xmlns="http://www.w3.org/2000/svg">
<rect width="53" height="35" rx="5" fill="#EFAF00"/>
<path d="M24 28V23C24 22.057 24 21.586 23.707 21.293C23.414 21 22.943 21 22 21H21.5C20.085 21 19.378 21 18.94 21.44C18.5 21.879 18.5 22.586 18.5 24V28H24ZM24 28H30M24 28V22C24 20.586 24 19.879 24.44 19.44C24.878 19 25.585 19 27 19C28.415 19 29.121 19 29.56 19.44C30 19.879 30 20.586 30 22V28M30 28H35.5V26C35.5 24.586 35.5 23.879 35.06 23.44C34.621 23 33.914 23 32.5 23H32C31.057 23 30.586 23 30.293 23.293C30 23.586 30 24.057 30 25V28ZM17 28H37M27.691 8.57801L28.395 9.99801C28.4547 10.1044 28.5362 10.197 28.634 10.2699C28.7319 10.3428 28.844 10.3943 28.963 10.421L30.239 10.634C31.055 10.771 31.247 11.368 30.659 11.957L29.667 12.957C29.58 13.0555 29.5162 13.1721 29.4802 13.2984C29.4443 13.4248 29.437 13.5575 29.459 13.687L29.743 14.925C29.967 15.905 29.451 16.284 28.591 15.772L27.395 15.058C27.2726 14.9945 27.1368 14.9614 26.999 14.9614C26.8612 14.9614 26.7254 14.9945 26.603 15.058L25.407 15.772C24.551 16.284 24.031 15.901 24.255 14.925L24.539 13.687C24.561 13.5575 24.5537 13.4248 24.5178 13.2984C24.4818 13.1721 24.418 13.0555 24.331 12.957L23.34 11.957C22.756 11.368 22.944 10.771 23.76 10.634L25.035 10.421C25.1534 10.3937 25.2648 10.3418 25.3619 10.2688C25.4591 10.1957 25.5398 10.1032 25.599 9.99701L26.303 8.57701C26.687 7.80701 27.311 7.80701 27.691 8.57701" stroke="black" stroke-width="1.5" stroke-linecap="round" stroke-linejoin="round"/>
</svg>
