<svg width="350" height="350" viewBox="0 0 350 350" fill="none" xmlns="http://www.w3.org/2000/svg">
<g clip-path="url(#clip0_2924_1773)">
<path d="M182.567 268.054C184.984 265.184 186.356 262.088 186.732 258.553C186.763 258.234 187.113 257.863 187.413 257.676C194.861 252.953 197.093 244.648 193.033 236.812C192.849 236.453 192.816 235.867 192.974 235.499C196.384 227.569 193.47 219.368 185.856 215.423C185.418 215.193 185.037 214.573 184.904 214.067C183.537 208.886 180.642 205.01 175.533 203.046C172.894 202.035 170.155 202.016 167.381 202.421C166.872 202.499 166.169 202.322 165.775 201.996C159.057 196.507 150.648 197.062 144.696 203.395C144.364 203.746 143.746 204.032 143.275 204.013C134.731 203.628 128.049 209.265 127.067 217.708C127.014 218.17 126.652 218.745 126.259 218.991C119.028 223.499 116.697 232.199 120.733 239.702C120.919 240.05 121.085 240.588 120.947 240.902C119.534 244.154 119.133 247.516 119.793 251.138C119.362 251.058 119.028 251.017 118.701 250.929C109.139 248.367 99.5737 245.822 90.017 243.243C83.3182 241.436 79.7283 235.267 81.5211 228.576C97.7638 167.913 114.018 107.253 130.282 46.5962C132.056 39.9777 138.266 36.4109 144.89 38.1858C186.115 49.2198 227.33 60.2635 268.548 71.3197C275.311 73.1318 278.75 79.3318 276.89 86.2723C263.177 137.449 249.465 188.625 235.752 239.802C233.327 248.852 230.711 257.858 228.536 266.975C226.757 274.437 219.892 278.316 212.68 276.182C203.189 273.377 193.579 270.998 184.018 268.436L182.557 268.045L182.567 268.054ZM195.133 98.0249C209.242 101.805 223.345 105.584 237.454 109.365C237.848 109.47 238.232 109.591 238.634 109.669C240.552 110.04 242.465 108.94 243.09 107.12C243.715 105.299 242.886 103.239 241.141 102.378C240.674 102.146 240.151 102.03 239.64 101.893C211.312 94.3022 182.978 86.7102 154.65 79.1196C154.294 79.0244 153.945 78.907 153.59 78.8536C151.959 78.6128 150.624 79.13 149.675 80.4944C148.068 82.8071 149.309 85.7464 152.236 86.5304C166.537 90.3685 180.842 94.1954 195.145 98.0279L195.133 98.0249ZM193.234 105.58C179.087 101.789 164.945 97.9995 150.797 94.2087C150.403 94.1031 150.019 93.9823 149.617 93.9044C147.785 93.5445 145.953 94.5176 145.243 96.2138C144.534 97.9043 145.107 99.9205 146.695 100.923C147.295 101.304 148.022 101.523 148.716 101.709C176.964 109.29 205.214 116.859 233.471 124.431C233.865 124.536 234.252 124.67 234.652 124.729C236.284 124.97 237.625 124.449 238.573 123.09C240.184 120.784 238.939 117.838 236.025 117.051C221.762 113.224 207.497 109.407 193.238 105.587L193.234 105.58ZM189.14 120.616C174.992 116.825 160.85 113.036 146.703 109.245C146.308 109.139 145.924 109.018 145.521 108.946C142.876 108.469 140.522 110.725 140.971 113.357C141.296 115.253 142.567 116.218 144.382 116.705C172.832 124.31 201.281 131.939 229.726 139.561C229.998 139.633 230.273 139.719 230.551 139.77C232.47 140.135 234.382 139.041 235.005 137.226C235.63 135.406 234.807 133.346 233.063 132.48C232.596 132.248 232.075 132.126 231.564 131.989C217.417 128.199 203.275 124.409 189.127 120.618L189.14 120.616ZM183.014 143.166C197.123 146.946 211.226 150.725 225.335 154.505C225.729 154.611 226.113 154.732 226.515 154.81C228.437 155.188 230.351 154.106 230.987 152.289C231.621 150.477 230.807 148.408 229.065 147.536C228.567 147.284 228 147.156 227.451 147.009C199.2 139.439 170.949 131.869 142.693 124.298C142.338 124.203 141.991 124.098 141.631 124.019C139.698 123.614 137.789 124.656 137.125 126.466C136.444 128.319 137.282 130.435 139.077 131.309C139.546 131.536 140.073 131.654 140.579 131.789C154.726 135.58 168.868 139.369 183.016 143.16L183.014 143.166ZM178.981 158.218C193.09 161.999 207.193 165.777 221.301 169.558C221.696 169.664 222.08 169.784 222.481 169.862C224.404 170.24 226.318 169.158 226.954 167.341C227.588 165.529 226.774 163.46 225.031 162.589C224.534 162.336 223.967 162.208 223.417 162.061C195.167 154.491 166.916 146.922 138.66 139.35C138.304 139.255 137.958 139.15 137.598 139.072C135.665 138.667 133.755 139.709 133.092 141.518C132.411 143.371 133.248 145.488 135.043 146.362C135.512 146.589 136.04 146.706 136.545 146.842C150.693 150.632 164.835 154.422 178.982 158.213L178.981 158.218ZM177.104 165.779C162.956 161.988 148.814 158.199 134.667 154.408C134.273 154.302 133.888 154.181 133.487 154.104C131.655 153.744 129.825 154.711 129.109 156.406C128.394 158.095 128.972 160.113 130.561 161.115C131.161 161.496 131.888 161.715 132.582 161.901C160.829 169.482 189.08 177.052 217.336 184.623C217.73 184.728 218.117 184.862 218.518 184.922C220.148 185.168 221.491 184.641 222.437 183.288C224.049 180.982 222.81 178.032 219.895 177.251C205.632 173.423 191.366 169.606 177.108 165.786L177.104 165.779ZM173.005 180.808C158.858 177.017 144.716 173.228 130.568 169.437C130.174 169.331 129.79 169.211 129.387 169.138C126.747 168.663 124.386 170.923 124.842 173.55C125.173 175.448 126.438 176.412 128.259 176.9C156.709 184.505 185.158 192.134 213.603 199.756C213.875 199.829 214.149 199.914 214.427 199.965C216.347 200.33 218.259 199.236 218.883 197.416C219.508 195.595 218.68 193.534 216.936 192.668C216.469 192.436 215.946 192.32 215.437 192.178C201.289 188.387 187.147 184.597 173 180.807L173.005 180.808ZM127.801 244.816C128.15 244.046 128.772 242.594 129.455 241.176C129.842 240.375 129.896 239.664 129.332 238.924C128.941 238.408 128.596 237.852 128.269 237.294C125.256 232.172 126.471 227.57 131.742 224.888C133.768 223.86 134.768 222.723 134.747 220.403C134.731 218.863 135.13 217.244 135.696 215.795C136.778 213.026 139.552 211.621 142.97 211.859C144.104 211.936 145.225 212.195 146.352 212.205C146.917 212.208 147.624 211.969 148.012 211.585C148.989 210.627 149.766 209.46 150.731 208.481C153.861 205.326 157.391 205.189 160.787 208.063C161.621 208.769 162.419 209.524 163.147 210.338C163.828 211.104 164.542 211.217 165.507 210.97C167.109 210.566 168.735 210.139 170.378 210.026C173.227 209.831 175.585 211.314 176.584 213.98C177.216 215.667 177.506 217.494 177.849 219.276C178.03 220.2 178.371 220.815 179.32 221.116C180.202 221.4 181.041 221.822 181.887 222.221C186.341 224.343 187.718 228.086 185.708 232.588C185.379 233.327 185.114 234.119 184.669 234.779C183.728 236.158 184.064 237.348 184.998 238.527C185.122 238.685 185.243 238.855 185.348 239.02C188.61 244.167 187.465 249.043 181.972 251.796C180.047 252.762 178.958 253.851 179.098 256.103C179.164 257.168 178.901 258.282 178.637 259.335C177.746 262.905 175.138 264.885 171.459 264.78C170.089 264.74 168.72 264.45 167.349 264.416C166.835 264.403 166.18 264.668 165.809 265.033C164.95 265.886 164.266 266.905 163.438 267.796C160.213 271.258 156.706 271.532 153.016 268.58C152.105 267.848 151.296 266.982 150.496 266.125C149.922 265.513 149.327 265.401 148.537 265.618C147.251 265.976 145.955 266.325 144.636 266.519C140.757 267.092 137.964 265.344 136.818 261.603C136.427 260.332 136.134 259.004 136.035 257.686C135.929 256.325 135.203 255.725 134.052 255.292C132.992 254.895 131.94 254.446 130.96 253.88C127.699 251.995 126.588 249.144 127.817 244.802L127.801 244.816ZM171.427 257.237C170.833 250.704 173.554 246.589 178.986 244.617C177.994 241.923 176.718 239.51 176.261 236.954C175.773 234.222 177.441 231.771 178.739 229.149C172.659 227.764 169.913 223.821 169.852 217.675C164.148 220.217 159.656 218.9 155.988 213.978C152.882 219.353 148.471 221.265 142.412 219.427C142.987 225.854 140.303 230.05 134.85 232.011C135.846 234.736 137.374 237.186 137.481 239.697C137.593 242.208 136.289 244.787 135.536 247.596C141.092 248.871 143.945 252.73 143.896 258.953C149.593 256.481 154.145 257.682 157.834 262.682C160.915 257.313 165.298 255.345 171.427 257.237ZM108.634 43.0152C102.21 42.4721 97.2305 46.6844 96.4782 53.1123C96.1367 56.0082 95.8007 58.9056 95.4758 61.806C94.2757 72.3927 93.0866 82.9824 91.885 93.5746C90.6897 104.121 89.4929 114.673 88.3031 125.221C87.103 135.807 85.9013 146.4 84.7067 156.988C83.5066 167.575 82.3105 178.168 81.1159 188.756C80.4246 194.867 79.7334 200.978 79.0422 207.089L79.2173 207.124L79.5149 206.014C83.7669 190.145 88.0189 174.276 92.2695 158.413C92.3736 158.025 92.4918 157.628 92.5334 157.228C93.3518 150.021 94.1521 142.814 94.965 135.605C96.1547 125.057 97.3515 114.505 98.5468 103.959C99.747 93.3722 100.949 82.78 102.149 72.1933C102.843 66.0712 103.506 59.9527 104.223 53.8366C104.461 51.7936 106.121 50.5485 108.171 50.7824C110.465 51.0399 112.76 51.3155 115.053 51.573C116.931 51.7845 118.814 51.9737 120.676 52.1752L122.709 44.5906C117.973 44.0536 113.318 43.4133 108.645 43.0182L108.634 43.0152ZM283.37 95.9355C286.936 97.4861 290.512 99.0214 294.073 100.589C296.086 101.473 296.804 103.302 295.936 105.295C291.766 114.884 287.586 124.464 283.405 134.05C279.13 143.854 274.858 153.665 270.583 163.469C266.323 173.236 262.053 183 257.814 192.779C256.492 195.823 254.907 198.808 254.027 201.982C249.678 217.7 245.53 233.472 241.31 249.218L240.927 250.651C241.129 250.449 241.207 250.404 241.232 250.334C246.241 238.857 251.244 227.379 256.248 215.902C263.435 199.409 270.621 182.916 277.809 166.417C286.287 146.95 294.764 127.482 303.23 108.011C305.357 103.118 303.501 97.1401 298.935 94.3693C297.558 93.536 296.032 92.9429 294.553 92.2905C291.259 90.8366 287.95 89.4144 284.588 87.9482L282.562 95.5106C282.874 95.6776 283.116 95.8197 283.372 95.9299L283.37 95.9355ZM167.627 274.506C167.286 275.022 167.047 275.339 167.223 275.969C167.846 278.153 168.405 280.351 168.983 282.547C169.099 282.982 169.196 283.419 169.349 284.049C167.456 283.25 166.021 281.92 164.009 282.368C161.964 282.826 161.365 284.749 160.129 286.232C159.395 283.506 158.717 280.974 158.02 278.377C154.832 278.416 152.02 277.359 149.207 275.534C151.174 282.916 153.036 290.003 154.992 297.073C155.201 297.826 155.831 298.584 156.469 299.07C158.339 300.505 160.723 299.871 162.17 297.646C163.516 295.578 164.835 293.498 166.215 291.345C166.596 291.524 166.921 291.665 167.233 291.832C169.269 292.919 171.315 293.99 173.334 295.115C174.919 295.998 176.46 296 177.884 294.882C179.317 293.754 179.623 292.235 179.158 290.504C178.23 287.06 177.322 283.609 176.407 280.162C175.722 277.586 175.034 275.003 174.352 272.44C171.9 272.64 169.305 271.951 167.623 274.499L167.627 274.506ZM146.305 274.215C145.961 274.253 145.612 274.291 145.268 274.33C142.768 274.624 140.306 274.416 137.992 273.433C137.052 273.033 136.565 273.229 135.936 273.888C134.473 275.442 132.939 276.923 131.051 278.816C131.863 273.344 129.253 271.603 124.219 272.2C125.945 270.467 127.228 269.008 128.694 267.758C129.945 266.689 130.045 265.758 129.549 264.167C128.963 262.29 128.145 260.969 126.35 260.161C125.745 259.886 125.441 259.888 125.011 260.338C123.806 261.592 122.567 262.819 121.337 264.055C118.422 266.981 115.479 269.882 112.596 272.847C110.568 274.928 111.083 278.113 113.648 279.223C114.395 279.548 115.303 279.577 116.138 279.616C118.554 279.728 120.975 279.776 123.478 279.851C123.519 280.386 123.563 280.821 123.584 281.255C123.689 283.437 123.746 285.624 123.893 287.806C124.006 289.497 124.906 290.714 126.498 291.301C128.01 291.855 129.376 291.465 130.532 290.371C131.266 289.675 131.973 288.947 132.683 288.227C137.252 283.637 141.826 279.049 146.396 274.453L146.306 274.209L146.305 274.215ZM159.877 227.005C153.645 225.389 147.232 229.134 145.616 235.342C143.985 241.606 147.683 247.929 153.941 249.582C160.199 251.235 166.547 247.532 168.182 241.276C169.813 235.03 166.081 228.614 159.878 227L159.877 227.005Z" fill="url(#paint0_linear_2924_1773)"/>
</g>
<defs>
<linearGradient id="paint0_linear_2924_1773" x1="80.1355" y1="13.2947" x2="242.21" y2="236.177" gradientUnits="userSpaceOnUse">
<stop stop-color="#B9852C"/>
<stop offset="0.06" stop-color="#C18D29"/>
<stop offset="0.17" stop-color="#D9A222"/>
<stop offset="0.24" stop-color="#EEB61D"/>
<stop offset="0.68" stop-color="#FDF289"/>
<stop offset="0.84" stop-color="#ECCA65"/>
<stop offset="1" stop-color="#B9852C"/>
</linearGradient>
<clipPath id="clip0_2924_1773">
<rect width="285.172" height="285.172" fill="white" transform="translate(73.8086) rotate(15)"/>
</clipPath>
</defs>
</svg>
