<svg width="347" height="240" viewBox="0 0 347 240" fill="none" xmlns="http://www.w3.org/2000/svg">
<rect x="2.80945" y="16.0244" width="343.691" height="206.276" rx="14.5" fill="#1A1A1A" stroke="#C28E02"/>
<path d="M86.5342 124.626H95.9297V157.292H86.5342V124.626ZM50.9947 124.626L39.2481 136.293V124.626H29.8527V157.292H39.2481V145.625L50.9947 157.292H64.2456L47.8028 140.96L64.2456 124.626H50.9947ZM137.095 82.4238H127.699V99.1534L104.206 75.8188V115.09H113.602V98.3608L137.095 121.695V82.4238ZM39.2512 103.423H52.1718C55.0856 103.423 57.5743 102.397 59.6411 100.344C61.7079 98.2909 62.7414 95.8159 62.7414 92.9249C62.7414 90.0339 61.7079 87.559 59.6411 85.5061C57.5743 83.4533 55.0825 82.4268 52.1718 82.4268H29.8557V91.7588H52.1718C52.502 91.7588 52.7772 91.8712 53.0065 92.0959C53.2328 92.3206 53.3459 92.597 53.3459 92.9249C53.3459 93.2529 53.2328 93.5293 53.0065 93.754C52.7803 93.9787 52.502 94.0911 52.1718 94.0911H29.8557V115.09H39.2512V103.423ZM90.1114 98.7586C90.1114 100.687 89.4235 102.336 88.0446 103.705C86.6657 105.075 85.0055 105.758 83.064 105.758C81.1226 105.758 79.4624 105.075 78.0835 103.705C76.7046 102.336 76.0167 100.687 76.0167 98.7586V82.4238H66.6212V98.7586C66.6212 103.268 68.2264 107.119 71.4367 110.307C74.6469 113.496 78.5238 115.09 83.064 115.09C87.6043 115.09 91.4811 113.496 94.6914 110.307C97.9017 107.119 99.5069 103.268 99.5069 98.7586V82.4238H90.1114V98.7586ZM143.992 141.355L120.499 118.021V157.292H129.895V140.563L153.388 163.897V124.626H143.992V141.355ZM202.096 82.4238V94.0911H188.001V82.4238H178.605V115.09H188.001V103.423H202.096V115.09H211.491V82.4238H202.096ZM182.773 129.409C179.562 132.597 177.957 136.448 177.957 140.957C177.957 145.467 179.562 149.318 182.773 152.506C185.983 155.695 189.86 157.289 194.4 157.289H210.843V136.29H201.447V147.957H194.4C192.459 147.957 190.798 147.274 189.42 145.904C188.041 144.535 187.353 142.886 187.353 140.957C187.353 139.029 188.041 137.38 189.42 136.011C190.798 134.641 192.459 133.958 194.4 133.958H210.843V124.626H194.4C189.857 124.626 185.983 126.22 182.773 129.409ZM158.237 91.7558C160.178 91.7558 161.839 92.4391 163.217 93.8086C164.312 94.8988 164.972 96.1561 165.189 97.5894H174.634C174.383 93.5748 172.793 90.1159 169.864 87.2067C166.654 84.0181 162.777 82.4238 158.237 82.4238C153.697 82.4238 149.82 84.0181 146.609 87.2067C143.399 90.3953 141.794 94.2459 141.794 98.7555C141.794 103.265 143.399 107.116 146.609 110.304C149.82 113.493 153.697 115.087 158.237 115.087C162.777 115.087 166.654 113.493 169.864 110.304C172.793 107.395 174.383 103.933 174.634 99.9217H165.189C164.969 101.352 164.312 102.612 163.217 103.702C161.839 105.072 160.178 105.755 158.237 105.755C156.295 105.755 154.635 105.072 153.256 103.702C151.877 102.333 151.19 100.684 151.19 98.7555C151.19 96.8272 151.877 95.1782 153.256 93.8086C154.635 92.4391 156.295 91.7558 158.237 91.7558Z" fill="url(#paint0_linear_2828_42)"/>
<path d="M277.444 105.705L278.315 105.898L277.391 105.54L276.572 105.898L277.444 105.705Z" fill="url(#paint1_linear_2828_42)"/>
<path d="M278.276 104.285L277.441 104.552L276.551 104.285L273.945 105.011H281.162L278.276 104.285Z" fill="url(#paint2_linear_2828_42)"/>
<path d="M275.36 103.089C275.591 102.982 275.561 102.645 275.315 102.58L274.069 102.248C273.766 102.168 273.442 102.254 273.219 102.476L272.525 103.17C272.419 103.275 272.483 103.455 272.63 103.472L273.828 103.612C274.04 103.636 274.255 103.602 274.45 103.511L275.36 103.089Z" fill="url(#paint3_linear_2828_42)"/>
<path d="M264.414 76.5486L264.564 77.2474L266.502 87.8761C266.529 87.842 266.57 87.8234 266.615 87.8358C266.886 87.9117 267.244 88.0078 267.666 88.1038C269.341 88.4865 270.709 88.5872 272.429 88.6508C273.91 88.705 276.042 88.7794 278.942 88.6508C279.726 88.6151 281.333 88.5315 283.376 88.3223C284.78 88.1782 286.013 88.014 287.034 87.8606L288.686 76.5486C289.459 76.5006 290.073 75.8607 290.073 75.0752C290.073 74.2897 289.411 73.5971 288.595 73.5971C287.778 73.5971 287.117 74.2587 287.117 75.0752C287.117 75.6438 287.437 76.1365 287.907 76.3829L284.16 80.8698V76.4061L280.767 79.4707L277.682 74.0139C278.468 73.7412 279.034 72.9975 279.034 72.119C279.034 71.0112 277.027 68.949 277.027 68.949C277.027 68.949 275.021 71.0112 275.021 72.119C275.021 72.9262 275.499 73.6219 276.187 73.9395L272.484 79.5079L269.382 76.8074L269.017 80.3105L265.162 76.3983C265.65 76.1566 265.988 75.6562 265.988 75.0736C265.988 74.2571 265.326 73.5955 264.51 73.5955C263.693 73.5955 263.032 74.2571 263.032 75.0736C263.032 75.8902 263.642 76.4975 264.414 76.5471V76.5486Z" fill="url(#paint4_linear_2828_42)"/>
<path d="M287.882 96.771C288.032 96.7663 288.303 96.6687 288.795 95.4571C289.346 94.0983 289.757 93.0835 289.524 91.7712C289.402 91.0864 289.021 89.8407 288.503 89.8376C288.085 89.8345 287.643 90.6432 287.408 91.8084L287.086 88.7964C287.154 90.2327 287.245 93.116 287.065 95.956C287.197 96.2303 287.505 96.7834 287.882 96.7725V96.771Z" fill="url(#paint5_linear_2828_42)"/>
<path d="M250.043 141.153C250.043 141.153 250.042 141.147 250.04 141.145C250.039 141.137 250.035 141.129 250.034 141.12C249.781 141.472 249.518 141.831 249.238 142.203C247.832 144.053 245.925 146.535 242.888 149.064C241.159 150.503 238.533 152.398 234.949 154.019C234.949 154.019 231.94 153.369 231.138 151.837C231.138 151.837 235.152 151.399 240.479 147.093C245.807 142.787 248.508 138.773 248.508 138.773C248.508 138.773 245.223 133.08 244.275 132.935C243.457 132.809 239.445 132.859 236.244 134.126C235.488 134.425 234.782 134.836 234.13 135.319L231.139 137.532C231.139 137.532 232.817 131.255 241.867 130.964C242.076 130.961 242.292 130.964 242.504 130.964C243.472 130.056 245.759 128.654 246.593 126.118L242.707 125.877C244.252 125.389 250.102 122.735 250.316 119.141C250.152 116.787 250.973 116.569 250.973 116.569C251.225 126.015 256.205 113.89 259.239 111.862C259.239 111.862 260.06 111.423 257.651 110.602C254.941 109.781 255.708 109.563 255.708 109.563C255.708 109.563 259.511 109.508 260.443 109.837C261.101 110.069 264.7 107.945 269.257 108.912C272.504 109.524 274.635 111.011 276 112.97C276.173 112.858 276.44 112.686 276.891 112.382C277.473 111.99 277.755 111.788 278.561 111.233C279.356 110.686 279.752 110.413 279.847 110.357C280.67 109.876 281.367 109.657 282.118 109.426C283.238 109.082 284.117 108.949 284.772 108.851C285.86 108.69 286.841 108.545 288.165 108.633C289.453 108.718 290.096 108.762 290.655 109.044C291.072 109.254 291.797 109.719 292.408 109.618C292.454 109.611 292.597 109.609 293.055 109.502C293.199 109.468 293.385 109.432 293.639 109.4C294.196 109.327 294.625 109.305 294.953 109.29C295.725 109.253 296.368 109.262 296.368 109.262C296.368 109.262 297.335 109.336 297.062 109.747C296.788 110.158 295.83 110.55 294.818 110.85C293.805 111.151 294.462 111.753 294.462 111.753C294.82 112.057 295.395 112.573 296.022 113.286C297.023 114.423 297.384 115.184 298.512 116.761C298.867 117.257 299.42 118.005 300.154 118.896C301.276 120.703 302.782 121.003 302.782 121.003C302.708 120.416 302.674 119.585 302.864 118.622C302.988 117.999 303.174 117.474 303.357 117.062C303.396 117.509 303.72 121.003 305.054 122.235C305.283 122.447 305.989 123.005 306.532 123.412C306.877 123.673 307.182 123.891 307.599 124.124C308.014 124.356 308.346 124.492 308.448 124.534C309.034 124.771 309.401 124.825 309.734 124.917C310.185 125.041 310.806 125.295 311.513 125.879C311.513 125.879 307.271 125.82 306.942 126.094C306.614 126.369 308.064 128.192 308.064 128.192H308.502L310.875 130.856C313.245 130.933 318.158 131.471 321.384 135.026C321.912 135.608 322.424 136.303 322.856 136.959C322.878 136.041 322.828 134.833 322.552 133.446C322.337 132.369 321.993 130.724 320.91 128.958C320.253 127.885 319.548 127.148 318.136 125.673C317.387 124.889 316.733 124.269 316.276 123.848C316.666 120.961 316.286 118.684 315.947 117.316C315.667 116.18 315.318 114.823 314.342 113.301C313.84 112.52 312.446 110.562 309.891 109.287C307.581 108.134 305.464 108.109 303.286 108.083C302.021 108.067 300.966 108.167 300.221 108.266C297.688 106.166 293.954 103.726 289.018 102.463C288.144 102.24 287.298 102.071 286.481 101.944L286.828 98.7774L286.061 101.879L283.981 104.251L281.024 107.426L279.416 108.958H275.112L273.141 107.644L270.295 104.908L268.052 101.455C268.775 102.281 269.302 102.902 269.638 103.348C269.739 103.483 269.963 103.787 270.236 103.766C270.427 103.752 270.541 103.594 270.541 103.594C271.014 103.221 271.499 102.82 271.992 102.391C272.415 102.022 272.765 101.593 273.195 101.295C273.395 101.157 273.978 100.906 274.201 100.812C274.252 100.79 274.278 100.734 274.263 100.682L274.158 100.322C274.154 100.313 274.153 100.305 274.153 100.296C274.11 99.7427 274.432 99.2717 274.717 98.9665C274.796 98.8828 274.932 98.9634 274.898 99.0734C274.827 99.2996 274.794 99.5645 274.894 99.8171C274.994 100.076 275.169 100.161 275.605 100.474C276.813 101.34 276.965 101.755 277.411 101.678C277.758 101.617 277.977 101.312 278.068 101.185C278.386 100.742 278.355 100.228 278.342 99.9813C278.294 99.0997 278.253 97.8478 278.18 96.2892C278.18 96.2706 278.174 96.252 278.163 96.2349C278.031 96.0258 277.823 95.7825 277.521 95.7112C277.464 95.6973 277.408 95.6973 277.352 95.7004L276.554 96.2737V98.8844L276.099 97.0236L275.541 96.7323C275.516 96.7385 275.492 96.7447 275.467 96.7493C273.621 97.0437 272.176 96.503 271.555 96.1172C269.666 94.9428 269.39 94.3633 268.908 93.6599C268.73 93.4011 268.897 93.0463 269.21 93.0231C269.435 93.006 269.698 92.9874 269.968 92.9735C271.947 92.8697 273.882 92.9456 275.388 93.192C275.578 93.223 275.863 93.9852 276.647 94.2316C276.832 94.2889 277.63 94.5399 278.29 94.0674C278.615 93.8334 278.782 93.7745 278.919 93.6568C279.486 93.1672 280.168 93.1114 280.589 93.082C281.127 93.0448 281.257 93.0773 282.177 93.0277C283.099 92.9766 283.418 92.9177 283.655 92.8635C284.204 92.7365 284.478 92.6729 284.751 92.4808C285.395 92.0268 285.801 91.0771 285.572 90.1955C285.525 90.0173 285.442 89.8686 285.383 89.7245C285.183 89.2426 285.119 89.1156 284.467 89.3015C284.292 89.3511 284.091 89.3759 283.875 89.4146C283.218 89.5339 281.732 89.7849 279.715 89.9073C277.831 90.0204 276.434 89.9646 275.008 89.9073C273.129 89.8314 271.586 89.6795 270.574 89.5788C269.796 89.5014 269.138 89.4254 268.646 89.365C268.619 89.3619 268.591 89.3697 268.569 89.3867C268.282 89.6067 267.977 89.8732 267.673 90.1955C267.079 90.8261 266.671 91.4768 266.391 92.0392C266.338 92.1446 266.178 92.0997 266.186 91.9819L266.353 89.7276L266.141 91.6225C265.827 90.4837 265.266 89.7926 264.792 89.8345C264.48 89.8624 264.266 90.197 264.172 90.3458C263.73 91.0352 263.829 91.8518 263.989 92.645C264.26 93.9961 264.798 96.6672 265.777 96.6951C265.971 96.7013 266.243 96.6052 266.58 96.1482L267.091 99.0672L268.112 101.585C264.328 101.872 258.91 102.945 254.062 106.693C253.388 107.214 252.77 107.753 252.201 108.298C251.41 108.187 250.274 108.083 248.917 108.153C247.217 108.239 244.493 108.377 242.093 109.941C237.746 112.773 237.266 118.447 237.166 119.61C237.022 121.307 237.208 122.712 237.385 123.625C235.34 125.221 230.695 129.333 230.05 135.521C229.96 136.382 229.956 137.211 230.013 138.003C229.79 138.296 229.466 138.765 229.173 139.39C228.147 141.587 228.419 143.804 228.516 144.535C228.665 145.638 228.891 145.962 228.955 147.271C229 148.226 228.891 148.294 228.955 149.132C229.014 149.907 229.099 151.024 229.757 152.161C230.032 152.634 230.513 153.466 231.472 153.949C231.816 154.122 232.658 154.47 234.429 154.132C236.619 153.713 236.877 152.885 239.208 152.015C241.492 151.163 241.681 151.795 243.734 150.884C245.693 150.015 246.909 148.824 247.347 148.367C248.503 147.16 249.078 146.012 249.391 145.375C250.228 143.669 250.234 142.674 250.231 142.419C250.223 141.886 250.131 141.447 250.051 141.15L250.043 141.153ZM237.341 137.942C239.418 136.148 241.466 135.076 242.93 134.436C242.143 135.476 240.914 136.938 239.176 138.434C237.058 140.256 234.113 141.662 234.113 141.662C234.113 141.662 235.671 139.383 237.341 137.941V137.942ZM269.09 96.5773L269.364 100.147L269.857 102.501L268.761 100.147L269.09 96.5773ZM267.229 94.4175L268.104 98.5729L267.501 96.7695L267.227 94.416L267.229 94.4175Z" fill="url(#paint6_linear_2828_42)"/>
<path d="M282.884 99.1602C282.978 99.0239 282.904 99.1261 283.651 97.8742C283.88 97.49 284.015 97.2669 284.007 96.9431C284.004 96.8408 283.995 96.4504 283.761 96.314C283.522 96.1746 283.299 96.4411 282.501 96.6967C281.977 96.8656 281.551 96.9957 281.077 96.8609C280.8 96.7819 280.741 96.6781 280.639 96.7246C280.363 96.8516 280.651 97.6883 280.775 99.2144C280.86 100.26 280.798 100.764 281.049 100.857C281.246 100.93 281.498 100.699 281.898 100.336C281.996 100.248 282.361 99.9086 282.884 99.1587V99.1602Z" fill="url(#paint7_linear_2828_42)"/>
<path d="M304.834 136.024C306.905 134.297 307.344 131.952 307.494 130.603C307.526 130.312 307.449 130.019 307.275 129.783C305.343 127.163 303.524 124.866 302.892 125.22C302.709 125.323 302.774 125.419 302.728 126.121C302.706 126.46 302.313 128.878 300.782 130.798C300.313 131.387 299.756 131.81 298.647 132.659C298.086 133.088 297.541 133.463 297.022 133.792C296.836 133.909 296.733 134.129 296.78 134.345C296.873 134.777 297.206 135.353 297.934 135.632C299.07 136.068 302.46 135.249 302.46 135.249C302.277 135.559 301.019 136.162 300.454 136.345C300.044 136.477 299.654 136.782 299.47 136.938C299.395 137.002 299.284 137.261 299.278 137.357C299.264 137.595 299.245 137.673 299.405 137.854C300.123 138.672 303.122 137.451 304.834 136.023V136.024Z" fill="url(#paint8_linear_2828_42)"/>
<path d="M299.366 128.608C299.846 127.87 300.142 127.027 300.221 126.15C300.272 125.586 300.306 125.019 300.291 124.285C300.275 121.936 296.459 117.935 296.459 117.935C293.238 114.559 291.627 112.871 290.767 112.462C288.172 110.863 281.028 110.275 278.834 115.746C276.943 119.768 276.767 127.662 279.491 130.416C281.243 132.187 283.652 131.243 284.308 131.073C284.308 131.073 281.935 128.738 282.191 128.154C282.191 128.154 284.016 128.665 284.636 128.555C284.636 128.555 284.892 125.927 284.235 124.613C286.249 127.373 290.153 130.874 296.168 131.181C297.462 131.148 298.642 129.718 299.367 128.606L299.366 128.608Z" fill="url(#paint9_linear_2828_42)"/>
<path d="M291.792 152.071L289.53 160.009C289.448 160.32 289.831 160.54 290.057 160.312C290.604 159.759 291.71 158.233 292.188 156.775C292.738 155.094 292.711 152.41 292.338 151.95C292.177 151.752 291.858 151.826 291.792 152.073V152.071Z" fill="url(#paint10_linear_2828_42)"/>
<path d="M294.487 147.548L295.579 144.428L294.487 147.548Z" fill="url(#paint11_linear_2828_42)"/>
<path d="M304.669 142.969C304.24 142.369 303.907 141.859 303.684 141.509H303.245L299.578 138.353L302.954 141.291C303.396 142.618 304.085 144.275 305.181 146.035C306.072 147.466 307.012 148.615 307.844 149.502C308.885 150.223 310.43 151.09 312.443 151.583C313.225 151.774 313.952 151.877 314.604 151.929C314.269 151.76 313.961 151.594 313.684 151.437C308.829 148.704 306.028 144.87 304.669 142.972V142.969Z" fill="url(#paint12_linear_2828_42)"/>
<path d="M324.229 139.831C324.136 139.591 324.036 139.362 323.933 139.143C323.688 138.994 323.07 138.362 323.02 138.316C323.084 138.373 323.279 138.991 323.279 138.991C321.926 137.14 320.468 136.031 319.52 135.415C316.545 133.485 313.609 133.2 312.221 133.081C310.974 132.974 309.934 133.02 309.229 133.081C308.879 134.385 308.2 136.142 306.821 137.825C306.459 138.266 306.089 138.654 305.726 138.993C307.502 140.998 308.863 142.57 309.74 143.591C311.163 145.246 312.099 146.362 313.718 147.606C314.756 148.402 315.571 148.865 315.798 148.993C317.472 149.927 319.004 150.384 320.068 150.624C320.47 150.77 321.929 151.036 321.929 151.036C321.711 152.204 319.229 153.7 319.229 153.7C317.39 153.201 315.877 152.567 314.703 151.98C315.078 152.42 316.516 154.138 319.447 154.028C319.872 154.012 322.637 153.909 323.936 151.839C324.312 151.238 324.458 150.646 324.52 150.234L324.483 147.169C324.841 145.889 325.446 142.986 324.227 139.834L324.229 139.831ZM315.124 138.517C314.833 138.189 311.403 134.686 311.403 134.686C311.403 134.686 315.344 137.058 315.964 137.677C316.584 138.297 319.54 141.071 319.686 141.436C319.831 141.802 315.416 138.846 315.124 138.517Z" fill="url(#paint13_linear_2828_42)"/>
<path d="M270.893 94.4176C270.752 94.4129 270.689 94.5926 270.802 94.6763C271.146 94.932 273.615 95.4247 274.009 95.5811C274.471 95.7624 274.98 95.1892 275.228 94.8576C275.298 94.7646 275.233 94.6329 275.117 94.6283L270.893 94.4176Z" fill="url(#paint14_linear_2828_42)"/>
<path d="M256.007 135.425C258.41 135.048 260.625 134.029 260.55 133.7C260.511 133.533 259.913 133.688 258.661 133.426C257.564 133.197 256.786 132.82 256.526 132.687C255.565 132.197 254.955 131.633 254.473 131.181C253.302 130.082 252.679 129.006 252.502 128.691C252.107 127.983 251.91 127.628 251.763 127.103C251.58 126.449 251.613 126.07 251.298 125.817C250.869 125.473 250.183 125.674 250.066 125.707C249.289 125.933 248.912 126.558 247.713 128.499C247.561 128.745 247.271 129.213 246.879 129.844C246.638 130.234 246.587 130.715 246.745 131.147C247.244 132.517 248.052 134.075 249.369 135.518C251.5 137.853 253.745 138.554 254.69 138.542C254.887 138.539 255.341 138.531 255.796 138.249C256.31 138.014 256.499 137.667 256.568 137.445C256.599 137.343 256.523 137.237 256.416 137.239C254.406 137.27 251.462 135.369 251.462 135.369C252.566 135.564 254.152 135.714 256.005 135.423L256.007 135.425Z" fill="url(#paint15_linear_2828_42)"/>
<path d="M288.358 138.918C287.546 138.396 286.63 139.036 285.293 139.21C283.854 139.397 282.724 138.943 281.571 138.48C279.213 137.532 277.874 135.806 277.193 134.904C276.88 134.49 276.606 134.074 276.361 133.651C273.618 139.592 267.288 138.406 261.628 137.529C257.093 138.088 261.696 144.123 263.84 144.163C261.617 145.454 259.356 143.378 257.943 142.319C255.443 144.419 260.647 150.034 261.4 150.162C261.428 150.153 261.454 150.145 261.482 150.134C261.47 150.161 261.44 150.168 261.4 150.162C258.14 151.256 255.483 145.878 255.079 148.59C255.368 149.247 255.68 149.995 256.502 152.203C257.082 153.758 257.372 154.536 257.488 154.939C257.57 155.226 257.892 156.371 258.145 158.004L258.363 160.85C258.363 160.85 261.03 161.625 262.15 161.838C262.153 161.838 262.167 161.841 262.193 161.846C262.231 161.854 262.272 161.862 262.316 161.868C262.322 161.868 262.33 161.869 262.337 161.871C263.058 161.965 264.358 161.781 264.358 161.781L264.468 161.37C264.468 161.37 264.414 160.495 264.139 159.153C263.865 157.812 265.071 155.185 265.071 155.185C265.016 155.495 264.962 155.94 264.988 156.471C265.002 156.742 265.07 157.757 265.755 159.099C266.406 160.376 267.049 161.635 268.409 162.109C269.526 162.498 270.775 162.237 271.119 162.164C271.251 162.136 271.581 162.061 271.968 161.917C272.503 161.717 274.113 161.116 275.033 159.454C276.048 157.621 275.523 155.766 275.389 155.322C274.955 153.879 274.054 152.999 273.637 152.64C273.476 152.699 273.251 152.778 272.98 152.858C272.648 152.957 272.23 153.084 271.72 153.159C271.201 153.236 270.819 153.227 270.297 153.213C269.785 153.201 269.432 153.191 268.983 153.103C268.983 153.103 268.478 152.967 267.754 152.61C265.892 151.696 264.029 149.034 264.197 148.889C264.269 148.825 264.64 149.327 265.811 150.12C266.594 150.65 267.246 151.092 268.219 151.38C269.206 151.671 269.846 151.662 270.297 151.654C270.636 151.648 271.214 151.616 271.911 151.462C272.287 151.38 272.779 151.269 273.361 150.997C273.621 150.877 274.192 150.608 274.647 150.176C275.808 149.073 275.758 147.324 275.743 146.727C275.73 146.287 275.66 145.568 275.329 144.722C275.225 144.459 274.997 144.261 274.723 144.194C274.22 144.073 273.319 143.994 272.185 144.482C270.407 145.249 267.633 143.844 267.633 143.844C270.944 144.857 275.392 141.509 276.017 140.679C276.681 139.794 276.768 138.243 276.768 138.243L276.728 160.603C277.055 160.859 277.597 161.219 278.342 161.453C278.711 161.569 279.492 161.803 280.477 161.645C281.313 161.51 281.872 161.16 282.366 160.851C282.879 160.531 283.607 160.064 284.145 159.181C284.396 158.769 284.572 158.411 284.72 157.649C285.107 155.642 285.101 154.64 285.02 154.338C284.887 153.833 284.695 153.732 284.417 153.602C284.165 153.481 283.912 153.531 283.815 153.548C282.961 153.698 282.069 153.665 281.215 153.52C280.442 153.388 279.272 153.038 277.465 151.276C277.972 151.771 278.733 151.743 279.176 151.78C279.68 151.822 280.09 151.784 280.804 151.738C281.726 151.679 282.4 151.437 282.557 151.41C283.296 151.281 283.556 151.025 283.898 150.835C284.448 150.529 284.757 150.108 284.966 149.821C285.319 149.338 285.477 148.909 285.623 148.508C285.786 148.061 285.928 147.672 285.951 147.139C285.961 146.936 285.99 146.258 285.759 145.826C285.22 144.815 283.373 145.071 281.189 144.786C279.3 144.54 277.575 142.951 277.575 142.951C277.924 142.917 278.423 142.874 279.026 142.842C280.059 142.786 280.586 142.953 281.133 143.035C281.867 143.145 281.839 143.088 282.665 143.224C283.121 143.3 283.728 143.399 284.49 143.297C285.394 143.175 286.054 142.826 286.624 142.529C286.954 142.357 287.257 142.168 287.557 141.957C288.948 140.976 289.022 140.253 289.016 140.011C289.007 139.577 288.722 139.149 288.359 138.915L288.358 138.918Z" fill="url(#paint16_linear_2828_42)"/>
<path d="M268.05 130.908C269.169 131.105 270.095 131.108 270.732 131.073C271.71 131.018 272.322 130.976 272.975 130.58C273.637 130.179 273.978 129.633 274.235 129.212C274.542 128.708 274.878 127.985 275.166 125.983C275.255 125.369 275.423 124.037 275.44 122.206C275.454 120.681 275.354 119.578 275.276 118.757C275.141 117.32 275.069 116.589 274.784 115.91C274.316 114.795 273.612 114.085 273.141 113.611C272.788 113.255 272.108 112.581 271.006 112.023C270.681 111.859 269.589 111.334 268.05 111.202C267.708 111.172 266.549 111.095 265.094 111.476C263.992 111.764 262.965 112.254 261.591 113.228C260.599 113.932 258.805 115.329 256.391 118.32C254.132 121.118 253.003 122.515 252.888 124.176C252.708 126.776 254.318 128.735 254.694 129.193C256.626 131.547 259.332 132.066 260.525 132.187C260.675 132.202 260.762 132.021 260.653 131.915C260.026 131.307 259.575 130.332 259.575 130.332C264.077 130.114 269.035 125.162 269.035 125.162C269.474 125.873 268.707 128.336 268.707 128.336C269.364 128.555 270.842 128.062 270.842 128.062C270.678 128.829 268.05 130.908 268.05 130.908Z" fill="url(#paint17_linear_2828_42)"/>
<path d="M254.42 147.166C254.691 147.714 255.052 148.534 255.077 148.59C254.887 147.992 254.588 147.389 254.23 146.795C254.293 146.913 254.357 147.037 254.422 147.166H254.42Z" fill="url(#paint18_linear_2828_42)"/>
<circle cx="173.899" cy="120.183" r="33.5035" fill="#D9D9D9" fill-opacity="0.8"/>
<path d="M190.651 122.576L165.523 137.083L165.523 108.069L190.651 122.576Z" fill="#E74D15"/>
<defs>
<linearGradient id="paint0_linear_2828_42" x1="29.8527" y1="119.858" x2="211.494" y2="119.858" gradientUnits="userSpaceOnUse">
<stop stop-color="#BA872C"/>
<stop offset="0.06" stop-color="#C28F29"/>
<stop offset="0.17" stop-color="#DAA422"/>
<stop offset="0.24" stop-color="#EFB81C"/>
<stop offset="0.68" stop-color="#FEF38A"/>
<stop offset="0.84" stop-color="#EDCC66"/>
<stop offset="1" stop-color="#BA872C"/>
</linearGradient>
<linearGradient id="paint1_linear_2828_42" x1="276.572" y1="105.718" x2="278.315" y2="105.718" gradientUnits="userSpaceOnUse">
<stop stop-color="#BA872C"/>
<stop offset="0.06" stop-color="#C28F29"/>
<stop offset="0.17" stop-color="#DAA422"/>
<stop offset="0.24" stop-color="#EFB81C"/>
<stop offset="0.68" stop-color="#FEF38A"/>
<stop offset="0.84" stop-color="#EDCC66"/>
<stop offset="1" stop-color="#BA872C"/>
</linearGradient>
<linearGradient id="paint2_linear_2828_42" x1="273.945" y1="104.648" x2="281.162" y2="104.648" gradientUnits="userSpaceOnUse">
<stop stop-color="#BA872C"/>
<stop offset="0.06" stop-color="#C28F29"/>
<stop offset="0.17" stop-color="#DAA422"/>
<stop offset="0.24" stop-color="#EFB81C"/>
<stop offset="0.68" stop-color="#FEF38A"/>
<stop offset="0.84" stop-color="#EDCC66"/>
<stop offset="1" stop-color="#BA872C"/>
</linearGradient>
<linearGradient id="paint3_linear_2828_42" x1="272.472" y1="102.919" x2="275.516" y2="102.919" gradientUnits="userSpaceOnUse">
<stop stop-color="#BA872C"/>
<stop offset="0.06" stop-color="#C28F29"/>
<stop offset="0.17" stop-color="#DAA422"/>
<stop offset="0.24" stop-color="#EFB81C"/>
<stop offset="0.68" stop-color="#FEF38A"/>
<stop offset="0.84" stop-color="#EDCC66"/>
<stop offset="1" stop-color="#BA872C"/>
</linearGradient>
<linearGradient id="paint4_linear_2828_42" x1="263.032" y1="78.8355" x2="290.073" y2="78.8355" gradientUnits="userSpaceOnUse">
<stop stop-color="#BA872C"/>
<stop offset="0.06" stop-color="#C28F29"/>
<stop offset="0.17" stop-color="#DAA422"/>
<stop offset="0.24" stop-color="#EFB81C"/>
<stop offset="0.68" stop-color="#FEF38A"/>
<stop offset="0.84" stop-color="#EDCC66"/>
<stop offset="1" stop-color="#BA872C"/>
</linearGradient>
<linearGradient id="paint5_linear_2828_42" x1="287.067" y1="92.7829" x2="289.591" y2="92.7829" gradientUnits="userSpaceOnUse">
<stop stop-color="#BA872C"/>
<stop offset="0.06" stop-color="#C28F29"/>
<stop offset="0.17" stop-color="#DAA422"/>
<stop offset="0.24" stop-color="#EFB81C"/>
<stop offset="0.68" stop-color="#FEF38A"/>
<stop offset="0.84" stop-color="#EDCC66"/>
<stop offset="1" stop-color="#BA872C"/>
</linearGradient>
<linearGradient id="paint6_linear_2828_42" x1="228.403" y1="121.75" x2="322.859" y2="121.75" gradientUnits="userSpaceOnUse">
<stop stop-color="#BA872C"/>
<stop offset="0.06" stop-color="#C28F29"/>
<stop offset="0.17" stop-color="#DAA422"/>
<stop offset="0.24" stop-color="#EFB81C"/>
<stop offset="0.68" stop-color="#FEF38A"/>
<stop offset="0.84" stop-color="#EDCC66"/>
<stop offset="1" stop-color="#BA872C"/>
</linearGradient>
<linearGradient id="paint7_linear_2828_42" x1="280.524" y1="98.573" x2="284.005" y2="98.573" gradientUnits="userSpaceOnUse">
<stop stop-color="#BA872C"/>
<stop offset="0.06" stop-color="#C28F29"/>
<stop offset="0.17" stop-color="#DAA422"/>
<stop offset="0.24" stop-color="#EFB81C"/>
<stop offset="0.68" stop-color="#FEF38A"/>
<stop offset="0.84" stop-color="#EDCC66"/>
<stop offset="1" stop-color="#BA872C"/>
</linearGradient>
<linearGradient id="paint8_linear_2828_42" x1="296.769" y1="131.652" x2="307.502" y2="131.652" gradientUnits="userSpaceOnUse">
<stop stop-color="#BA872C"/>
<stop offset="0.06" stop-color="#C28F29"/>
<stop offset="0.17" stop-color="#DAA422"/>
<stop offset="0.24" stop-color="#EFB81C"/>
<stop offset="0.68" stop-color="#FEF38A"/>
<stop offset="0.84" stop-color="#EDCC66"/>
<stop offset="1" stop-color="#BA872C"/>
</linearGradient>
<linearGradient id="paint9_linear_2828_42" x1="277.427" y1="121.414" x2="300.294" y2="121.414" gradientUnits="userSpaceOnUse">
<stop stop-color="#BA872C"/>
<stop offset="0.06" stop-color="#C28F29"/>
<stop offset="0.17" stop-color="#DAA422"/>
<stop offset="0.24" stop-color="#EFB81C"/>
<stop offset="0.68" stop-color="#FEF38A"/>
<stop offset="0.84" stop-color="#EDCC66"/>
<stop offset="1" stop-color="#BA872C"/>
</linearGradient>
<linearGradient id="paint10_linear_2828_42" x1="289.52" y1="156.12" x2="292.611" y2="156.12" gradientUnits="userSpaceOnUse">
<stop stop-color="#BA872C"/>
<stop offset="0.06" stop-color="#C28F29"/>
<stop offset="0.17" stop-color="#DAA422"/>
<stop offset="0.24" stop-color="#EFB81C"/>
<stop offset="0.68" stop-color="#FEF38A"/>
<stop offset="0.84" stop-color="#EDCC66"/>
<stop offset="1" stop-color="#BA872C"/>
</linearGradient>
<linearGradient id="paint11_linear_2828_42" x1="294.487" y1="145.988" x2="295.579" y2="145.988" gradientUnits="userSpaceOnUse">
<stop stop-color="#BA872C"/>
<stop offset="0.06" stop-color="#C28F29"/>
<stop offset="0.17" stop-color="#DAA422"/>
<stop offset="0.24" stop-color="#EFB81C"/>
<stop offset="0.68" stop-color="#FEF38A"/>
<stop offset="0.84" stop-color="#EDCC66"/>
<stop offset="1" stop-color="#BA872C"/>
</linearGradient>
<linearGradient id="paint12_linear_2828_42" x1="299.578" y1="145.139" x2="314.604" y2="145.139" gradientUnits="userSpaceOnUse">
<stop stop-color="#BA872C"/>
<stop offset="0.06" stop-color="#C28F29"/>
<stop offset="0.17" stop-color="#DAA422"/>
<stop offset="0.24" stop-color="#EFB81C"/>
<stop offset="0.68" stop-color="#FEF38A"/>
<stop offset="0.84" stop-color="#EDCC66"/>
<stop offset="1" stop-color="#BA872C"/>
</linearGradient>
<linearGradient id="paint13_linear_2828_42" x1="305.728" y1="143.523" x2="324.954" y2="143.523" gradientUnits="userSpaceOnUse">
<stop stop-color="#BA872C"/>
<stop offset="0.06" stop-color="#C28F29"/>
<stop offset="0.17" stop-color="#DAA422"/>
<stop offset="0.24" stop-color="#EFB81C"/>
<stop offset="0.68" stop-color="#FEF38A"/>
<stop offset="0.84" stop-color="#EDCC66"/>
<stop offset="1" stop-color="#BA872C"/>
</linearGradient>
<linearGradient id="paint14_linear_2828_42" x1="270.743" y1="95.0156" x2="275.256" y2="95.0156" gradientUnits="userSpaceOnUse">
<stop stop-color="#BA872C"/>
<stop offset="0.06" stop-color="#C28F29"/>
<stop offset="0.17" stop-color="#DAA422"/>
<stop offset="0.24" stop-color="#EFB81C"/>
<stop offset="0.68" stop-color="#FEF38A"/>
<stop offset="0.84" stop-color="#EDCC66"/>
<stop offset="1" stop-color="#BA872C"/>
</linearGradient>
<linearGradient id="paint15_linear_2828_42" x1="246.656" y1="132.083" x2="260.553" y2="132.083" gradientUnits="userSpaceOnUse">
<stop stop-color="#BA872C"/>
<stop offset="0.06" stop-color="#C28F29"/>
<stop offset="0.17" stop-color="#DAA422"/>
<stop offset="0.24" stop-color="#EFB81C"/>
<stop offset="0.68" stop-color="#FEF38A"/>
<stop offset="0.84" stop-color="#EDCC66"/>
<stop offset="1" stop-color="#BA872C"/>
</linearGradient>
<linearGradient id="paint16_linear_2828_42" x1="255.077" y1="147.984" x2="289.014" y2="147.984" gradientUnits="userSpaceOnUse">
<stop stop-color="#BA872C"/>
<stop offset="0.06" stop-color="#C28F29"/>
<stop offset="0.17" stop-color="#DAA422"/>
<stop offset="0.24" stop-color="#EFB81C"/>
<stop offset="0.68" stop-color="#FEF38A"/>
<stop offset="0.84" stop-color="#EDCC66"/>
<stop offset="1" stop-color="#BA872C"/>
</linearGradient>
<linearGradient id="paint17_linear_2828_42" x1="252.872" y1="121.682" x2="275.44" y2="121.682" gradientUnits="userSpaceOnUse">
<stop stop-color="#BA872C"/>
<stop offset="0.06" stop-color="#C28F29"/>
<stop offset="0.17" stop-color="#DAA422"/>
<stop offset="0.24" stop-color="#EFB81C"/>
<stop offset="0.68" stop-color="#FEF38A"/>
<stop offset="0.84" stop-color="#EDCC66"/>
<stop offset="1" stop-color="#BA872C"/>
</linearGradient>
<linearGradient id="paint18_linear_2828_42" x1="254.228" y1="147.691" x2="255.077" y2="147.691" gradientUnits="userSpaceOnUse">
<stop stop-color="#BA872C"/>
<stop offset="0.06" stop-color="#C28F29"/>
<stop offset="0.17" stop-color="#DAA422"/>
<stop offset="0.24" stop-color="#EFB81C"/>
<stop offset="0.68" stop-color="#FEF38A"/>
<stop offset="0.84" stop-color="#EDCC66"/>
<stop offset="1" stop-color="#BA872C"/>
</linearGradient>
</defs>
</svg>
