<svg width="40" height="34" viewBox="0 0 40 34" fill="none" xmlns="http://www.w3.org/2000/svg">
<path d="M15.7493 10.9455C15.7493 10.6947 15.8547 10.4542 16.0422 10.2769C16.2298 10.0996 16.4841 10 16.7493 10H28.7493C29.0146 10 29.2689 10.0996 29.4564 10.2769C29.644 10.4542 29.7493 10.6947 29.7493 10.9455C29.7493 11.1962 29.644 11.4367 29.4564 11.614C29.2689 11.7913 29.0146 11.891 28.7493 11.891H16.7493C16.4841 11.891 16.2298 11.7913 16.0422 11.614C15.8547 11.4367 15.7493 11.1962 15.7493 10.9455ZM13.7793 18.4809L12.6093 17.3747H27.7493C27.9615 17.3747 28.165 17.295 28.315 17.1532C28.4651 17.0113 28.5493 16.8189 28.5493 16.6183C28.5493 16.4177 28.4651 16.2253 28.315 16.0835C28.165 15.9416 27.9615 15.8619 27.7493 15.8619H12.6093L13.7793 14.7557C13.853 14.6908 13.9121 14.6125 13.9531 14.5256C13.9941 14.4386 14.0162 14.3447 14.0179 14.2495C14.0197 14.1542 14.0012 14.0597 13.9635 13.9714C13.9257 13.8831 13.8696 13.8029 13.7984 13.7355C13.7272 13.6682 13.6423 13.6151 13.5489 13.5795C13.4555 13.5438 13.3555 13.5263 13.2548 13.528C13.1541 13.5296 13.0548 13.5505 12.9628 13.5892C12.8708 13.628 12.788 13.6839 12.7193 13.7535L10.2193 16.1172C10.0789 16.2502 10 16.4304 10 16.6183C10 16.8062 10.0789 16.9865 10.2193 17.1194L12.7193 19.4831C12.8615 19.6084 13.0496 19.6766 13.2439 19.6733C13.4382 19.6701 13.6235 19.5957 13.761 19.4657C13.8984 19.3358 13.9771 19.1605 13.9805 18.9768C13.9839 18.7931 13.9118 18.6153 13.7793 18.4809ZM16.7493 21.3457C16.4841 21.3457 16.2298 21.4453 16.0422 21.6226C15.8547 21.7999 15.7493 22.0404 15.7493 22.2912C15.7493 22.5419 15.8547 22.7824 16.0422 22.9597C16.2298 23.137 16.4841 23.2367 16.7493 23.2367H28.7493C29.0146 23.2367 29.2689 23.137 29.4564 22.9597C29.644 22.7824 29.7493 22.5419 29.7493 22.2912C29.7493 22.0404 29.644 21.7999 29.4564 21.6226C29.2689 21.4453 29.0146 21.3457 28.7493 21.3457H16.7493Z" fill="#C28E02"/>
</svg>
