<svg width="20" height="20" viewBox="0 0 20 20" fill="none" xmlns="http://www.w3.org/2000/svg">
<path d="M11.25 13.75C11.25 14.0815 11.1183 14.3995 10.8839 14.6339C10.6495 14.8683 10.3315 15 10 15C9.66848 15 9.35054 14.8683 9.11612 14.6339C8.8817 14.3995 8.75 14.0815 8.75 13.75C8.75 13.4185 8.8817 13.1005 9.11612 12.8661C9.35054 12.6317 9.66848 12.5 10 12.5C10.3315 12.5 10.6495 12.6317 10.8839 12.8661C11.1183 13.1005 11.25 13.4185 11.25 13.75ZM9.375 5C8.5462 5 7.75134 5.32924 7.16529 5.91529C6.57924 6.50134 6.25 7.2962 6.25 8.125H8.75C8.75 7.95924 8.81585 7.80027 8.93306 7.68306C9.05027 7.56585 9.20924 7.5 9.375 7.5H10.1825C10.2901 7.50005 10.3946 7.53646 10.4789 7.60332C10.5633 7.67018 10.6225 7.76357 10.6471 7.86835C10.6717 7.97312 10.6602 8.08314 10.6145 8.18055C10.5687 8.27796 10.4914 8.35705 10.395 8.405L8.75 9.2275V11.25H11.25V10.7725L11.5138 10.64C12.1133 10.3399 12.594 9.84615 12.878 9.23881C13.162 8.63146 13.2328 7.94604 13.0787 7.29349C12.9247 6.64095 12.5549 6.05949 12.0293 5.64326C11.5037 5.22702 10.853 5.00037 10.1825 5H9.375Z" fill="#F98910"/>
<path d="M0 10C0 7.34784 1.05357 4.8043 2.92893 2.92893C4.8043 1.05357 7.34784 0 10 0C12.6522 0 15.1957 1.05357 17.0711 2.92893C18.9464 4.8043 20 7.34784 20 10C20 12.6522 18.9464 15.1957 17.0711 17.0711C15.1957 18.9464 12.6522 20 10 20C7.34784 20 4.8043 18.9464 2.92893 17.0711C1.05357 15.1957 0 12.6522 0 10ZM10 2.5C9.01509 2.5 8.03982 2.69399 7.12987 3.0709C6.21993 3.44781 5.39314 4.00026 4.6967 4.6967C4.00026 5.39314 3.44781 6.21993 3.0709 7.12987C2.69399 8.03982 2.5 9.01509 2.5 10C2.5 10.9849 2.69399 11.9602 3.0709 12.8701C3.44781 13.7801 4.00026 14.6069 4.6967 15.3033C5.39314 15.9997 6.21993 16.5522 7.12987 16.9291C8.03982 17.306 9.01509 17.5 10 17.5C11.9891 17.5 13.8968 16.7098 15.3033 15.3033C16.7098 13.8968 17.5 11.9891 17.5 10C17.5 8.01088 16.7098 6.10322 15.3033 4.6967C13.8968 3.29018 11.9891 2.5 10 2.5Z" fill="#F98910"/>
</svg>
