<svg width="428" height="549" viewBox="0 0 428 549" fill="none" xmlns="http://www.w3.org/2000/svg">
<path d="M153.246 343.798H169.884V402.042H153.246V343.798ZM90.3081 343.798L69.5058 364.601V343.798H52.8672V402.042H69.5058V381.239L90.3081 402.042H113.774L84.6554 372.923L113.774 343.798H90.3081ZM242.784 268.554H226.146V298.382L184.541 256.777V326.797H201.18V296.969L242.784 338.573V268.554ZM69.5112 305.995H92.3926C97.5526 305.995 101.96 304.165 105.62 300.504C109.28 296.844 111.11 292.431 111.11 287.277C111.11 282.122 109.28 277.71 105.62 274.049C101.96 270.389 97.5472 268.559 92.3926 268.559H52.8726V285.198H92.3926C92.9774 285.198 93.4647 285.398 93.8708 285.799C94.2714 286.199 94.4718 286.692 94.4718 287.277C94.4718 287.862 94.2714 288.354 93.8708 288.755C93.4701 289.156 92.9774 289.356 92.3926 289.356H52.8726V326.797H69.5112V305.995ZM159.58 297.678C159.58 301.116 158.362 304.056 155.92 306.498C153.478 308.94 150.538 310.158 147.1 310.158C143.662 310.158 140.722 308.94 138.28 306.498C135.838 304.056 134.62 301.116 134.62 297.678V268.554H117.981V297.678C117.981 305.719 120.824 312.584 126.509 318.269C132.194 323.954 139.06 326.797 147.1 326.797C155.141 326.797 162.006 323.954 167.691 318.269C173.376 312.584 176.219 305.719 176.219 297.678V268.554H159.58V297.678ZM254.999 373.626L213.395 332.022V402.042H230.033V372.213L271.638 413.818V343.798H254.999V373.626ZM357.895 268.554V289.356H332.935V268.554H316.296V326.797H332.935V305.995H357.895V326.797H374.534V268.554H357.895ZM323.676 352.326C317.991 358.011 315.148 364.877 315.148 372.917C315.148 380.958 317.991 387.823 323.676 393.508C329.361 399.193 336.227 402.036 344.267 402.036H373.386V364.595H356.747V385.397H344.267C340.829 385.397 337.889 384.179 335.447 381.737C333.005 379.295 331.787 376.355 331.787 372.917C331.787 369.479 333.005 366.539 335.447 364.097C337.889 361.655 340.829 360.437 344.267 360.437H373.386V343.798H344.267C336.221 343.798 329.361 346.641 323.676 352.326ZM280.225 285.192C283.663 285.192 286.603 286.411 289.045 288.853C290.984 290.796 292.153 293.038 292.538 295.593H309.263C308.819 288.436 306.003 282.269 300.816 277.082C295.131 271.396 288.266 268.554 280.225 268.554C272.185 268.554 265.319 271.396 259.634 277.082C253.949 282.767 251.106 289.632 251.106 297.673C251.106 305.713 253.949 312.579 259.634 318.264C265.319 323.949 272.185 326.792 280.225 326.792C288.266 326.792 295.131 323.949 300.816 318.264C306.003 313.077 308.819 306.904 309.263 299.752H292.538C292.148 302.302 290.984 304.549 289.045 306.493C286.603 308.935 283.663 310.153 280.225 310.153C276.787 310.153 273.847 308.935 271.405 306.493C268.963 304.051 267.745 301.111 267.745 297.673C267.745 294.234 268.963 291.294 271.405 288.853C273.847 286.411 276.787 285.192 280.225 285.192Z" fill="url(#paint0_linear_2926_4456)"/>
<path d="M209.668 113.317L211.75 113.781L209.542 112.925L207.582 113.781L209.668 113.317Z" fill="url(#paint1_linear_2926_4456)"/>
<path d="M211.655 109.924L209.658 110.561L207.532 109.924L201.301 111.658H218.557L211.655 109.924Z" fill="url(#paint2_linear_2926_4456)"/>
<path d="M204.682 107.064C205.234 106.808 205.163 106.001 204.574 105.845L201.596 105.052C200.87 104.859 200.095 105.067 199.562 105.597L197.902 107.256C197.65 107.508 197.802 107.938 198.154 107.979L201.018 108.312C201.525 108.371 202.04 108.29 202.507 108.071L204.682 107.064Z" fill="url(#paint3_linear_2926_4456)"/>
<path d="M178.512 43.6038L178.871 45.2746L183.505 70.6883C183.568 70.6068 183.668 70.5623 183.776 70.5919C184.424 70.7735 185.28 71.0032 186.288 71.2328C190.292 72.1479 193.563 72.3887 197.676 72.5406C201.217 72.6702 206.315 72.8481 213.25 72.5406C215.124 72.4554 218.966 72.2553 223.852 71.7552C227.209 71.4107 230.158 71.018 232.599 70.6512L236.548 43.6038C238.397 43.4889 239.864 41.9589 239.864 40.0807C239.864 38.2024 238.282 36.5465 236.33 36.5465C234.377 36.5465 232.795 38.1284 232.795 40.0807C232.795 41.4403 233.562 42.6183 234.685 43.2074L225.727 53.936V43.263L217.614 50.5907L210.238 37.543C212.116 36.891 213.468 35.1128 213.468 33.0123C213.468 30.3635 208.671 25.4326 208.671 25.4326C208.671 25.4326 203.873 30.3635 203.873 33.0123C203.873 34.9424 205.018 36.6058 206.663 37.3652L197.809 50.6796L190.392 44.2225L189.518 52.5986L180.301 43.2444C181.468 42.6665 182.275 41.4699 182.275 40.077C182.275 38.1246 180.694 36.5428 178.741 36.5428C176.789 36.5428 175.207 38.1246 175.207 40.077C175.207 42.0293 176.667 43.4815 178.512 43.6001V43.6038Z" fill="url(#paint4_linear_2926_4456)"/>
<path d="M234.624 91.9563C234.984 91.9452 235.632 91.7118 236.806 88.8148C238.125 85.5659 239.107 83.1394 238.551 80.0015C238.258 78.3641 237.347 75.3856 236.11 75.3782C235.11 75.3708 234.054 77.3046 233.491 80.0904L232.72 72.8887C232.883 76.3229 233.102 83.2171 232.672 90.0077C232.987 90.6634 233.724 91.986 234.624 91.9601V91.9563Z" fill="url(#paint5_linear_2926_4456)"/>
<path d="M144.148 198.076C144.148 198.076 144.144 198.061 144.141 198.057C144.137 198.039 144.13 198.02 144.126 197.998C143.522 198.839 142.892 199.698 142.222 200.587C138.862 205.011 134.301 210.946 127.04 216.991C122.906 220.433 116.626 224.964 108.058 228.839C108.058 228.839 100.863 227.287 98.9443 223.623C98.9443 223.623 108.543 222.574 121.279 212.279C134.02 201.984 140.477 192.385 140.477 192.385C140.477 192.385 132.623 178.775 130.356 178.426C128.4 178.126 118.808 178.245 111.155 181.275C109.347 181.99 107.658 182.972 106.098 184.128L98.948 189.418C98.948 189.418 102.96 174.411 124.599 173.714C125.099 173.707 125.614 173.714 126.121 173.714C128.437 171.543 133.905 168.191 135.898 162.126L126.607 161.552C130.3 160.385 144.289 154.039 144.8 145.444C144.407 139.817 146.371 139.294 146.371 139.294C146.975 161.882 158.881 132.889 166.135 128.04C166.135 128.04 168.098 126.991 162.338 125.028C155.858 123.065 157.692 122.542 157.692 122.542C157.692 122.542 166.787 122.413 169.014 123.198C170.588 123.754 179.194 118.675 190.089 120.986C197.854 122.45 202.948 126.006 206.212 130.689C206.627 130.422 207.264 130.011 208.342 129.285C209.735 128.347 210.409 127.862 212.335 126.536C214.236 125.228 215.184 124.576 215.41 124.443C217.377 123.291 219.044 122.768 220.841 122.216C223.52 121.394 225.62 121.075 227.187 120.842C229.788 120.457 232.133 120.108 235.3 120.319C238.379 120.523 239.916 120.627 241.254 121.301C242.25 121.805 243.984 122.916 245.444 122.676C245.555 122.657 245.895 122.653 246.992 122.398C247.337 122.316 247.781 122.231 248.389 122.153C249.719 121.979 250.745 121.927 251.53 121.89C253.375 121.801 254.913 121.824 254.913 121.824C254.913 121.824 257.224 122.001 256.572 122.983C255.916 123.965 253.627 124.902 251.208 125.621C248.785 126.339 250.356 127.781 250.356 127.781C251.212 128.507 252.586 129.74 254.086 131.444C256.48 134.164 257.343 135.983 260.04 139.754C260.888 140.939 262.211 142.729 263.967 144.859C266.649 149.178 270.25 149.897 270.25 149.897C270.072 148.493 269.99 146.507 270.446 144.203C270.742 142.714 271.187 141.458 271.624 140.473C271.717 141.543 272.491 149.897 275.681 152.842C276.229 153.35 277.918 154.683 279.215 155.658C280.041 156.28 280.771 156.803 281.767 157.358C282.76 157.914 283.553 158.24 283.797 158.34C285.198 158.907 286.076 159.036 286.872 159.255C287.95 159.551 289.436 160.159 291.125 161.556C291.125 161.556 280.982 161.415 280.197 162.071C279.411 162.726 282.879 167.087 282.879 167.087H283.927L289.599 173.455C295.267 173.64 307.014 174.926 314.727 183.428C315.991 184.817 317.213 186.48 318.247 188.047C318.299 185.854 318.18 182.965 317.521 179.649C317.006 177.074 316.183 173.14 313.594 168.917C312.023 166.353 310.337 164.59 306.962 161.063C305.169 159.188 303.606 157.706 302.513 156.699C303.447 149.797 302.539 144.351 301.728 141.08C301.057 138.365 300.224 135.119 297.89 131.481C296.69 129.614 293.355 124.932 287.246 121.883C281.723 119.127 276.662 119.067 271.454 119.004C268.431 118.967 265.908 119.204 264.126 119.441C258.069 114.422 249.141 108.587 237.338 105.568C235.248 105.034 233.226 104.63 231.273 104.327L232.103 96.7543L230.269 104.171L225.294 109.843L218.226 117.434L214.38 121.097H204.089L199.377 117.956L192.571 111.414L187.207 103.156C188.937 105.13 190.197 106.616 191 107.683C191.241 108.005 191.778 108.731 192.43 108.683C192.886 108.65 193.16 108.272 193.16 108.272C194.29 107.379 195.45 106.42 196.628 105.394C197.639 104.512 198.476 103.486 199.506 102.774C199.984 102.445 201.377 101.844 201.911 101.619C202.033 101.567 202.096 101.433 202.059 101.307L201.807 100.448C201.799 100.426 201.796 100.407 201.796 100.385C201.692 99.0623 202.463 97.9361 203.144 97.2063C203.333 97.0063 203.659 97.1989 203.578 97.4619C203.407 98.0028 203.329 98.6363 203.566 99.2401C203.807 99.8588 204.226 100.063 205.267 100.811C208.157 102.882 208.52 103.875 209.587 103.689C210.416 103.545 210.939 102.815 211.157 102.511C211.917 101.452 211.843 100.222 211.813 99.6328C211.698 97.5249 211.598 94.5316 211.424 90.8047C211.424 90.7603 211.409 90.7158 211.383 90.6751C211.068 90.1749 210.572 89.5933 209.85 89.4229C209.712 89.3896 209.579 89.3896 209.446 89.397L207.538 90.7677V97.01L206.449 92.5607L205.115 91.8642C205.056 91.8791 204.996 91.8939 204.937 91.905C200.525 92.6089 197.069 91.316 195.583 90.3935C191.067 87.5854 190.408 86.1999 189.256 84.518C188.83 83.8993 189.23 83.051 189.978 82.9954C190.515 82.9546 191.145 82.9102 191.79 82.8768C196.52 82.6286 201.147 82.8102 204.748 83.3992C205.204 83.4733 205.886 85.296 207.76 85.885C208.201 86.0221 210.109 86.6222 211.687 85.4923C212.465 84.9329 212.865 84.7921 213.191 84.5106C214.547 83.3399 216.177 83.2065 217.185 83.1362C218.47 83.0472 218.781 83.125 220.982 83.0065C223.186 82.8842 223.949 82.7435 224.516 82.6138C225.828 82.31 226.483 82.1581 227.135 81.6988C228.676 80.6133 229.647 78.3424 229.099 76.2345C228.988 75.8084 228.788 75.4528 228.647 75.1082C228.169 73.9561 228.017 73.6523 226.457 74.0969C226.039 74.2154 225.557 74.2747 225.042 74.3673C223.471 74.6526 219.919 75.2527 215.095 75.5454C210.59 75.8158 207.249 75.6825 203.841 75.5454C199.347 75.3639 195.657 75.0008 193.238 74.76C191.378 74.5748 189.804 74.3933 188.629 74.2488C188.563 74.2414 188.496 74.2599 188.444 74.3006C187.759 74.8267 187.029 75.4639 186.303 76.2345C184.88 77.7422 183.906 79.2982 183.236 80.643C183.11 80.8949 182.728 80.7874 182.747 80.5059L183.147 75.1157L182.639 79.6464C181.887 76.9235 180.546 75.2713 179.412 75.3713C178.668 75.438 178.157 76.2382 177.931 76.5938C176.875 78.2424 177.112 80.1947 177.493 82.0915C178.142 85.3219 179.427 91.7087 181.769 91.7753C182.232 91.7902 182.884 91.5605 183.688 90.4676L184.91 97.4471L187.351 103.467C178.305 104.152 165.35 106.72 153.758 115.681C152.146 116.926 150.668 118.215 149.309 119.519C147.416 119.252 144.7 119.004 141.455 119.171C137.391 119.378 130.878 119.708 125.14 123.446C114.745 130.218 113.596 143.785 113.359 146.567C113.014 150.623 113.459 153.983 113.881 156.165C108.991 159.981 97.8848 169.813 96.3437 184.609C96.1288 186.669 96.1177 188.651 96.2548 190.544C95.7213 191.244 94.947 192.367 94.2469 193.86C91.7944 199.113 92.4427 204.414 92.6761 206.163C93.0318 208.801 93.5726 209.575 93.7245 212.705C93.8319 214.987 93.5726 215.15 93.7245 217.154C93.8653 219.007 94.069 221.678 95.6435 224.397C96.2992 225.527 97.4514 227.516 99.7445 228.672C100.567 229.087 102.579 229.917 106.813 229.109C112.051 228.109 112.666 226.127 118.242 224.049C123.702 222.011 124.154 223.523 129.063 221.344C133.746 219.266 136.654 216.417 137.702 215.324C140.466 212.439 141.84 209.693 142.588 208.171C144.589 204.092 144.604 201.714 144.596 201.102C144.578 199.828 144.359 198.78 144.167 198.068L144.148 198.076ZM113.778 190.4C118.742 186.11 123.639 183.546 127.14 182.016C125.258 184.502 122.32 187.999 118.164 191.574C113.1 195.931 106.057 199.295 106.057 199.295C106.057 199.295 109.784 193.845 113.778 190.396V190.4ZM189.689 91.4938L190.345 100.029L191.523 105.657L188.904 100.029L189.689 91.4938ZM185.24 86.3295L187.333 96.2653L185.892 91.9532L185.236 86.3258L185.24 86.3295Z" fill="url(#paint6_linear_2926_4456)"/>
<path d="M222.672 97.6686C222.898 97.3426 222.72 97.5871 224.506 94.5938C225.054 93.6751 225.376 93.1416 225.358 92.3673C225.35 92.1228 225.328 91.1893 224.769 90.8632C224.198 90.5298 223.665 91.167 221.757 91.7783C220.505 92.1821 219.486 92.4933 218.352 92.171C217.689 91.982 217.548 91.7338 217.304 91.845C216.644 92.1488 217.333 94.1493 217.63 97.7983C217.834 100.299 217.685 101.503 218.286 101.725C218.756 101.899 219.36 101.347 220.316 100.48C220.549 100.269 221.423 99.458 222.672 97.6649V97.6686Z" fill="url(#paint7_linear_2926_4456)"/>
<path d="M275.158 185.813C280.111 181.682 281.16 176.077 281.519 172.85C281.597 172.154 281.412 171.454 280.997 170.891C276.377 164.626 272.028 159.132 270.516 159.98C270.079 160.225 270.235 160.455 270.124 162.133C270.072 162.944 269.131 168.727 265.471 173.317C264.348 174.725 263.018 175.736 260.366 177.766C259.025 178.792 257.721 179.689 256.48 180.474C256.035 180.756 255.791 181.282 255.902 181.797C256.124 182.831 256.92 184.209 258.662 184.875C261.377 185.916 269.483 183.96 269.483 183.96C269.046 184.701 266.038 186.142 264.685 186.58C263.707 186.894 262.774 187.624 262.333 187.998C262.155 188.15 261.888 188.769 261.874 188.999C261.84 189.569 261.796 189.754 262.177 190.188C263.896 192.144 271.065 189.225 275.158 185.809V185.813Z" fill="url(#paint8_linear_2926_4456)"/>
<path d="M262.082 168.079C263.23 166.315 263.938 164.3 264.127 162.203C264.249 160.855 264.33 159.499 264.293 157.743C264.256 152.127 255.132 142.561 255.132 142.561C247.43 134.489 243.577 130.451 241.521 129.473C235.316 125.65 218.234 124.246 212.988 137.327C208.468 146.944 208.046 165.819 214.559 172.402C218.749 176.636 224.509 174.38 226.076 173.973C226.076 173.973 220.405 168.39 221.016 166.993C221.016 166.993 225.38 168.216 226.862 167.953C226.862 167.953 227.473 161.67 225.902 158.528C230.718 165.126 240.054 173.499 254.435 174.232C257.529 174.154 260.352 170.735 262.085 168.075L262.082 168.079Z" fill="url(#paint9_linear_2926_4456)"/>
<path d="M243.975 224.182L238.566 243.16C238.37 243.905 239.285 244.431 239.826 243.886C241.134 242.564 243.779 238.915 244.92 235.429C246.235 231.409 246.172 224.993 245.279 223.893C244.894 223.418 244.131 223.596 243.975 224.185V224.182Z" fill="url(#paint10_linear_2926_4456)"/>
<path d="M250.418 213.368L253.03 205.907L250.418 213.368Z" fill="url(#paint11_linear_2926_4456)"/>
<path d="M274.763 202.417C273.737 200.983 272.941 199.764 272.407 198.927H271.359L262.59 191.381L270.662 198.405C271.718 201.58 273.367 205.54 275.986 209.748C278.116 213.171 280.365 215.917 282.354 218.039C284.844 219.762 288.537 221.837 293.349 223.015C295.22 223.47 296.958 223.718 298.517 223.841C297.717 223.437 296.98 223.041 296.317 222.666C284.71 216.131 278.012 206.962 274.763 202.424V202.417Z" fill="url(#paint12_linear_2926_4456)"/>
<path d="M321.53 194.915C321.307 194.341 321.07 193.792 320.822 193.27C320.237 192.914 318.759 191.403 318.64 191.292C318.792 191.429 319.259 192.907 319.259 192.907C316.025 188.48 312.539 185.828 310.271 184.357C303.158 179.741 296.138 179.059 292.819 178.774C289.837 178.518 287.351 178.629 285.665 178.774C284.828 181.893 283.205 186.094 279.908 190.117C279.041 191.173 278.156 192.099 277.289 192.911C281.535 197.705 284.791 201.465 286.888 203.906C290.289 207.863 292.526 210.53 296.398 213.505C298.88 215.409 300.828 216.517 301.373 216.82C305.374 219.054 309.038 220.147 311.583 220.721C312.542 221.07 316.032 221.707 316.032 221.707C315.51 224.5 309.575 228.075 309.575 228.075C305.177 226.882 301.562 225.367 298.754 223.963C299.65 225.015 303.088 229.123 310.097 228.86C311.112 228.823 317.725 228.575 320.829 223.626C321.73 222.188 322.078 220.773 322.226 219.788L322.137 212.46C322.993 209.4 324.441 202.458 321.526 194.922L321.53 194.915ZM299.761 191.773C299.065 190.988 290.863 182.612 290.863 182.612C290.863 182.612 300.287 188.284 301.769 189.766C303.251 191.247 310.319 197.879 310.668 198.753C311.016 199.627 300.458 192.559 299.761 191.773Z" fill="url(#paint13_linear_2926_4456)"/>
<path d="M194.002 86.3293C193.665 86.3182 193.513 86.7479 193.783 86.948C194.606 87.5592 200.511 88.7373 201.452 89.1115C202.556 89.5449 203.775 88.1742 204.368 87.3814C204.534 87.1591 204.379 86.8443 204.101 86.8331L194.002 86.3293Z" fill="url(#paint14_linear_2926_4456)"/>
<path d="M158.41 184.38C164.156 183.479 169.453 181.042 169.272 180.256C169.179 179.856 167.749 180.227 164.756 179.601C162.133 179.052 160.273 178.152 159.651 177.834C157.354 176.663 155.894 175.314 154.742 174.233C151.941 171.606 150.452 169.031 150.03 168.279C149.085 166.586 148.615 165.738 148.263 164.482C147.826 162.919 147.903 162.011 147.151 161.407C146.125 160.585 144.484 161.067 144.206 161.144C142.346 161.685 141.446 163.178 138.579 167.82C138.216 168.409 137.523 169.528 136.586 171.036C136.008 171.969 135.886 173.118 136.263 174.151C137.456 177.426 139.39 181.153 142.539 184.602C147.633 190.185 153.001 191.863 155.261 191.833C155.731 191.826 156.817 191.807 157.906 191.133C159.136 190.57 159.588 189.74 159.751 189.211C159.825 188.966 159.643 188.714 159.388 188.718C154.583 188.792 147.544 184.246 147.544 184.246C150.182 184.713 153.975 185.072 158.406 184.376L158.41 184.38Z" fill="url(#paint15_linear_2926_4456)"/>
<path d="M235.763 192.733C233.822 191.485 231.632 193.015 228.435 193.43C224.994 193.878 222.293 192.793 219.537 191.685C213.898 189.418 210.697 185.291 209.067 183.135C208.319 182.146 207.663 181.149 207.078 180.138C200.521 194.345 185.384 191.507 171.851 189.41C161.007 190.748 172.014 205.177 177.141 205.274C171.825 208.359 166.42 203.395 163.041 200.865C157.062 205.885 169.506 219.31 171.306 219.618C171.373 219.596 171.436 219.577 171.503 219.551C171.473 219.614 171.403 219.633 171.306 219.618C163.512 222.233 157.158 209.375 156.191 215.858C156.884 217.428 157.629 219.218 159.596 224.497C160.981 228.216 161.674 230.076 161.952 231.039C162.148 231.725 162.919 234.462 163.523 238.367L164.045 245.172C164.045 245.172 170.421 247.025 173.099 247.536C173.107 247.536 173.14 247.543 173.203 247.554C173.292 247.573 173.392 247.591 173.496 247.606C173.511 247.606 173.529 247.61 173.548 247.614C175.27 247.84 178.378 247.399 178.378 247.399L178.641 246.417C178.641 246.417 178.512 244.324 177.856 241.116C177.2 237.908 180.083 231.628 180.083 231.628C179.953 232.369 179.823 233.432 179.886 234.703C179.92 235.351 180.083 237.778 181.72 240.986C183.276 244.039 184.813 247.051 188.066 248.184C190.737 249.114 193.723 248.488 194.545 248.314C194.86 248.247 195.649 248.069 196.575 247.725C197.854 247.247 201.703 245.81 203.903 241.834C206.33 237.452 205.074 233.017 204.755 231.954C203.718 228.505 201.562 226.401 200.565 225.542C200.18 225.682 199.643 225.871 198.995 226.064C198.202 226.301 197.202 226.605 195.983 226.783C194.742 226.968 193.827 226.946 192.578 226.912C191.356 226.883 190.511 226.86 189.437 226.649C189.437 226.649 188.229 226.323 186.499 225.471C182.046 223.285 177.593 216.921 177.993 216.573C178.167 216.421 179.053 217.621 181.853 219.518C183.724 220.785 185.284 221.841 187.61 222.53C189.97 223.226 191.5 223.204 192.578 223.185C193.389 223.171 194.771 223.093 196.438 222.726C197.339 222.53 198.513 222.263 199.906 221.615C200.528 221.326 201.892 220.685 202.981 219.651C205.756 217.013 205.637 212.831 205.6 211.405C205.57 210.353 205.404 208.634 204.611 206.611C204.363 205.981 203.818 205.507 203.162 205.348C201.958 205.059 199.806 204.87 197.094 206.037C192.841 207.87 186.21 204.51 186.21 204.51C194.127 206.933 204.763 198.928 206.256 196.942C207.845 194.827 208.052 191.118 208.052 191.118L207.956 244.583C208.738 245.195 210.034 246.054 211.816 246.613C212.698 246.891 214.565 247.451 216.921 247.073C218.918 246.75 220.255 245.913 221.437 245.176C222.663 244.409 224.405 243.294 225.69 241.182C226.29 240.197 226.713 239.341 227.065 237.519C227.991 232.721 227.976 230.324 227.783 229.602C227.465 228.394 227.005 228.153 226.342 227.842C225.738 227.553 225.134 227.672 224.901 227.712C222.86 228.072 220.726 227.994 218.685 227.646C216.836 227.331 214.039 226.494 209.719 222.281C210.931 223.463 212.75 223.397 213.809 223.485C215.013 223.585 215.995 223.497 217.703 223.385C219.907 223.245 221.519 222.667 221.893 222.6C223.66 222.293 224.282 221.681 225.101 221.226C226.416 220.496 227.153 219.488 227.654 218.803C228.498 217.647 228.876 216.621 229.224 215.661C229.613 214.594 229.954 213.665 230.01 212.39C230.032 211.905 230.102 210.282 229.55 209.249C228.261 206.833 223.845 207.444 218.622 206.763C214.106 206.174 209.982 202.377 209.982 202.377C210.816 202.295 212.009 202.191 213.45 202.114C215.921 201.98 217.181 202.38 218.488 202.577C220.244 202.84 220.178 202.703 222.152 203.029C223.241 203.21 224.694 203.447 226.516 203.203C228.676 202.91 230.254 202.076 231.617 201.365C232.407 200.954 233.133 200.502 233.848 199.998C237.174 197.653 237.352 195.923 237.337 195.345C237.315 194.308 236.634 193.285 235.767 192.726L235.763 192.733Z" fill="url(#paint16_linear_2926_4456)"/>
<path d="M187.205 173.581C189.879 174.051 192.095 174.059 193.617 173.973C195.955 173.844 197.418 173.744 198.982 172.795C200.564 171.836 201.379 170.532 201.994 169.524C202.727 168.32 203.531 166.59 204.22 161.804C204.431 160.337 204.835 157.151 204.876 152.772C204.909 149.127 204.668 146.489 204.483 144.525C204.161 141.091 203.987 139.343 203.305 137.72C202.186 135.053 200.504 133.356 199.378 132.222C198.533 131.37 196.907 129.759 194.273 128.425C193.495 128.032 190.883 126.777 187.205 126.462C186.386 126.391 183.615 126.206 180.136 127.117C177.502 127.806 175.046 128.977 171.76 131.307C169.389 132.989 165.099 136.331 159.327 143.481C153.926 150.171 151.225 153.513 150.951 157.484C150.522 163.7 154.371 168.383 155.271 169.48C159.891 175.107 166.359 176.348 169.211 176.637C169.571 176.674 169.778 176.241 169.519 175.989C168.018 174.533 166.94 172.203 166.94 172.203C177.706 171.68 189.561 159.84 189.561 159.84C190.609 161.541 188.775 167.431 188.775 167.431C190.346 167.953 193.88 166.775 193.88 166.775C193.488 168.609 187.205 173.581 187.205 173.581Z" fill="url(#paint17_linear_2926_4456)"/>
<path d="M154.616 212.453C155.264 213.764 156.127 215.724 156.187 215.857C155.731 214.427 155.016 212.986 154.16 211.567C154.312 211.849 154.464 212.145 154.62 212.453H154.616Z" fill="url(#paint18_linear_2926_4456)"/>
<defs>
<linearGradient id="paint0_linear_2926_4456" x1="52.8672" y1="335.298" x2="374.539" y2="335.298" gradientUnits="userSpaceOnUse">
<stop stop-color="#BA872C"/>
<stop offset="0.06" stop-color="#C28F29"/>
<stop offset="0.17" stop-color="#DAA422"/>
<stop offset="0.24" stop-color="#EFB81C"/>
<stop offset="0.68" stop-color="#FEF38A"/>
<stop offset="0.84" stop-color="#EDCC66"/>
<stop offset="1" stop-color="#BA872C"/>
</linearGradient>
<linearGradient id="paint1_linear_2926_4456" x1="207.582" y1="113.351" x2="211.75" y2="113.351" gradientUnits="userSpaceOnUse">
<stop stop-color="#BA872C"/>
<stop offset="0.06" stop-color="#C28F29"/>
<stop offset="0.17" stop-color="#DAA422"/>
<stop offset="0.24" stop-color="#EFB81C"/>
<stop offset="0.68" stop-color="#FEF38A"/>
<stop offset="0.84" stop-color="#EDCC66"/>
<stop offset="1" stop-color="#BA872C"/>
</linearGradient>
<linearGradient id="paint2_linear_2926_4456" x1="201.301" y1="110.791" x2="218.557" y2="110.791" gradientUnits="userSpaceOnUse">
<stop stop-color="#BA872C"/>
<stop offset="0.06" stop-color="#C28F29"/>
<stop offset="0.17" stop-color="#DAA422"/>
<stop offset="0.24" stop-color="#EFB81C"/>
<stop offset="0.68" stop-color="#FEF38A"/>
<stop offset="0.84" stop-color="#EDCC66"/>
<stop offset="1" stop-color="#BA872C"/>
</linearGradient>
<linearGradient id="paint3_linear_2926_4456" x1="197.776" y1="106.656" x2="205.056" y2="106.656" gradientUnits="userSpaceOnUse">
<stop stop-color="#BA872C"/>
<stop offset="0.06" stop-color="#C28F29"/>
<stop offset="0.17" stop-color="#DAA422"/>
<stop offset="0.24" stop-color="#EFB81C"/>
<stop offset="0.68" stop-color="#FEF38A"/>
<stop offset="0.84" stop-color="#EDCC66"/>
<stop offset="1" stop-color="#BA872C"/>
</linearGradient>
<linearGradient id="paint4_linear_2926_4456" x1="175.207" y1="49.0718" x2="239.864" y2="49.0718" gradientUnits="userSpaceOnUse">
<stop stop-color="#BA872C"/>
<stop offset="0.06" stop-color="#C28F29"/>
<stop offset="0.17" stop-color="#DAA422"/>
<stop offset="0.24" stop-color="#EFB81C"/>
<stop offset="0.68" stop-color="#FEF38A"/>
<stop offset="0.84" stop-color="#EDCC66"/>
<stop offset="1" stop-color="#BA872C"/>
</linearGradient>
<linearGradient id="paint5_linear_2926_4456" x1="232.676" y1="82.4207" x2="238.71" y2="82.4207" gradientUnits="userSpaceOnUse">
<stop stop-color="#BA872C"/>
<stop offset="0.06" stop-color="#C28F29"/>
<stop offset="0.17" stop-color="#DAA422"/>
<stop offset="0.24" stop-color="#EFB81C"/>
<stop offset="0.68" stop-color="#FEF38A"/>
<stop offset="0.84" stop-color="#EDCC66"/>
<stop offset="1" stop-color="#BA872C"/>
</linearGradient>
<linearGradient id="paint6_linear_2926_4456" x1="92.4057" y1="151.683" x2="318.254" y2="151.683" gradientUnits="userSpaceOnUse">
<stop stop-color="#BA872C"/>
<stop offset="0.06" stop-color="#C28F29"/>
<stop offset="0.17" stop-color="#DAA422"/>
<stop offset="0.24" stop-color="#EFB81C"/>
<stop offset="0.68" stop-color="#FEF38A"/>
<stop offset="0.84" stop-color="#EDCC66"/>
<stop offset="1" stop-color="#BA872C"/>
</linearGradient>
<linearGradient id="paint7_linear_2926_4456" x1="217.03" y1="96.2646" x2="225.354" y2="96.2646" gradientUnits="userSpaceOnUse">
<stop stop-color="#BA872C"/>
<stop offset="0.06" stop-color="#C28F29"/>
<stop offset="0.17" stop-color="#DAA422"/>
<stop offset="0.24" stop-color="#EFB81C"/>
<stop offset="0.68" stop-color="#FEF38A"/>
<stop offset="0.84" stop-color="#EDCC66"/>
<stop offset="1" stop-color="#BA872C"/>
</linearGradient>
<linearGradient id="paint8_linear_2926_4456" x1="255.876" y1="175.358" x2="281.538" y2="175.358" gradientUnits="userSpaceOnUse">
<stop stop-color="#BA872C"/>
<stop offset="0.06" stop-color="#C28F29"/>
<stop offset="0.17" stop-color="#DAA422"/>
<stop offset="0.24" stop-color="#EFB81C"/>
<stop offset="0.68" stop-color="#FEF38A"/>
<stop offset="0.84" stop-color="#EDCC66"/>
<stop offset="1" stop-color="#BA872C"/>
</linearGradient>
<linearGradient id="paint9_linear_2926_4456" x1="209.624" y1="150.878" x2="264.301" y2="150.878" gradientUnits="userSpaceOnUse">
<stop stop-color="#BA872C"/>
<stop offset="0.06" stop-color="#C28F29"/>
<stop offset="0.17" stop-color="#DAA422"/>
<stop offset="0.24" stop-color="#EFB81C"/>
<stop offset="0.68" stop-color="#FEF38A"/>
<stop offset="0.84" stop-color="#EDCC66"/>
<stop offset="1" stop-color="#BA872C"/>
</linearGradient>
<linearGradient id="paint10_linear_2926_4456" x1="238.54" y1="233.862" x2="245.931" y2="233.862" gradientUnits="userSpaceOnUse">
<stop stop-color="#BA872C"/>
<stop offset="0.06" stop-color="#C28F29"/>
<stop offset="0.17" stop-color="#DAA422"/>
<stop offset="0.24" stop-color="#EFB81C"/>
<stop offset="0.68" stop-color="#FEF38A"/>
<stop offset="0.84" stop-color="#EDCC66"/>
<stop offset="1" stop-color="#BA872C"/>
</linearGradient>
<linearGradient id="paint11_linear_2926_4456" x1="250.418" y1="209.638" x2="253.03" y2="209.638" gradientUnits="userSpaceOnUse">
<stop stop-color="#BA872C"/>
<stop offset="0.06" stop-color="#C28F29"/>
<stop offset="0.17" stop-color="#DAA422"/>
<stop offset="0.24" stop-color="#EFB81C"/>
<stop offset="0.68" stop-color="#FEF38A"/>
<stop offset="0.84" stop-color="#EDCC66"/>
<stop offset="1" stop-color="#BA872C"/>
</linearGradient>
<linearGradient id="paint12_linear_2926_4456" x1="262.59" y1="207.607" x2="298.517" y2="207.607" gradientUnits="userSpaceOnUse">
<stop stop-color="#BA872C"/>
<stop offset="0.06" stop-color="#C28F29"/>
<stop offset="0.17" stop-color="#DAA422"/>
<stop offset="0.24" stop-color="#EFB81C"/>
<stop offset="0.68" stop-color="#FEF38A"/>
<stop offset="0.84" stop-color="#EDCC66"/>
<stop offset="1" stop-color="#BA872C"/>
</linearGradient>
<linearGradient id="paint13_linear_2926_4456" x1="277.293" y1="203.743" x2="323.263" y2="203.743" gradientUnits="userSpaceOnUse">
<stop stop-color="#BA872C"/>
<stop offset="0.06" stop-color="#C28F29"/>
<stop offset="0.17" stop-color="#DAA422"/>
<stop offset="0.24" stop-color="#EFB81C"/>
<stop offset="0.68" stop-color="#FEF38A"/>
<stop offset="0.84" stop-color="#EDCC66"/>
<stop offset="1" stop-color="#BA872C"/>
</linearGradient>
<linearGradient id="paint14_linear_2926_4456" x1="193.643" y1="87.7593" x2="204.434" y2="87.7593" gradientUnits="userSpaceOnUse">
<stop stop-color="#BA872C"/>
<stop offset="0.06" stop-color="#C28F29"/>
<stop offset="0.17" stop-color="#DAA422"/>
<stop offset="0.24" stop-color="#EFB81C"/>
<stop offset="0.68" stop-color="#FEF38A"/>
<stop offset="0.84" stop-color="#EDCC66"/>
<stop offset="1" stop-color="#BA872C"/>
</linearGradient>
<linearGradient id="paint15_linear_2926_4456" x1="136.052" y1="176.389" x2="169.279" y2="176.389" gradientUnits="userSpaceOnUse">
<stop stop-color="#BA872C"/>
<stop offset="0.06" stop-color="#C28F29"/>
<stop offset="0.17" stop-color="#DAA422"/>
<stop offset="0.24" stop-color="#EFB81C"/>
<stop offset="0.68" stop-color="#FEF38A"/>
<stop offset="0.84" stop-color="#EDCC66"/>
<stop offset="1" stop-color="#BA872C"/>
</linearGradient>
<linearGradient id="paint16_linear_2926_4456" x1="156.188" y1="214.409" x2="237.334" y2="214.409" gradientUnits="userSpaceOnUse">
<stop stop-color="#BA872C"/>
<stop offset="0.06" stop-color="#C28F29"/>
<stop offset="0.17" stop-color="#DAA422"/>
<stop offset="0.24" stop-color="#EFB81C"/>
<stop offset="0.68" stop-color="#FEF38A"/>
<stop offset="0.84" stop-color="#EDCC66"/>
<stop offset="1" stop-color="#BA872C"/>
</linearGradient>
<linearGradient id="paint17_linear_2926_4456" x1="150.914" y1="151.52" x2="204.876" y2="151.52" gradientUnits="userSpaceOnUse">
<stop stop-color="#BA872C"/>
<stop offset="0.06" stop-color="#C28F29"/>
<stop offset="0.17" stop-color="#DAA422"/>
<stop offset="0.24" stop-color="#EFB81C"/>
<stop offset="0.68" stop-color="#FEF38A"/>
<stop offset="0.84" stop-color="#EDCC66"/>
<stop offset="1" stop-color="#BA872C"/>
</linearGradient>
<linearGradient id="paint18_linear_2926_4456" x1="154.156" y1="213.709" x2="156.187" y2="213.709" gradientUnits="userSpaceOnUse">
<stop stop-color="#BA872C"/>
<stop offset="0.06" stop-color="#C28F29"/>
<stop offset="0.17" stop-color="#DAA422"/>
<stop offset="0.24" stop-color="#EFB81C"/>
<stop offset="0.68" stop-color="#FEF38A"/>
<stop offset="0.84" stop-color="#EDCC66"/>
<stop offset="1" stop-color="#BA872C"/>
</linearGradient>
</defs>
</svg>
