<svg width="308" height="308" viewBox="0 0 308 308" fill="none" xmlns="http://www.w3.org/2000/svg">
<g clip-path="url(#clip0_2957_1001)">
<path d="M248.378 69.3206C247.72 67.397 239.566 52.9869 230.528 48.5556C218.574 41.8961 208.622 44.2231 203.811 45.8686L202.847 46.1984C172.357 54.4778 128.092 69.6174 127.128 69.9472C127.128 69.9472 81.899 85.4166 52.7255 97.5431L51.7615 97.8729C46.9502 99.5184 37.6575 103.774 32.2857 116.359C28.1841 126.361 30.5628 142.747 31.2207 144.67C31.5504 145.634 35.5511 163.614 41.8036 181.894L47.3981 198.252C53.6521 216.537 61.5 233.2 61.8281 234.16C62.486 236.083 70.6401 250.493 79.6783 254.925C90.3401 260.955 100.291 258.623 106.396 257.612L109.283 256.624C127.263 252.623 180.191 234.521 182.114 233.863C182.114 233.863 227.343 218.394 256.517 206.267L257.481 205.937C261.962 203.328 271.257 199.077 276.957 187.451C281.058 177.449 278.68 161.063 278.022 159.14C277.692 158.176 273.691 140.197 267.439 121.916L261.844 105.559C256.884 87.9076 248.702 70.2816 248.374 69.3222L248.378 69.3206ZM193.297 140.828L146.09 191.372C145.126 191.702 145.456 192.666 144.496 192.994C143.537 193.322 142.573 193.652 142.243 192.688C140.949 192.053 139.662 191.422 139.004 189.498L117.61 126.948C116.952 125.024 117.587 123.731 118.218 122.443C118.849 121.155 120.776 120.491 123.029 120.797L191.301 131.845C193.554 132.151 194.847 132.781 195.505 134.704C196.162 136.628 194.897 139.209 193.303 140.831L193.297 140.828Z" fill="url(#paint0_linear_2957_1001)"/>
</g>
<defs>
<linearGradient id="paint0_linear_2957_1001" x1="245.021" y1="29.6304" x2="78.57" y2="254.155" gradientUnits="userSpaceOnUse">
<stop stop-color="#B9852C"/>
<stop offset="0.06" stop-color="#C18D29"/>
<stop offset="0.17" stop-color="#D9A222"/>
<stop offset="0.24" stop-color="#EEB61D"/>
<stop offset="0.68" stop-color="#FDF289"/>
<stop offset="0.84" stop-color="#ECCA65"/>
<stop offset="1" stop-color="#B9852C"/>
</linearGradient>
<clipPath id="clip0_2957_1001">
<rect width="241.859" height="241.859" fill="white" transform="translate(0 78.3701) rotate(-18.8818)"/>
</clipPath>
</defs>
</svg>
