<svg width="395" height="396" viewBox="0 0 395 396" fill="none" xmlns="http://www.w3.org/2000/svg">
<g clip-path="url(#clip0_2957_1018)">
<path d="M184.588 147.65C186.485 148.503 188.309 149.312 190.119 150.142C192.621 151.285 195.152 152.283 197.927 152.549C199.983 152.746 201.978 152.488 203.945 151.891C204.283 151.79 204.852 151.857 205.082 152.08C207.378 154.323 210.102 155.701 213.258 156.231C213.397 156.251 213.529 156.316 213.667 156.358C210.065 165.809 215.351 176.023 225.955 177.851C225.631 179.396 225.141 180.922 225.016 182.486C224.522 188.591 226.97 193.414 231.974 196.795C236.958 200.167 242.375 200.669 247.743 197.825C253.196 194.932 258.504 191.753 263.819 188.597C267.379 186.488 269.662 183.342 270.681 179.286C270.817 179.301 270.941 179.284 271.025 179.336C281.136 185.628 291.036 192.217 299.95 200.162C303.6 203.411 307.051 206.862 309.694 211.021C310.466 212.229 311.11 213.53 311.704 214.84C312.866 217.388 312.471 219.962 311.734 222.538C310.158 228.038 307.224 232.803 303.766 237.279C298.34 244.316 291.871 250.316 284.946 255.826C275.917 263.014 266.25 269.234 256.02 274.563C244.205 280.719 231.971 285.8 218.821 288.352C213.653 289.353 208.445 289.772 203.16 289.336C194.256 288.603 188.228 283.959 184.454 276.037C180.632 268.022 178.919 259.455 177.794 250.743C175.986 236.74 175.701 222.664 176.092 208.582C176.495 194.055 177.163 179.544 177.712 165.027C177.762 163.808 177.883 162.576 177.772 161.37C177.602 159.539 178.152 158.025 179.138 156.508C180.999 153.667 182.707 150.725 184.588 147.65ZM219.98 209.882C218.898 210.755 217.909 211.474 217.004 212.293C211.802 217.03 210.404 223.186 213.292 229.133C215.556 233.786 219.218 236.451 224.557 236.258C226.354 236.194 228.15 235.87 229.924 235.545C231.358 235.281 232.76 234.835 234.139 234.475L240.983 246.33C238.807 247.183 236.602 247.623 234.353 247.604C232.083 247.584 229.819 247.352 227.488 247.213C227.051 249.75 226.608 252.324 226.155 254.938C229.35 255.687 232.496 255.981 235.606 255.442C238.71 254.907 241.758 254.027 245.061 253.243L247.427 257.34L251.298 255.105L248.746 250.685C249.075 250.441 249.278 250.291 249.482 250.132C252.486 247.874 254.972 245.196 256.431 241.671C259.817 233.487 254.68 223.087 244.254 223.723C243.111 223.791 241.962 223.897 240.849 224.123C238.794 224.543 236.766 225.069 234.701 225.556L228.087 214.099C231.551 212.872 235.078 212.509 238.74 212.646C238.942 209.982 239.14 207.415 239.34 204.793C233.927 204.498 228.824 205.354 223.881 207.711L222.202 204.802L218.331 207.037L219.972 209.88L219.98 209.882ZM170.427 170.637C169.655 171.499 169.213 172.467 168.553 173.245C168.01 173.887 167.273 174.508 166.499 174.773C165.063 175.266 163.377 174.593 162.599 173.362C161.715 171.958 161.939 170.565 162.779 169.193C167.705 161.161 172.601 153.112 177.53 145.085C178.356 143.735 179.233 142.402 180.211 141.152C181.434 139.592 182.4 139.344 184.194 140.089C186.242 140.936 188.207 141.999 190.272 142.782C192.681 143.696 195.134 144.545 197.63 145.167C199.572 145.645 201.602 145.354 203.279 144.184C206.395 142.015 207.908 138.91 207.724 135.146C207.551 131.529 205.376 129.251 202.239 127.694C196.716 124.949 191.145 122.272 185.756 119.281C182.492 117.47 179.37 117.149 175.883 118.302C169.011 120.576 162.133 122.853 155.183 124.876C150.763 126.159 148.022 128.803 146.897 133.209C146.891 133.246 146.877 133.281 146.864 133.315C143.91 141.922 140.905 150.512 138.018 159.141C136.223 164.505 132.805 168.421 127.912 171.132C125.386 172.53 122.847 173.894 120.312 175.277C119.969 175.462 119.637 175.667 119.324 175.848L148.651 226.643C150.894 225.348 153.081 224.119 155.236 222.834C159.452 220.313 163.819 218.309 168.846 218.74C169.374 202.602 169.896 186.629 170.42 170.648L170.427 170.637ZM107.734 169.845C107.503 169.945 107.331 169.997 107.175 170.087C102.785 172.622 98.3686 175.111 94.0281 177.731C93.0569 178.319 92.1688 179.248 91.5805 180.219C90.0734 182.696 90.3856 185.203 91.8114 187.673C102.609 206.351 113.388 225.033 124.175 243.717C124.341 244.004 124.505 244.3 124.686 244.578C126.797 247.781 130.698 248.741 134.032 246.857C135.999 245.748 137.943 244.599 139.899 243.47C142.459 241.991 145.02 240.513 147.656 238.991L107.734 169.845ZM187.758 75.6537C182.299 80.633 176.858 85.6295 171.391 90.5937C169.897 91.9531 168.51 93.4731 166.481 94.1138C159.197 96.4309 151.919 98.7712 144.638 101.106C143.636 101.43 142.638 101.751 141.398 102.151C141.924 102.573 142.221 102.832 142.534 103.061C148.295 107.254 154.074 111.431 159.809 115.66C160.584 116.235 161.21 116.33 162.107 116.034C166.48 114.564 170.861 113.096 175.279 111.762C179.123 110.598 182.993 110.386 186.749 112.19C187.334 112.47 187.894 112.812 188.288 113.028C189.649 111.335 190.88 109.684 192.259 108.162C192.809 107.555 193.051 107.066 192.939 106.243C191.651 96.6914 190.403 87.1371 189.141 77.5837C189.031 76.7533 188.9 75.9215 188.751 74.9058C188.319 75.229 188.017 75.4165 187.758 75.6537ZM239.906 165.442C242.471 163.961 245.075 162.545 247.589 160.986C252.109 158.188 253.023 151.565 249.505 147.602C246.493 144.213 242.127 143.542 237.934 145.916C233.263 148.559 228.631 151.267 223.997 153.962C223.327 154.349 222.682 154.802 222.119 155.329C218.742 158.501 218.304 163.586 221.034 167.326C223.566 170.79 228.695 171.841 232.608 169.655C235.063 168.285 237.48 166.849 239.914 165.444C239.914 165.444 239.911 165.439 239.908 165.434L239.906 165.442ZM252.414 187.245C254.974 185.767 257.571 184.341 260.089 182.8C264.776 179.92 265.71 173.587 262.13 169.411C259.276 166.086 255.06 165.221 251.233 167.356C246.134 170.199 241.103 173.171 236.053 176.1C235.61 176.356 235.185 176.669 234.807 177.015C231.347 180.195 230.837 185.281 233.583 189.072C236.127 192.583 241.262 193.63 245.222 191.411C247.639 190.056 250.028 188.643 252.427 187.258L252.422 187.247L252.414 187.245ZM217.987 149.092C219.445 148.627 220.807 147.82 222.151 147.051C226.583 144.519 231.038 142.028 235.378 139.347C239.267 136.947 240.466 131.632 238.213 127.718C235.895 123.68 230.125 122.031 225.864 124.336C222.097 126.377 218.415 128.59 214.705 130.732C214.554 130.819 214.435 130.962 214.323 131.06C216.099 137.313 214.335 142.673 210.34 147.58C212.693 149.34 215.247 149.968 217.992 149.089L217.987 149.092ZM204.569 121.114C206.409 122.101 208.151 123.314 209.776 124.627C210.568 125.265 211.011 125.311 211.834 124.816C214.715 123.079 217.723 121.537 220.541 119.702C222.217 118.613 223.827 117.28 225.112 115.759C228.334 111.957 227.692 107.039 223.779 103.928C220.726 101.504 216.825 101.277 213.191 103.341C208.176 106.189 203.15 109.031 198.158 111.919C196.52 112.865 195.326 114.253 194.534 116.129C197.954 117.817 201.314 119.364 204.569 121.114ZM248.844 237.9C248.944 235.175 246.81 232.677 244.137 232.319C242.27 232.066 240.493 232.527 238.644 233.071L244.984 244.053C247.108 242.471 248.743 240.647 248.846 237.892L248.844 237.9ZM220.137 220.094C219.101 222.782 220.561 225.951 223.274 226.844C225.384 227.541 227.463 227.08 229.626 226.624L223.649 216.272C222 217.21 220.789 218.407 220.137 220.094Z" fill="url(#paint0_linear_2957_1018)"/>
</g>
<defs>
<linearGradient id="paint0_linear_2957_1018" x1="25.2225" y1="135.623" x2="276.721" y2="204.461" gradientUnits="userSpaceOnUse">
<stop stop-color="#B9852C"/>
<stop offset="0.06" stop-color="#C18D29"/>
<stop offset="0.17" stop-color="#D9A222"/>
<stop offset="0.24" stop-color="#EEB61D"/>
<stop offset="0.68" stop-color="#FDF289"/>
<stop offset="0.84" stop-color="#ECCA65"/>
<stop offset="1" stop-color="#B9852C"/>
</linearGradient>
<clipPath id="clip0_2957_1018">
<rect width="288.726" height="288.726" fill="white" transform="translate(0 145.26) rotate(-30)"/>
</clipPath>
</defs>
</svg>
