<svg width="394" height="394" viewBox="0 0 394 394" fill="none" xmlns="http://www.w3.org/2000/svg">
<g clip-path="url(#clip0_2957_1045)">
<path d="M129.221 250.25C134.611 244.646 140.957 240.231 147.499 236.104C159.33 228.642 171.842 222.454 184.657 216.912C200.794 209.94 217.036 203.227 233.748 197.717C244.791 194.072 255.957 190.889 267.473 189.116C274.937 187.965 282.437 187.129 290.119 189.051C293.348 155.292 296.575 121.612 299.797 87.9342C299.398 88.149 299.217 88.3999 299.071 88.6698C296.12 94.3066 292.926 99.8317 290.289 105.61C286.595 113.704 281.136 120.315 274.484 126.064C273.229 127.147 272.034 128.297 270.779 129.445C281.601 136.628 287.147 149.954 282.996 163.4C281.874 167.038 280.188 170.359 277.335 172.972C270.799 178.956 261.53 177.562 257.474 169.741C255.414 165.775 253.957 161.499 252.234 157.362C251.047 154.507 250.758 151.536 251.117 148.478C251.739 143.125 253.616 138.175 255.967 133.387C257.425 130.415 259.085 127.532 260.677 124.564C260.234 124.396 259.813 124.232 259.386 124.071C250.619 120.743 243.617 115.423 239.755 106.591C237.04 100.387 234.348 94.1741 231.645 87.9657C231.478 87.5869 231.333 87.1989 231.18 86.8211C230.978 89.8801 231.041 92.8449 231.013 95.8136C230.941 103.519 230.538 111.188 228.073 118.585C226.175 124.274 223.145 129.2 218.215 132.769C216.754 133.83 215.151 134.686 213.481 135.72C214.192 136.239 214.855 136.706 215.494 137.195C216.183 137.723 216.873 138.257 217.531 138.824C224.975 145.2 230.929 152.583 233.181 162.399C234.587 168.537 234.422 174.592 231.688 180.376C227.501 189.243 218.329 192.285 209.846 187.396C202.533 183.181 198.121 176.603 196.116 168.508C194.819 163.285 195.345 157.938 196.262 152.695C197.138 147.66 198.332 142.679 199.397 137.625C195.697 136.541 191.802 135.385 187.895 134.261C176.54 130.987 169.477 122.833 163.814 113.097C163.443 112.459 163.139 112.018 162.372 112.218C161.439 112.46 161.734 113.201 161.835 113.79C162.237 116.085 162.737 118.365 163.086 120.661C164.126 127.481 164.377 134.319 161.508 140.77C159.487 145.318 156.958 149.633 154.645 154.044C154.209 154.879 153.721 155.682 153.227 156.553C154.04 157.017 154.715 157.4 155.384 157.785C160.745 160.881 165.785 164.417 170.515 168.434C179.084 175.719 182.649 184.981 181.323 196.036C179.829 208.486 168.517 214.265 157.48 208.312C149.692 204.113 145.155 197.29 142.694 189.012C140.471 181.511 140.462 173.865 141.734 166.184C141.81 165.726 141.852 165.262 141.924 164.648C138.276 165.922 134.765 166.436 131.167 166.152C124.656 165.64 119.035 162.873 113.803 159.172C107.225 154.52 101.708 148.714 96.2058 142.895C95.8827 142.553 95.5507 142.222 95.3357 142C97.7441 148.454 100.212 154.955 102.587 161.487C105.329 169.02 105.627 176.601 102.755 184.178C102.031 186.082 101.175 187.935 100.353 189.873C100.84 190.004 101.184 190.107 101.541 190.192C106.885 191.534 112.081 193.291 117.002 195.791C121.447 198.057 125.88 200.571 128.176 205.164C130.599 210.021 132.573 215.132 134.346 220.267C135.864 224.644 135.026 228.738 131.464 232.066C127.166 236.089 122.134 237.143 116.712 235.301C105.066 231.344 98.1401 223.219 96.1557 211.008C95.5764 207.451 95.6924 203.908 96.6081 200.262C94.5015 200.351 92.5452 200.437 90.5923 200.515C83.1365 200.814 75.8004 200.309 68.6708 197.807C61.9342 195.448 55.132 193.267 48.3576 191.008C47.9317 190.866 47.4825 190.779 47.0432 190.669C47.011 190.767 46.9765 190.86 46.9386 190.961C72.7334 212.801 98.5226 234.644 124.138 256.333C125.9 254.203 127.438 252.086 129.228 250.221L129.221 250.25Z" fill="url(#paint0_linear_2957_1045)"/>
<path d="M295.358 222.643C294.43 222.64 293.99 222.365 293.65 221.498C291.798 216.816 289.901 212.153 287.956 207.503C287.602 206.648 287.717 206.154 288.368 205.495C290.698 203.127 291.962 200.306 291.465 196.92C290.966 193.561 288.389 191.442 285.062 191.553C272.349 191.981 259.848 193.997 247.594 197.267C237.707 199.909 227.899 202.907 218.174 206.127C205.039 210.479 192.378 216.043 179.96 222.14C170.803 226.641 161.875 231.561 153.266 237.055C144.543 242.622 136.174 248.642 128.628 255.76C128.218 256.144 127.813 256.683 127.712 257.21C127.128 260.346 127.949 263.009 130.576 264.977C132.432 266.371 134.55 267.086 136.844 267.073C137.913 267.065 138.335 267.459 138.703 268.394C140.515 272.993 142.372 277.574 144.291 282.13C144.699 283.1 144.543 283.67 143.814 284.367C141.982 286.131 140.514 288.161 139.702 290.608C138.833 293.235 139.323 295.572 141.24 297.586C144.97 301.503 149.469 303.419 154.924 302.823C169.864 301.195 184.362 297.53 198.615 292.954C210.113 289.263 221.442 285.061 232.844 281.086C232.802 280.966 232.759 280.845 232.717 280.724C249.619 273.874 266.124 266.207 281.762 256.782C288.582 252.673 295.258 248.341 301.221 243.016C305.044 239.602 306.723 235.232 306.602 230.154C306.541 227.629 305.358 225.706 303.148 224.442C300.73 223.054 298.075 222.635 295.351 222.626L295.358 222.643ZM240.851 220.626C243.557 219.493 246.54 220.717 247.666 223.42C248.777 226.103 247.515 229.173 244.852 230.25C242.252 231.308 239.196 230.047 238.077 227.473C236.936 224.848 238.201 221.737 240.854 220.619L240.851 220.626ZM209.729 229.147C214.059 227.366 218.895 229.368 220.627 233.658C222.327 237.869 220.256 242.714 216.016 244.439C211.776 246.164 206.917 244.139 205.192 239.931C203.453 235.69 205.468 230.901 209.724 229.15L209.729 229.147ZM181.543 244.754C184.238 243.658 187.266 244.93 188.353 247.616C189.431 250.267 188.087 253.376 185.423 254.421C182.81 255.444 179.748 254.153 178.678 251.572C177.581 248.923 178.876 245.84 181.541 244.749L181.543 244.754ZM285.558 248.81C271.149 258.333 255.691 265.844 239.824 272.575C226.755 278.122 213.466 283.095 199.869 287.2C187.38 290.973 174.76 294.234 161.747 295.67C161.351 295.713 160.954 295.724 160.559 295.753L160.398 295.424C163.342 293.372 166.226 291.219 169.251 289.286C185.048 279.185 202.063 271.527 219.316 264.344C231.787 259.152 244.39 254.301 257.269 250.224C268.88 246.552 280.575 243.201 292.79 242.194C293.279 242.153 293.772 242.137 294.258 242.103C294.331 242.251 294.404 242.399 294.481 242.538C291.507 244.629 288.578 246.8 285.55 248.807L285.558 248.81Z" fill="url(#paint1_linear_2957_1045)"/>
</g>
<defs>
<linearGradient id="paint0_linear_2957_1045" x1="99.4161" y1="120.723" x2="323.696" y2="223.202" gradientUnits="userSpaceOnUse">
<stop stop-color="#B9852C"/>
<stop offset="0.06" stop-color="#C18D29"/>
<stop offset="0.17" stop-color="#D9A222"/>
<stop offset="0.24" stop-color="#EEB61D"/>
<stop offset="0.68" stop-color="#FDF289"/>
<stop offset="0.84" stop-color="#ECCA65"/>
<stop offset="1" stop-color="#B9852C"/>
</linearGradient>
<linearGradient id="paint1_linear_2957_1045" x1="72.1036" y1="180.485" x2="296.386" y2="282.97" gradientUnits="userSpaceOnUse">
<stop stop-color="#B9852C"/>
<stop offset="0.06" stop-color="#C18D29"/>
<stop offset="0.17" stop-color="#D9A222"/>
<stop offset="0.24" stop-color="#EEB61D"/>
<stop offset="0.68" stop-color="#FDF289"/>
<stop offset="0.84" stop-color="#ECCA65"/>
<stop offset="1" stop-color="#B9852C"/>
</linearGradient>
<clipPath id="clip0_2957_1045">
<rect width="302" height="302" fill="white" transform="translate(0 114.033) rotate(-22.1378)"/>
</clipPath>
</defs>
</svg>
