<svg width="41" height="40" viewBox="0 0 41 40" fill="none" xmlns="http://www.w3.org/2000/svg">
<path d="M23 27.5C23 28.163 22.7366 28.7989 22.2678 29.2678C21.7989 29.7366 21.163 30 20.5 30C19.837 30 19.2011 29.7366 18.7322 29.2678C18.2634 28.7989 18 28.163 18 27.5C18 26.837 18.2634 26.2011 18.7322 25.7322C19.2011 25.2634 19.837 25 20.5 25C21.163 25 21.7989 25.2634 22.2678 25.7322C22.7366 26.2011 23 26.837 23 27.5ZM19.25 10C17.5924 10 16.0027 10.6585 14.8306 11.8306C13.6585 13.0027 13 14.5924 13 16.25H18C18 15.9185 18.1317 15.6005 18.3661 15.3661C18.6005 15.1317 18.9185 15 19.25 15H20.865C21.0803 15.0001 21.2892 15.0729 21.4578 15.2066C21.6265 15.3404 21.7451 15.5271 21.7943 15.7367C21.8435 15.9462 21.8204 16.1663 21.7289 16.3611C21.6374 16.5559 21.4827 16.7141 21.29 16.81L18 18.455V22.5H23V21.545L23.5275 21.28C24.7266 20.6797 25.688 19.6923 26.256 18.4776C26.8241 17.2629 26.9655 15.8921 26.6575 14.587C26.3494 13.2819 25.6099 12.119 24.5586 11.2865C23.5074 10.454 22.2059 10.0007 20.865 10H19.25Z" fill="#F98910"/>
<path d="M0.5 20C0.5 14.6957 2.60714 9.60859 6.35786 5.85786C10.1086 2.10714 15.1957 0 20.5 0C25.8043 0 30.8914 2.10714 34.6421 5.85786C38.3929 9.60859 40.5 14.6957 40.5 20C40.5 25.3043 38.3929 30.3914 34.6421 34.1421C30.8914 37.8929 25.8043 40 20.5 40C15.1957 40 10.1086 37.8929 6.35786 34.1421C2.60714 30.3914 0.5 25.3043 0.5 20ZM20.5 5C18.5302 5 16.5796 5.38799 14.7597 6.14181C12.9399 6.89563 11.2863 8.00052 9.8934 9.3934C8.50052 10.7863 7.39563 12.4399 6.64181 14.2597C5.88799 16.0796 5.5 18.0302 5.5 20C5.5 21.9698 5.88799 23.9204 6.64181 25.7403C7.39563 27.5601 8.50052 29.2137 9.8934 30.6066C11.2863 31.9995 12.9399 33.1044 14.7597 33.8582C16.5796 34.612 18.5302 35 20.5 35C24.4782 35 28.2936 33.4196 31.1066 30.6066C33.9196 27.7936 35.5 23.9782 35.5 20C35.5 16.0218 33.9196 12.2064 31.1066 9.3934C28.2936 6.58035 24.4782 5 20.5 5Z" fill="#F98910"/>
</svg>
