<svg width="61" height="40" viewBox="0 0 61 40" fill="none" xmlns="http://www.w3.org/2000/svg">
<path fill-rule="evenodd" clip-rule="evenodd" d="M20 28.125C21.4264 28.1271 22.8279 27.7519 24.0625 27.0375V24.375C24.0625 23.6291 23.7662 22.9137 23.2387 22.3863C22.7113 21.8588 21.9959 21.5625 21.25 21.5625H18.75C18.0041 21.5625 17.2887 21.8588 16.7613 22.3863C16.2338 22.9137 15.9375 23.6291 15.9375 24.375V27.0375C17.1721 27.7519 18.5736 28.1271 20 28.125ZM25.9375 24.375V25.5463C27.0184 24.3891 27.7376 22.9414 28.0068 21.381C28.2759 19.8207 28.0833 18.2156 27.4525 16.7633C26.8217 15.3109 25.7803 14.0745 24.4563 13.2061C23.1323 12.3376 21.5834 11.8749 20 11.8749C18.4166 11.8749 16.8677 12.3376 15.5437 13.2061C14.2197 14.0745 13.1783 15.3109 12.5475 16.7633C11.9167 18.2156 11.7241 19.8207 11.9932 21.381C12.2624 22.9414 12.9816 24.3891 14.0625 25.5463V24.375C14.0621 23.4085 14.3605 22.4655 14.9168 21.6752C15.4731 20.8848 16.2601 20.2858 17.17 19.96C16.698 19.4171 16.3921 18.7498 16.2888 18.0379C16.1856 17.3259 16.2893 16.5993 16.5876 15.9446C16.8859 15.29 17.3662 14.7349 17.9713 14.3457C18.5763 13.9565 19.2806 13.7496 20 13.7496C20.7194 13.7496 21.4237 13.9565 22.0287 14.3457C22.6338 14.7349 23.1141 15.29 23.4124 15.9446C23.7107 16.5993 23.8144 17.3259 23.7112 18.0379C23.6079 18.7498 23.302 19.4171 22.83 19.96C23.7399 20.2858 24.5269 20.8848 25.0832 21.6752C25.6395 22.4655 25.9379 23.4085 25.9375 24.375ZM20 30C22.6522 30 25.1957 28.9464 27.0711 27.0711C28.9464 25.1957 30 22.6522 30 20C30 17.3478 28.9464 14.8043 27.0711 12.9289C25.1957 11.0536 22.6522 10 20 10C17.3478 10 14.8043 11.0536 12.9289 12.9289C11.0536 14.8043 10 17.3478 10 20C10 22.6522 11.0536 25.1957 12.9289 27.0711C14.8043 28.9464 17.3478 30 20 30ZM21.875 17.5C21.875 17.9973 21.6775 18.4742 21.3258 18.8258C20.9742 19.1775 20.4973 19.375 20 19.375C19.5027 19.375 19.0258 19.1775 18.6742 18.8258C18.3225 18.4742 18.125 17.9973 18.125 17.5C18.125 17.0027 18.3225 16.5258 18.6742 16.1742C19.0258 15.8225 19.5027 15.625 20 15.625C20.4973 15.625 20.9742 15.8225 21.3258 16.1742C21.6775 16.5258 21.875 17.0027 21.875 17.5Z" fill="#EFAF00"/>
<path d="M45.5 25.5L40.7369 17.25L50.2631 17.25L45.5 25.5Z" fill="#EFAF00"/>
</svg>
