<svg width="147" height="106" viewBox="0 0 147 106" fill="none" xmlns="http://www.w3.org/2000/svg">
<path d="M38.0515 54.8013H42.183V69.1657H38.0515V54.8013ZM22.4238 54.8013L17.2585 59.9317V54.8013H13.1271V69.1657H17.2585V64.0353L22.4238 69.1657H28.2506L21.0202 61.9842L28.2506 54.8013H22.4238ZM60.2844 36.244H56.153V43.6004L45.8223 33.3396V50.6083H49.9538V43.2519L60.2844 53.5127V36.244ZM17.2599 45.4779H22.9414C24.2227 45.4779 25.317 45.0266 26.2259 44.1239C27.1347 43.2212 27.5891 42.1329 27.5891 40.8616C27.5891 39.5904 27.1347 38.5021 26.2259 37.5994C25.317 36.6967 24.2213 36.2453 22.9414 36.2453H13.1284V40.3488H22.9414C23.0866 40.3488 23.2076 40.3983 23.3085 40.4971C23.408 40.5959 23.4577 40.7174 23.4577 40.8616C23.4577 41.0058 23.408 41.1274 23.3085 41.2262C23.209 41.325 23.0866 41.3744 22.9414 41.3744H13.1284V50.6083H17.2599V45.4779ZM39.6245 43.4268C39.6245 44.2748 39.322 44.9999 38.7157 45.6021C38.1093 46.2044 37.3793 46.5048 36.5256 46.5048C35.6719 46.5048 34.9418 46.2044 34.3355 45.6021C33.7292 44.9999 33.4267 44.2748 33.4267 43.4268V36.244H29.2952V43.4268C29.2952 45.4098 30.001 47.103 31.4127 48.5052C32.8244 49.9073 34.5291 50.6083 36.5256 50.6083C38.5221 50.6083 40.2268 49.9073 41.6385 48.5052C43.0501 47.103 43.7559 45.4098 43.7559 43.4268V36.244H39.6245V43.4268ZM63.3174 62.1578L52.9868 51.8969V69.1657H57.1183V61.8092L67.4489 72.0701V54.8013H63.3174V62.1578ZM88.867 36.244V41.3744H82.6692V36.244H78.5378V50.6083H82.6692V45.4779H88.867V50.6083H92.9985V36.244H88.867ZM80.3702 56.9045C78.9586 58.3066 78.2527 59.9998 78.2527 61.9828C78.2527 63.9658 78.9586 65.659 80.3702 67.0612C81.7819 68.4633 83.4866 69.1643 85.4831 69.1643H92.7134V59.9304H88.582V65.0608H85.4831C84.6294 65.0608 83.8993 64.7604 83.293 64.1581C82.6867 63.5559 82.3842 62.8308 82.3842 61.9828C82.3842 61.1349 82.6867 60.4098 83.293 59.8075C83.8993 59.2053 84.6294 58.9049 85.4831 58.9049H92.7134V54.8013H85.4831C83.4853 54.8013 81.7819 55.5024 80.3702 56.9045ZM69.5811 40.3475C70.4349 40.3475 71.1649 40.648 71.7712 41.2502C72.2525 41.7296 72.5429 42.2824 72.6384 42.9127H76.7913C76.6811 41.1474 75.982 39.6264 74.694 38.3472C73.2824 36.945 71.5776 36.244 69.5811 36.244C67.5847 36.244 65.8799 36.945 64.4683 38.3472C63.0566 39.7493 62.3508 41.4425 62.3508 43.4255C62.3508 45.4085 63.0566 47.1017 64.4683 48.5038C65.8799 49.9059 67.5847 50.607 69.5811 50.607C71.5776 50.607 73.2824 49.9059 74.694 48.5038C75.982 47.2246 76.6811 45.7023 76.7913 43.9383H72.6384C72.5416 44.5672 72.2525 45.1214 71.7712 45.6008C71.1649 46.203 70.4349 46.5035 69.5811 46.5035C68.7274 46.5035 67.9974 46.203 67.3911 45.6008C66.7847 44.9985 66.4822 44.2734 66.4822 43.4255C66.4822 42.5775 66.7847 41.8524 67.3911 41.2502C67.9974 40.648 68.7274 40.3475 69.5811 40.3475Z" fill="url(#paint0_linear_2822_31)"/>
<path d="M122 46.4813L122.383 46.5664L121.976 46.4091L121.616 46.5664L122 46.4813Z" fill="url(#paint1_linear_2822_31)"/>
<path d="M122.366 45.8572L121.998 45.9744L121.607 45.8572L120.461 46.176H123.635L122.366 45.8572Z" fill="url(#paint2_linear_2822_31)"/>
<path d="M121.083 45.3312C121.185 45.2842 121.172 45.1357 121.064 45.107L120.516 44.9612C120.382 44.9258 120.24 44.964 120.142 45.0614L119.837 45.3666C119.79 45.4129 119.818 45.492 119.883 45.4995L120.41 45.5608C120.503 45.5717 120.598 45.5567 120.683 45.5165L121.083 45.3312Z" fill="url(#paint3_linear_2822_31)"/>
<path d="M116.27 33.6605L116.336 33.9678L117.188 38.6415C117.2 38.6265 117.218 38.6183 117.238 38.6238C117.357 38.6572 117.515 38.6994 117.7 38.7416C118.436 38.9099 119.038 38.9542 119.794 38.9821C120.446 39.006 121.383 39.0387 122.659 38.9821C123.003 38.9665 123.71 38.9297 124.608 38.8377C125.226 38.7743 125.768 38.7021 126.217 38.6347L126.943 33.6605C127.283 33.6394 127.553 33.358 127.553 33.0126C127.553 32.6672 127.262 32.3626 126.903 32.3626C126.544 32.3626 126.253 32.6535 126.253 33.0126C126.253 33.2626 126.394 33.4793 126.601 33.5876L124.953 35.5607V33.5978L123.461 34.9454L122.105 32.5459C122.45 32.426 122.699 32.099 122.699 31.7127C122.699 31.2255 121.816 30.3187 121.816 30.3187C121.816 30.3187 120.934 31.2255 120.934 31.7127C120.934 32.0676 121.145 32.3735 121.447 32.5132L119.819 34.9618L118.455 33.7743L118.294 35.3147L116.599 33.5944C116.814 33.4881 116.962 33.2681 116.962 33.0119C116.962 32.6529 116.671 32.3619 116.312 32.3619C115.953 32.3619 115.662 32.6529 115.662 33.0119C115.662 33.371 115.931 33.638 116.27 33.6598V33.6605Z" fill="url(#paint4_linear_2822_31)"/>
<path d="M126.59 42.5529C126.656 42.5509 126.775 42.508 126.991 41.9752C127.233 41.3777 127.414 40.9314 127.312 40.3544C127.258 40.0532 127.09 39.5055 126.863 39.5041C126.679 39.5027 126.485 39.8584 126.381 40.3707L126.239 39.0463C126.269 39.6778 126.309 40.9457 126.23 42.1946C126.288 42.3151 126.424 42.5584 126.59 42.5536V42.5529Z" fill="url(#paint5_linear_2822_31)"/>
<path d="M109.951 62.0688C109.951 62.0688 109.95 62.0661 109.949 62.0654C109.949 62.062 109.947 62.0586 109.947 62.0545C109.836 62.2091 109.72 62.3672 109.597 62.5307C108.979 63.3442 108.14 64.4356 106.805 65.5475C106.044 66.1804 104.889 67.0137 103.314 67.7263C103.314 67.7263 101.991 67.4408 101.638 66.767C101.638 66.767 103.403 66.5742 105.745 64.6809C108.088 62.7875 109.276 61.0223 109.276 61.0223C109.276 61.0223 107.831 58.5192 107.414 58.4552C107.055 58.4 105.291 58.4218 103.883 58.9791C103.551 59.1106 103.24 59.2911 102.953 59.5037L101.638 60.4766C101.638 60.4766 102.376 57.7166 106.356 57.5885C106.448 57.5872 106.542 57.5885 106.636 57.5885C107.061 57.1893 108.067 56.5727 108.434 55.4574L106.725 55.3518C107.404 55.1372 109.977 53.9702 110.071 52.3895C109.999 51.3546 110.36 51.2586 110.36 51.2586C110.471 55.4125 112.66 50.0806 113.994 49.1888C113.994 49.1888 114.355 48.996 113.296 48.6349C112.104 48.2738 112.442 48.1777 112.442 48.1777C112.442 48.1777 114.114 48.1539 114.524 48.2983C114.813 48.4005 116.396 47.4665 118.4 47.8916C119.828 48.1607 120.764 48.8148 121.365 49.6759C121.441 49.6269 121.558 49.5512 121.756 49.4177C122.013 49.2453 122.137 49.1561 122.491 48.9122C122.84 48.6717 123.015 48.5518 123.056 48.5273C123.418 48.3154 123.725 48.2193 124.055 48.1178C124.548 47.9665 124.934 47.9079 125.222 47.865C125.7 47.7942 126.132 47.7301 126.714 47.769C127.28 47.8064 127.563 47.8255 127.809 47.9495C127.992 48.0422 128.311 48.2466 128.58 48.2023C128.6 48.1989 128.663 48.1982 128.864 48.1512C128.928 48.1362 129.01 48.1205 129.121 48.1062C129.366 48.0742 129.555 48.0646 129.699 48.0578C130.038 48.0415 130.321 48.0456 130.321 48.0456C130.321 48.0456 130.746 48.0783 130.626 48.2588C130.506 48.4394 130.085 48.6117 129.64 48.7439C129.194 48.8761 129.483 49.1411 129.483 49.1411C129.64 49.2746 129.893 49.5015 130.169 49.8149C130.609 50.315 130.768 50.6495 131.264 51.3431C131.42 51.5611 131.663 51.8902 131.986 52.2819C132.479 53.0763 133.142 53.2085 133.142 53.2085C133.109 52.9503 133.094 52.5851 133.178 52.1613C133.232 51.8874 133.314 51.6565 133.394 51.4752C133.411 51.6721 133.554 53.2085 134.14 53.7501C134.241 53.8434 134.552 54.0887 134.79 54.2679C134.942 54.3823 135.077 54.4784 135.26 54.5806C135.442 54.6828 135.588 54.7428 135.633 54.7612C135.891 54.8654 136.052 54.8892 136.199 54.9294C136.397 54.9839 136.67 55.0957 136.981 55.3525C136.981 55.3525 135.115 55.3266 134.971 55.4472C134.826 55.5678 135.464 56.3697 135.464 56.3697H135.657L136.7 57.5409C137.742 57.5749 139.903 57.8113 141.321 59.3749C141.554 59.6304 141.778 59.9363 141.969 60.2245C141.978 59.8212 141.956 59.2898 141.835 58.68C141.74 58.2065 141.589 57.4829 141.113 56.7063C140.824 56.2348 140.514 55.9105 139.893 55.2619C139.564 54.9172 139.276 54.6446 139.075 54.4593C139.247 53.1901 139.08 52.1886 138.931 51.587C138.807 51.0876 138.654 50.4908 138.225 49.8217C138.004 49.4783 137.391 48.6172 136.267 48.0565C135.252 47.5496 134.321 47.5387 133.363 47.5271C132.807 47.5203 132.343 47.5639 132.015 47.6075C130.902 46.6843 129.26 45.6113 127.089 45.056C126.705 44.9579 126.333 44.8837 125.974 44.8278L126.126 43.4352L125.789 44.7992L124.874 45.8422L123.574 47.2382L122.867 47.912H120.974L120.108 47.3343L118.856 46.1311L117.87 44.6125C118.188 44.9756 118.419 45.2488 118.567 45.445C118.612 45.5043 118.71 45.6379 118.83 45.629C118.914 45.6229 118.964 45.5534 118.964 45.5534C119.172 45.3892 119.385 45.2127 119.602 45.024C119.788 44.8619 119.942 44.6731 120.132 44.5423C120.219 44.4817 120.476 44.3713 120.574 44.3298C120.596 44.3202 120.608 44.2957 120.601 44.2725L120.555 44.1145C120.553 44.1104 120.553 44.107 120.553 44.1029C120.533 43.8597 120.675 43.6525 120.801 43.5183C120.835 43.4815 120.895 43.517 120.88 43.5653C120.849 43.6648 120.835 43.7813 120.878 43.8924C120.923 44.0061 121 44.0436 121.191 44.1812C121.722 44.5621 121.789 44.7447 121.985 44.7106C122.138 44.684 122.234 44.5498 122.274 44.494C122.414 44.2991 122.4 44.0729 122.395 43.9646C122.374 43.5769 122.355 43.0264 122.323 42.341C122.323 42.3329 122.321 42.3247 122.316 42.3172C122.258 42.2252 122.167 42.1183 122.034 42.0869C122.009 42.0808 121.984 42.0808 121.959 42.0822L121.609 42.3342V43.4822L121.408 42.664L121.163 42.5359C121.152 42.5386 121.141 42.5413 121.13 42.5434C120.319 42.6728 119.683 42.4351 119.41 42.2654C118.58 41.749 118.458 41.4942 118.246 41.1849C118.168 41.0711 118.242 40.9151 118.379 40.9049C118.478 40.8974 118.594 40.8892 118.712 40.8831C119.582 40.8374 120.433 40.8708 121.096 40.9791C121.179 40.9928 121.305 41.328 121.649 41.4363C121.731 41.4615 122.081 41.5719 122.372 41.3641C122.515 41.2612 122.588 41.2353 122.648 41.1835C122.898 40.9682 123.197 40.9437 123.383 40.9308C123.619 40.9144 123.676 40.9287 124.081 40.9069C124.486 40.8844 124.627 40.8585 124.731 40.8347C124.972 40.7788 125.093 40.7509 125.213 40.6664C125.496 40.4668 125.675 40.0492 125.574 39.6615C125.553 39.5831 125.517 39.5177 125.491 39.4544C125.403 39.2425 125.375 39.1866 125.088 39.2684C125.011 39.2902 124.922 39.3011 124.828 39.3181C124.539 39.3706 123.885 39.4809 122.998 39.5348C122.17 39.5845 121.555 39.56 120.929 39.5348C120.102 39.5014 119.424 39.4346 118.979 39.3903C118.637 39.3563 118.347 39.3229 118.131 39.2963C118.119 39.295 118.107 39.2984 118.097 39.3059C117.971 39.4026 117.837 39.5198 117.703 39.6615C117.442 39.9388 117.263 40.2249 117.139 40.4722C117.116 40.5186 117.046 40.4988 117.049 40.447L117.123 39.4557L117.03 40.289C116.891 39.7882 116.645 39.4844 116.436 39.5027C116.299 39.515 116.205 39.6622 116.164 39.7276C115.969 40.0308 116.013 40.3898 116.083 40.7386C116.202 41.3327 116.439 42.5073 116.869 42.5195C116.955 42.5223 117.075 42.48 117.222 42.279L117.447 43.5626L117.896 44.6697C116.232 44.7958 113.85 45.2679 111.718 46.916C111.422 47.1449 111.15 47.382 110.9 47.6218C110.552 47.5727 110.052 47.5271 109.456 47.5578C108.708 47.5959 107.51 47.6565 106.455 48.344C104.543 49.5894 104.332 52.0843 104.289 52.596C104.225 53.342 104.307 53.9599 104.385 54.3612C103.485 55.063 101.443 56.8711 101.159 59.5923C101.12 59.9711 101.118 60.3355 101.143 60.6837C101.045 60.8125 100.903 61.0189 100.774 61.2935C100.323 62.2595 100.442 63.2345 100.485 63.5561C100.55 64.0411 100.65 64.1835 100.678 64.7592C100.697 65.1789 100.65 65.2089 100.678 65.5775C100.704 65.9181 100.741 66.4093 101.031 66.9094C101.151 67.1172 101.363 67.4831 101.785 67.6956C101.936 67.7719 102.306 67.9246 103.085 67.776C104.048 67.5921 104.161 67.2276 105.187 66.8454C106.191 66.4707 106.274 66.7486 107.177 66.348C108.038 65.9658 108.573 65.4419 108.765 65.2409C109.274 64.7102 109.526 64.2053 109.664 63.9253C110.032 63.1752 110.035 62.7378 110.033 62.6254C110.03 62.391 109.99 62.1982 109.954 62.0674L109.951 62.0688ZM104.366 60.6571C105.278 59.8682 106.179 59.3967 106.823 59.1153C106.477 59.5725 105.937 60.2156 105.172 60.8731C104.241 61.6743 102.946 62.2929 102.946 62.2929C102.946 62.2929 103.631 61.2907 104.366 60.6564V60.6571ZM118.326 42.4678L118.447 44.0375L118.663 45.0724L118.182 44.0375L118.326 42.4678ZM117.508 41.518L117.893 43.3453L117.628 42.5522L117.507 41.5174L117.508 41.518Z" fill="url(#paint6_linear_2822_31)"/>
<path d="M124.392 43.6035C124.433 43.5436 124.401 43.5885 124.729 43.038C124.83 42.8691 124.889 42.771 124.886 42.6286C124.884 42.5836 124.88 42.4119 124.777 42.352C124.672 42.2906 124.574 42.4078 124.223 42.5202C123.993 42.5945 123.806 42.6517 123.597 42.5925C123.475 42.5577 123.449 42.5121 123.404 42.5325C123.283 42.5884 123.41 42.9563 123.464 43.6274C123.502 44.0872 123.475 44.3087 123.585 44.3495C123.672 44.3816 123.783 44.28 123.958 44.1206C124.001 44.0818 124.162 43.9326 124.392 43.6028V43.6035Z" fill="url(#paint7_linear_2822_31)"/>
<path d="M134.044 59.8137C134.955 59.054 135.147 58.0232 135.213 57.4298C135.228 57.3017 135.194 57.173 135.117 57.0694C134.268 55.9173 133.468 54.907 133.19 55.063C133.11 55.1079 133.138 55.1502 133.118 55.4588C133.108 55.608 132.935 56.6715 132.262 57.5157C132.056 57.7745 131.811 57.9605 131.323 58.3339C131.077 58.5226 130.837 58.6875 130.609 58.8319C130.527 58.8837 130.482 58.9804 130.502 59.0751C130.543 59.2652 130.69 59.5187 131.01 59.6413C131.509 59.8328 133 59.473 133 59.473C132.919 59.6093 132.366 59.8743 132.118 59.9547C131.938 60.0126 131.766 60.1468 131.685 60.2156C131.652 60.2436 131.603 60.3574 131.6 60.3996C131.594 60.5045 131.586 60.5386 131.656 60.6183C131.972 60.978 133.291 60.4412 134.044 59.813V59.8137Z" fill="url(#paint8_linear_2822_31)"/>
<path d="M131.639 56.5523C131.851 56.228 131.981 55.8573 132.015 55.4717C132.038 55.2237 132.053 54.9744 132.046 54.6514C132.039 53.6186 130.361 51.8595 130.361 51.8595C128.945 50.3749 128.236 49.6323 127.858 49.4524C126.717 48.7493 123.576 48.4911 122.611 50.8968C121.78 52.6654 121.702 56.1367 122.9 57.3473C123.67 58.1261 124.73 57.7112 125.018 57.6362C125.018 57.6362 123.975 56.6095 124.087 56.3526C124.087 56.3526 124.89 56.5775 125.162 56.5291C125.162 56.5291 125.275 55.3736 124.986 54.7959C125.871 56.0093 127.588 57.549 130.233 57.6839C130.802 57.6696 131.321 57.0407 131.64 56.5516L131.639 56.5523Z" fill="url(#paint9_linear_2822_31)"/>
<path d="M128.309 66.8698L127.314 70.3601C127.278 70.4971 127.447 70.5938 127.546 70.4936C127.787 70.2504 128.273 69.5793 128.483 68.9382C128.725 68.199 128.713 67.019 128.549 66.8167C128.478 66.7295 128.338 66.7622 128.309 66.8705V66.8698Z" fill="url(#paint10_linear_2822_31)"/>
<path d="M129.494 64.8812L129.974 63.509L129.494 64.8812Z" fill="url(#paint11_linear_2822_31)"/>
<path d="M133.971 62.8672C133.783 62.6036 133.636 62.3794 133.538 62.2255H133.345L131.733 60.8376L133.217 62.1294C133.411 62.7133 133.715 63.4416 134.196 64.2155C134.588 64.8451 135.002 65.3499 135.367 65.7403C135.825 66.0571 136.504 66.4386 137.39 66.6553C137.734 66.7391 138.053 66.7847 138.34 66.8072C138.193 66.7329 138.057 66.66 137.935 66.5912C135.801 65.3894 134.569 63.7032 133.971 62.8686V62.8672Z" fill="url(#paint12_linear_2822_31)"/>
<path d="M142.572 61.4876C142.531 61.382 142.488 61.2812 142.442 61.1851C142.334 61.1197 142.063 60.8417 142.041 60.8213C142.069 60.8465 142.155 61.1184 142.155 61.1184C141.56 60.3042 140.919 59.8164 140.502 59.5459C139.194 58.697 137.903 58.5717 137.292 58.5192C136.744 58.4722 136.287 58.4926 135.977 58.5192C135.823 59.0928 135.524 59.8654 134.918 60.6053C134.758 60.7995 134.596 60.9698 134.436 61.119C135.217 62.0006 135.816 62.6922 136.201 63.1411C136.827 63.8688 137.238 64.3593 137.95 64.9064C138.407 65.2566 138.765 65.4603 138.865 65.5161C139.601 65.927 140.275 66.128 140.743 66.2336C140.919 66.2976 141.561 66.4148 141.561 66.4148C141.465 66.9285 140.374 67.5859 140.374 67.5859C139.565 67.3666 138.9 67.0879 138.384 66.8297C138.548 67.0232 139.181 67.7787 140.47 67.7304C140.656 67.7236 141.873 67.6779 142.443 66.7677C142.609 66.5034 142.673 66.2431 142.7 66.0619L142.684 64.7143C142.841 64.1515 143.108 62.8747 142.572 61.489L142.572 61.4876ZM138.569 60.9099C138.441 60.7654 136.932 59.225 136.932 59.225C136.932 59.225 138.666 60.2681 138.938 60.5406C139.211 60.8131 140.511 62.0327 140.575 62.1934C140.639 62.3542 138.697 61.0543 138.569 60.9099Z" fill="url(#paint13_linear_2822_31)"/>
<path d="M119.119 41.518C119.057 41.5159 119.029 41.595 119.079 41.6318C119.23 41.7442 120.316 41.9608 120.489 42.0296C120.692 42.1094 120.916 41.8573 121.025 41.7115C121.056 41.6706 121.027 41.6127 120.976 41.6106L119.119 41.518Z" fill="url(#paint14_linear_2822_31)"/>
<path d="M112.573 59.5499C113.63 59.3843 114.604 58.9361 114.571 58.7916C114.554 58.718 114.291 58.7862 113.74 58.671C113.258 58.5702 112.916 58.4046 112.801 58.346C112.379 58.1308 112.111 57.8828 111.899 57.6838C111.384 57.2008 111.11 56.7273 111.032 56.589C110.858 56.2776 110.772 56.1216 110.707 55.8906C110.627 55.6031 110.641 55.4362 110.503 55.3252C110.314 55.1739 110.012 55.2625 109.961 55.2768C109.619 55.3763 109.454 55.6508 108.926 56.5045C108.859 56.6128 108.732 56.8186 108.56 57.0959C108.453 57.2675 108.431 57.4788 108.5 57.6688C108.72 58.2711 109.075 58.9565 109.655 59.5908C110.591 60.6175 111.579 60.9261 111.994 60.9207C112.081 60.9193 112.28 60.9159 112.481 60.7919C112.707 60.6884 112.79 60.5357 112.82 60.4383C112.833 60.3934 112.8 60.347 112.753 60.3477C111.869 60.3613 110.575 59.5254 110.575 59.5254C111.06 59.6112 111.758 59.6773 112.573 59.5492L112.573 59.5499Z" fill="url(#paint15_linear_2822_31)"/>
<path d="M126.799 61.0863C126.442 60.8567 126.039 61.1381 125.451 61.2144C124.818 61.2968 124.321 61.0972 123.815 60.8935C122.778 60.4766 122.189 59.7176 121.889 59.3211C121.752 59.1392 121.631 58.9559 121.523 58.7699C120.317 61.3827 117.534 60.8608 115.045 60.4752C113.051 60.7211 115.075 63.3748 116.018 63.3925C115.04 63.96 114.046 63.0471 113.425 62.5818C112.325 63.5049 114.614 65.974 114.945 66.0305C114.957 66.0264 114.969 66.023 114.981 66.0183C114.975 66.0298 114.962 66.0332 114.945 66.0305C113.511 66.5115 112.343 64.1467 112.165 65.339C112.292 65.6279 112.429 65.9569 112.791 66.9278C113.046 67.6118 113.173 67.9538 113.224 68.131C113.261 68.257 113.402 68.7605 113.513 69.4786L113.609 70.7301C113.609 70.7301 114.782 71.0708 115.274 71.1648C115.276 71.1648 115.282 71.1662 115.294 71.1682C115.31 71.1716 115.328 71.175 115.347 71.1777C115.35 71.1777 115.354 71.1784 115.357 71.1791C115.674 71.2207 116.245 71.1396 116.245 71.1396L116.294 70.959C116.294 70.959 116.27 70.5741 116.149 69.9841C116.029 69.3941 116.559 68.2393 116.559 68.2393C116.535 68.3756 116.511 68.5711 116.523 68.8048C116.529 68.924 116.559 69.3703 116.86 69.9603C117.146 70.5216 117.429 71.0755 118.027 71.284C118.518 71.455 119.067 71.3399 119.219 71.3079C119.276 71.2956 119.422 71.2629 119.592 71.1995C119.827 71.1117 120.535 70.8473 120.94 70.1163C121.386 69.3103 121.155 68.4948 121.096 68.2992C120.905 67.665 120.509 67.278 120.326 67.1199C120.255 67.1458 120.156 67.1805 120.037 67.216C119.891 67.2596 119.707 67.3154 119.483 67.3482C119.255 67.3822 119.086 67.3781 118.857 67.372C118.632 67.3665 118.477 67.3625 118.279 67.3236C118.279 67.3236 118.057 67.2637 117.739 67.107C116.92 66.705 116.101 65.5345 116.174 65.4705C116.207 65.4426 116.369 65.6633 116.884 66.0121C117.228 66.2451 117.515 66.4393 117.943 66.566C118.377 66.6941 118.659 66.69 118.857 66.6866C119.006 66.6839 119.26 66.6696 119.567 66.6021C119.732 66.566 119.948 66.517 120.204 66.3977C120.319 66.3446 120.57 66.2267 120.77 66.0366C121.28 65.5516 121.258 64.7824 121.252 64.5201C121.246 64.3266 121.215 64.0105 121.07 63.6385C121.024 63.5226 120.924 63.4354 120.803 63.4061C120.582 63.353 120.186 63.3183 119.687 63.5329C118.905 63.8701 117.686 63.2522 117.686 63.2522C119.142 63.6977 121.098 62.2255 121.372 61.8603C121.664 61.4713 121.703 60.7893 121.703 60.7893L121.685 70.6218C121.829 70.7342 122.067 70.8923 122.395 70.9952C122.557 71.0463 122.9 71.1491 123.334 71.0796C123.701 71.0204 123.947 70.8664 124.164 70.7308C124.39 70.5898 124.71 70.3847 124.946 69.9964C125.057 69.8151 125.134 69.6578 125.199 69.3226C125.369 68.4403 125.367 67.9995 125.331 67.8666C125.273 67.6445 125.188 67.6002 125.066 67.543C124.955 67.4899 124.844 67.5117 124.801 67.5192C124.426 67.5852 124.033 67.5709 123.658 67.5069C123.318 67.449 122.804 67.295 122.009 66.5204C122.232 66.7377 122.566 66.7254 122.761 66.7418C122.983 66.7602 123.163 66.7438 123.477 66.7234C123.883 66.6975 124.179 66.5912 124.248 66.579C124.573 66.5224 124.687 66.41 124.838 66.3262C125.08 66.192 125.215 66.0067 125.307 65.8806C125.463 65.6681 125.532 65.4793 125.596 65.3029C125.668 65.1067 125.73 64.9357 125.741 64.7013C125.745 64.612 125.758 64.3136 125.656 64.1236C125.419 63.6793 124.607 63.7918 123.646 63.6664C122.816 63.5581 122.058 62.8597 122.058 62.8597C122.211 62.8448 122.43 62.8257 122.695 62.8114C123.15 62.7868 123.381 62.8604 123.622 62.8965C123.945 62.9449 123.932 62.9197 124.296 62.9797C124.496 63.013 124.763 63.0566 125.098 63.0117C125.495 62.9578 125.786 62.8046 126.036 62.6737C126.181 62.5981 126.315 62.515 126.446 62.4223C127.058 61.9911 127.091 61.6729 127.088 61.5666C127.084 61.3759 126.959 61.1878 126.799 61.085L126.799 61.0863Z" fill="url(#paint16_linear_2822_31)"/>
<path d="M117.869 57.564C118.361 57.6505 118.768 57.6519 119.048 57.6362C119.478 57.6124 119.747 57.594 120.035 57.4195C120.326 57.2431 120.476 57.0033 120.589 56.818C120.724 56.5965 120.871 56.2784 120.998 55.3981C121.037 55.1283 121.111 54.5424 121.119 53.7371C121.125 53.0667 121.081 52.5816 121.046 52.2205C120.987 51.589 120.955 51.2674 120.83 50.969C120.624 50.4785 120.315 50.1664 120.108 49.9579C119.952 49.8012 119.653 49.5049 119.169 49.2596C119.026 49.1874 118.545 48.9564 117.869 48.8985C117.718 48.8856 117.209 48.8515 116.569 49.0191C116.085 49.1458 115.633 49.3611 115.029 49.7897C114.593 50.099 113.804 50.7135 112.742 52.0284C111.749 53.2588 111.252 53.8734 111.202 54.6037C111.123 55.747 111.831 56.6081 111.996 56.8098C112.846 57.8447 114.035 58.0729 114.56 58.1261C114.626 58.1329 114.664 58.0532 114.616 58.0068C114.34 57.7391 114.142 57.3105 114.142 57.3105C116.122 57.2145 118.302 55.037 118.302 55.037C118.495 55.3498 118.158 56.433 118.158 56.433C118.447 56.5291 119.097 56.3124 119.097 56.3124C119.024 56.6497 117.869 57.564 117.869 57.564Z" fill="url(#paint17_linear_2822_31)"/>
<path d="M111.876 64.7129C111.995 64.9541 112.154 65.3145 112.164 65.339C112.081 65.076 111.949 64.811 111.792 64.55C111.82 64.6018 111.848 64.6563 111.876 64.7129H111.876Z" fill="url(#paint18_linear_2822_31)"/>
<defs>
<linearGradient id="paint0_linear_2822_31" x1="13.1271" y1="52.7048" x2="92.9998" y2="52.7048" gradientUnits="userSpaceOnUse">
<stop stop-color="#BA872C"/>
<stop offset="0.06" stop-color="#C28F29"/>
<stop offset="0.17" stop-color="#DAA422"/>
<stop offset="0.24" stop-color="#EFB81C"/>
<stop offset="0.68" stop-color="#FEF38A"/>
<stop offset="0.84" stop-color="#EDCC66"/>
<stop offset="1" stop-color="#BA872C"/>
</linearGradient>
<linearGradient id="paint1_linear_2822_31" x1="121.616" y1="46.4874" x2="122.383" y2="46.4874" gradientUnits="userSpaceOnUse">
<stop stop-color="#BA872C"/>
<stop offset="0.06" stop-color="#C28F29"/>
<stop offset="0.17" stop-color="#DAA422"/>
<stop offset="0.24" stop-color="#EFB81C"/>
<stop offset="0.68" stop-color="#FEF38A"/>
<stop offset="0.84" stop-color="#EDCC66"/>
<stop offset="1" stop-color="#BA872C"/>
</linearGradient>
<linearGradient id="paint2_linear_2822_31" x1="120.461" y1="46.0166" x2="123.635" y2="46.0166" gradientUnits="userSpaceOnUse">
<stop stop-color="#BA872C"/>
<stop offset="0.06" stop-color="#C28F29"/>
<stop offset="0.17" stop-color="#DAA422"/>
<stop offset="0.24" stop-color="#EFB81C"/>
<stop offset="0.68" stop-color="#FEF38A"/>
<stop offset="0.84" stop-color="#EDCC66"/>
<stop offset="1" stop-color="#BA872C"/>
</linearGradient>
<linearGradient id="paint3_linear_2822_31" x1="119.813" y1="45.2562" x2="121.152" y2="45.2562" gradientUnits="userSpaceOnUse">
<stop stop-color="#BA872C"/>
<stop offset="0.06" stop-color="#C28F29"/>
<stop offset="0.17" stop-color="#DAA422"/>
<stop offset="0.24" stop-color="#EFB81C"/>
<stop offset="0.68" stop-color="#FEF38A"/>
<stop offset="0.84" stop-color="#EDCC66"/>
<stop offset="1" stop-color="#BA872C"/>
</linearGradient>
<linearGradient id="paint4_linear_2822_31" x1="115.662" y1="34.6661" x2="127.553" y2="34.6661" gradientUnits="userSpaceOnUse">
<stop stop-color="#BA872C"/>
<stop offset="0.06" stop-color="#C28F29"/>
<stop offset="0.17" stop-color="#DAA422"/>
<stop offset="0.24" stop-color="#EFB81C"/>
<stop offset="0.68" stop-color="#FEF38A"/>
<stop offset="0.84" stop-color="#EDCC66"/>
<stop offset="1" stop-color="#BA872C"/>
</linearGradient>
<linearGradient id="paint5_linear_2822_31" x1="126.231" y1="40.7993" x2="127.341" y2="40.7993" gradientUnits="userSpaceOnUse">
<stop stop-color="#BA872C"/>
<stop offset="0.06" stop-color="#C28F29"/>
<stop offset="0.17" stop-color="#DAA422"/>
<stop offset="0.24" stop-color="#EFB81C"/>
<stop offset="0.68" stop-color="#FEF38A"/>
<stop offset="0.84" stop-color="#EDCC66"/>
<stop offset="1" stop-color="#BA872C"/>
</linearGradient>
<linearGradient id="paint6_linear_2822_31" x1="100.435" y1="53.5369" x2="141.97" y2="53.5369" gradientUnits="userSpaceOnUse">
<stop stop-color="#BA872C"/>
<stop offset="0.06" stop-color="#C28F29"/>
<stop offset="0.17" stop-color="#DAA422"/>
<stop offset="0.24" stop-color="#EFB81C"/>
<stop offset="0.68" stop-color="#FEF38A"/>
<stop offset="0.84" stop-color="#EDCC66"/>
<stop offset="1" stop-color="#BA872C"/>
</linearGradient>
<linearGradient id="paint7_linear_2822_31" x1="123.354" y1="43.3453" x2="124.885" y2="43.3453" gradientUnits="userSpaceOnUse">
<stop stop-color="#BA872C"/>
<stop offset="0.06" stop-color="#C28F29"/>
<stop offset="0.17" stop-color="#DAA422"/>
<stop offset="0.24" stop-color="#EFB81C"/>
<stop offset="0.68" stop-color="#FEF38A"/>
<stop offset="0.84" stop-color="#EDCC66"/>
<stop offset="1" stop-color="#BA872C"/>
</linearGradient>
<linearGradient id="paint8_linear_2822_31" x1="130.497" y1="57.891" x2="135.217" y2="57.891" gradientUnits="userSpaceOnUse">
<stop stop-color="#BA872C"/>
<stop offset="0.06" stop-color="#C28F29"/>
<stop offset="0.17" stop-color="#DAA422"/>
<stop offset="0.24" stop-color="#EFB81C"/>
<stop offset="0.68" stop-color="#FEF38A"/>
<stop offset="0.84" stop-color="#EDCC66"/>
<stop offset="1" stop-color="#BA872C"/>
</linearGradient>
<linearGradient id="paint9_linear_2822_31" x1="121.992" y1="53.389" x2="132.047" y2="53.389" gradientUnits="userSpaceOnUse">
<stop stop-color="#BA872C"/>
<stop offset="0.06" stop-color="#C28F29"/>
<stop offset="0.17" stop-color="#DAA422"/>
<stop offset="0.24" stop-color="#EFB81C"/>
<stop offset="0.68" stop-color="#FEF38A"/>
<stop offset="0.84" stop-color="#EDCC66"/>
<stop offset="1" stop-color="#BA872C"/>
</linearGradient>
<linearGradient id="paint10_linear_2822_31" x1="127.31" y1="68.65" x2="128.669" y2="68.65" gradientUnits="userSpaceOnUse">
<stop stop-color="#BA872C"/>
<stop offset="0.06" stop-color="#C28F29"/>
<stop offset="0.17" stop-color="#DAA422"/>
<stop offset="0.24" stop-color="#EFB81C"/>
<stop offset="0.68" stop-color="#FEF38A"/>
<stop offset="0.84" stop-color="#EDCC66"/>
<stop offset="1" stop-color="#BA872C"/>
</linearGradient>
<linearGradient id="paint11_linear_2822_31" x1="129.494" y1="64.1951" x2="129.974" y2="64.1951" gradientUnits="userSpaceOnUse">
<stop stop-color="#BA872C"/>
<stop offset="0.06" stop-color="#C28F29"/>
<stop offset="0.17" stop-color="#DAA422"/>
<stop offset="0.24" stop-color="#EFB81C"/>
<stop offset="0.68" stop-color="#FEF38A"/>
<stop offset="0.84" stop-color="#EDCC66"/>
<stop offset="1" stop-color="#BA872C"/>
</linearGradient>
<linearGradient id="paint12_linear_2822_31" x1="131.733" y1="63.8217" x2="138.34" y2="63.8217" gradientUnits="userSpaceOnUse">
<stop stop-color="#BA872C"/>
<stop offset="0.06" stop-color="#C28F29"/>
<stop offset="0.17" stop-color="#DAA422"/>
<stop offset="0.24" stop-color="#EFB81C"/>
<stop offset="0.68" stop-color="#FEF38A"/>
<stop offset="0.84" stop-color="#EDCC66"/>
<stop offset="1" stop-color="#BA872C"/>
</linearGradient>
<linearGradient id="paint13_linear_2822_31" x1="134.437" y1="63.1112" x2="142.891" y2="63.1112" gradientUnits="userSpaceOnUse">
<stop stop-color="#BA872C"/>
<stop offset="0.06" stop-color="#C28F29"/>
<stop offset="0.17" stop-color="#DAA422"/>
<stop offset="0.24" stop-color="#EFB81C"/>
<stop offset="0.68" stop-color="#FEF38A"/>
<stop offset="0.84" stop-color="#EDCC66"/>
<stop offset="1" stop-color="#BA872C"/>
</linearGradient>
<linearGradient id="paint14_linear_2822_31" x1="119.053" y1="41.781" x2="121.038" y2="41.781" gradientUnits="userSpaceOnUse">
<stop stop-color="#BA872C"/>
<stop offset="0.06" stop-color="#C28F29"/>
<stop offset="0.17" stop-color="#DAA422"/>
<stop offset="0.24" stop-color="#EFB81C"/>
<stop offset="0.68" stop-color="#FEF38A"/>
<stop offset="0.84" stop-color="#EDCC66"/>
<stop offset="1" stop-color="#BA872C"/>
</linearGradient>
<linearGradient id="paint15_linear_2822_31" x1="108.462" y1="58.0803" x2="114.572" y2="58.0803" gradientUnits="userSpaceOnUse">
<stop stop-color="#BA872C"/>
<stop offset="0.06" stop-color="#C28F29"/>
<stop offset="0.17" stop-color="#DAA422"/>
<stop offset="0.24" stop-color="#EFB81C"/>
<stop offset="0.68" stop-color="#FEF38A"/>
<stop offset="0.84" stop-color="#EDCC66"/>
<stop offset="1" stop-color="#BA872C"/>
</linearGradient>
<linearGradient id="paint16_linear_2822_31" x1="112.164" y1="65.0726" x2="127.088" y2="65.0726" gradientUnits="userSpaceOnUse">
<stop stop-color="#BA872C"/>
<stop offset="0.06" stop-color="#C28F29"/>
<stop offset="0.17" stop-color="#DAA422"/>
<stop offset="0.24" stop-color="#EFB81C"/>
<stop offset="0.68" stop-color="#FEF38A"/>
<stop offset="0.84" stop-color="#EDCC66"/>
<stop offset="1" stop-color="#BA872C"/>
</linearGradient>
<linearGradient id="paint17_linear_2822_31" x1="111.195" y1="53.5068" x2="121.119" y2="53.5068" gradientUnits="userSpaceOnUse">
<stop stop-color="#BA872C"/>
<stop offset="0.06" stop-color="#C28F29"/>
<stop offset="0.17" stop-color="#DAA422"/>
<stop offset="0.24" stop-color="#EFB81C"/>
<stop offset="0.68" stop-color="#FEF38A"/>
<stop offset="0.84" stop-color="#EDCC66"/>
<stop offset="1" stop-color="#BA872C"/>
</linearGradient>
<linearGradient id="paint18_linear_2822_31" x1="111.791" y1="64.9438" x2="112.164" y2="64.9438" gradientUnits="userSpaceOnUse">
<stop stop-color="#BA872C"/>
<stop offset="0.06" stop-color="#C28F29"/>
<stop offset="0.17" stop-color="#DAA422"/>
<stop offset="0.24" stop-color="#EFB81C"/>
<stop offset="0.68" stop-color="#FEF38A"/>
<stop offset="0.84" stop-color="#EDCC66"/>
<stop offset="1" stop-color="#BA872C"/>
</linearGradient>
</defs>
</svg>
