<svg width="72" height="46" viewBox="0 0 72 46" fill="none" xmlns="http://www.w3.org/2000/svg">
<path d="M26.205 24.0486H28.8911V33.4513H26.205V24.0486ZM16.0444 24.0486L12.6861 27.4069V24.0486H10V33.4513H12.6861V30.093L16.0444 33.4513H19.8328L15.1319 28.7504L19.8328 24.0486H16.0444ZM40.6601 11.9012H37.9739V16.7166L31.2573 10V21.3039H33.9434V16.4885L40.6601 23.2051V11.9012ZM12.687 17.9456H16.381C17.214 17.9456 17.9255 17.6502 18.5164 17.0593C19.1073 16.4684 19.4027 15.756 19.4027 14.9238C19.4027 14.0917 19.1073 13.3793 18.5164 12.7884C17.9255 12.1975 17.2131 11.902 16.381 11.902H10.0009V14.5882H16.381C16.4754 14.5882 16.554 14.6205 16.6196 14.6852C16.6843 14.7499 16.7166 14.8294 16.7166 14.9238C16.7166 15.0182 16.6843 15.0978 16.6196 15.1625C16.5549 15.2271 16.4754 15.2595 16.381 15.2595H10.0009V21.3039H12.687V17.9456ZM27.2277 16.603C27.2277 17.158 27.031 17.6327 26.6368 18.0269C26.2426 18.4211 25.768 18.6178 25.2129 18.6178C24.6578 18.6178 24.1832 18.4211 23.789 18.0269C23.3948 17.6327 23.1981 17.158 23.1981 16.603V11.9012H20.512V16.603C20.512 17.901 20.9709 19.0094 21.8887 19.9272C22.8065 20.845 23.9149 21.3039 25.2129 21.3039C26.5109 21.3039 27.6193 20.845 28.5371 19.9272C29.4549 19.0094 29.9138 17.901 29.9138 16.603V11.9012H27.2277V16.603ZM42.632 28.864L35.9154 22.1474V33.4513H38.6016V28.6359L45.3182 35.3525V24.0486H42.632V28.864ZM59.2435 11.9012V15.2595H55.2139V11.9012H52.5278V21.3039H55.2139V17.9456H59.2435V21.3039H61.9296V11.9012H59.2435ZM53.7192 25.4253C52.8014 26.3431 52.3425 27.4515 52.3425 28.7495C52.3425 30.0476 52.8014 31.1559 53.7192 32.0737C54.637 32.9916 55.7453 33.4505 57.0434 33.4505H61.7443V27.406H59.0582V30.7643H57.0434C56.4883 30.7643 56.0137 30.5677 55.6195 30.1734C55.2253 29.7792 55.0286 29.3046 55.0286 28.7495C55.0286 28.1945 55.2253 27.7198 55.6195 27.3256C56.0137 26.9314 56.4883 26.7347 57.0434 26.7347H61.7443V24.0486H57.0434C55.7445 24.0486 54.637 24.5075 53.7192 25.4253ZM46.7045 14.5873C47.2595 14.5873 47.7342 14.784 48.1284 15.1782C48.4413 15.492 48.6301 15.8539 48.6922 16.2664H51.3923C51.3206 15.1109 50.8661 14.1153 50.0287 13.2779C49.1109 12.3601 48.0025 11.9012 46.7045 11.9012C45.4064 11.9012 44.2981 12.3601 43.3803 13.2779C42.4625 14.1957 42.0036 15.3041 42.0036 16.6021C42.0036 17.9002 42.4625 19.0085 43.3803 19.9263C44.2981 20.8441 45.4064 21.303 46.7045 21.303C48.0025 21.303 49.1109 20.8441 50.0287 19.9263C50.8661 19.0889 51.3206 18.0925 51.3923 16.9378H48.6922C48.6293 17.3495 48.4413 17.7122 48.1284 18.026C47.7342 18.4202 47.2595 18.6169 46.7045 18.6169C46.1494 18.6169 45.6748 18.4202 45.2806 18.026C44.8864 17.6318 44.6897 17.1572 44.6897 16.6021C44.6897 16.0471 44.8864 15.5724 45.2806 15.1782C45.6748 14.784 46.1494 14.5873 46.7045 14.5873Z" fill="url(#paint0_linear_3006_6836)"/>
<defs>
<linearGradient id="paint0_linear_3006_6836" x1="10" y1="22.6763" x2="61.9305" y2="22.6763" gradientUnits="userSpaceOnUse">
<stop stop-color="#BA872C"/>
<stop offset="0.06" stop-color="#C28F29"/>
<stop offset="0.17" stop-color="#DAA422"/>
<stop offset="0.24" stop-color="#EFB81C"/>
<stop offset="0.68" stop-color="#FEF38A"/>
<stop offset="0.84" stop-color="#EDCC66"/>
<stop offset="1" stop-color="#BA872C"/>
</linearGradient>
</defs>
</svg>
