<svg width="209" height="268" viewBox="0 0 209 268" fill="none" xmlns="http://www.w3.org/2000/svg">
<path d="M74.9363 167.657H83.0725V196.138H74.9363V167.657ZM44.16 167.657L33.9878 177.829V167.657H25.8516V196.138H33.9878V185.965L44.16 196.138H55.6349L41.3959 181.898L55.6349 167.657H44.16ZM118.72 130.862H110.584V145.448L90.2397 125.104V159.343H98.3759V144.757L118.72 165.102V130.862ZM33.9904 149.171H45.1794C47.7026 149.171 49.8578 148.276 51.6476 146.486C53.4374 144.696 54.3323 142.539 54.3323 140.018C54.3323 137.497 53.4374 135.34 51.6476 133.55C49.8578 131.76 47.6999 130.865 45.1794 130.865H25.8542V139.001H45.1794C45.4653 139.001 45.7036 139.099 45.9022 139.295C46.0981 139.491 46.1961 139.732 46.1961 140.018C46.1961 140.304 46.0981 140.545 45.9022 140.741C45.7063 140.937 45.4653 141.035 45.1794 141.035H25.8542V159.343H33.9904V149.171ZM78.034 145.104C78.034 146.785 77.4383 148.223 76.2442 149.417C75.0501 150.611 73.6125 151.207 71.9312 151.207C70.25 151.207 68.8123 150.611 67.6182 149.417C66.4241 148.223 65.8284 146.785 65.8284 145.104V130.862H57.6922V145.104C57.6922 149.036 59.0822 152.393 61.8622 155.173C64.6422 157.953 67.9995 159.343 71.9312 159.343C75.863 159.343 79.2202 157.953 82.0002 155.173C84.7802 152.393 86.1703 149.036 86.1703 145.104V130.862H78.034V145.104ZM124.694 182.243L104.349 161.898V196.138H112.485V181.552L132.83 201.896V167.657H124.694V182.243ZM175.009 130.862V141.035H162.804V130.862H154.668V159.343H162.804V149.171H175.009V159.343H183.146V130.862H175.009ZM158.276 171.827C155.496 174.607 154.106 177.964 154.106 181.896C154.106 185.828 155.496 189.185 158.276 191.965C161.056 194.745 164.414 196.135 168.345 196.135H182.584V177.826H174.448V187.999H168.345C166.664 187.999 165.226 187.403 164.032 186.209C162.838 185.015 162.242 183.577 162.242 181.896C162.242 180.215 162.838 178.777 164.032 177.583C165.226 176.389 166.664 175.793 168.345 175.793H182.584V167.657H168.345C164.411 167.657 161.056 169.047 158.276 171.827ZM137.029 138.999C138.71 138.999 140.148 139.594 141.342 140.788C142.29 141.739 142.862 142.835 143.05 144.085H151.228C151.011 140.585 149.634 137.569 147.098 135.032C144.318 132.252 140.961 130.862 137.029 130.862C133.097 130.862 129.74 132.252 126.96 135.032C124.18 137.812 122.79 141.17 122.79 145.101C122.79 149.033 124.18 152.39 126.96 155.17C129.74 157.95 133.097 159.34 137.029 159.34C140.961 159.34 144.318 157.95 147.098 155.17C149.634 152.634 151.011 149.616 151.228 146.118H143.05C142.859 147.365 142.29 148.464 141.342 149.414C140.148 150.609 138.71 151.204 137.029 151.204C135.348 151.204 133.91 150.609 132.716 149.414C131.522 148.22 130.926 146.783 130.926 145.101C130.926 143.42 131.522 141.983 132.716 140.788C133.91 139.594 135.348 138.999 137.029 138.999Z" fill="url(#paint0_linear_2957_1058)"/>
<path d="M102.525 54.9515L103.543 55.178L102.464 54.7595L101.505 55.178L102.525 54.9515Z" fill="url(#paint1_linear_2957_1058)"/>
<path d="M103.498 53.2922L102.521 53.6038L101.482 53.2922L98.4346 54.14H106.873L103.498 53.2922Z" fill="url(#paint2_linear_2957_1058)"/>
<path d="M100.089 51.8937C100.359 51.7687 100.324 51.3738 100.036 51.2977L98.5796 50.9101C98.2245 50.8159 97.8459 50.9173 97.5851 51.1764L96.7735 51.9879C96.6503 52.1111 96.7246 52.3213 96.8967 52.3412L98.297 52.5042C98.5452 52.5332 98.797 52.4933 99.0252 52.3865L100.089 51.8937Z" fill="url(#paint3_linear_2957_1058)"/>
<path d="M87.2902 20.8617L87.4659 21.6787L89.7322 34.1059C89.763 34.0661 89.8119 34.0444 89.8644 34.0588C90.1814 34.1476 90.5999 34.2599 91.0927 34.3722C93.0509 34.8197 94.6505 34.9375 96.6614 35.0117C98.3932 35.0751 100.886 35.1621 104.277 35.0117C105.194 34.9701 107.072 34.8722 109.462 34.6277C111.103 34.4592 112.545 34.2672 113.739 34.0878L115.67 20.8617C116.574 20.8056 117.291 20.0574 117.291 19.1389C117.291 18.2205 116.518 17.4107 115.563 17.4107C114.608 17.4107 113.835 18.1843 113.835 19.1389C113.835 19.8038 114.21 20.3798 114.759 20.6679L110.378 25.9141V20.6951L106.411 24.2783L102.804 17.898C103.723 17.5792 104.384 16.7097 104.384 15.6825C104.384 14.3872 102.038 11.9761 102.038 11.9761C102.038 11.9761 99.6921 14.3872 99.6921 15.6825C99.6921 16.6263 100.252 17.4397 101.056 17.8111L96.7266 24.3218L93.0999 21.1642L92.6723 25.2602L88.1652 20.686C88.7358 20.4034 89.1307 19.8183 89.1307 19.1371C89.1307 18.1824 88.3572 17.4089 87.4025 17.4089C86.4478 17.4089 85.6743 18.1824 85.6743 19.1371C85.6743 20.0918 86.3881 20.8019 87.2902 20.8599V20.8617Z" fill="url(#paint4_linear_2957_1058)"/>
<path d="M114.73 44.5062C114.905 44.5007 115.222 44.3866 115.797 42.97C116.442 41.3812 116.922 40.1947 116.65 38.6603C116.507 37.8596 116.061 36.4031 115.456 36.3995C114.967 36.3959 114.451 37.3415 114.175 38.7038L113.798 35.1821C113.878 36.8614 113.985 40.2327 113.775 43.5533C113.929 43.8739 114.289 44.5207 114.73 44.508V44.5062Z" fill="url(#paint5_linear_2957_1058)"/>
<path d="M70.4878 96.3979C70.4878 96.3979 70.486 96.3906 70.4842 96.3888C70.4824 96.3798 70.4788 96.3707 70.477 96.3598C70.1817 96.7711 69.8737 97.1913 69.5458 97.6261C67.9027 99.7891 65.6727 102.691 62.1221 105.648C60.1004 107.331 57.0298 109.546 52.8397 111.441C52.8397 111.441 49.3217 110.682 48.3833 108.89C48.3833 108.89 53.077 108.378 59.3051 103.343C65.535 98.3091 68.6926 93.6154 68.6926 93.6154C68.6926 93.6154 64.8521 86.9597 63.7434 86.7894C62.7869 86.6427 58.0968 86.7007 54.3542 88.1825C53.4701 88.5321 52.6441 89.0122 51.8814 89.5774L48.3851 92.1643C48.3851 92.1643 50.347 84.8257 60.9283 84.4851C61.1728 84.4815 61.4246 84.4851 61.6728 84.4851C62.805 83.4236 65.4789 81.7841 66.4535 78.8186L61.9101 78.5378C63.7163 77.9672 70.5567 74.864 70.8067 70.6612C70.6146 67.9095 71.5747 67.6541 71.5747 67.6541C71.87 78.6991 77.6923 64.5219 81.2394 62.1506C81.2394 62.1506 82.1995 61.6379 79.3825 60.6778C76.2141 59.7177 77.1108 59.4622 77.1108 59.4622C77.1108 59.4622 81.5582 59.3988 82.6469 59.7829C83.4168 60.0546 87.6251 57.571 92.9528 58.7014C96.7498 59.4169 99.2407 61.156 100.837 63.4458C101.04 63.3154 101.351 63.1143 101.878 62.7593C102.559 62.3009 102.889 62.0636 103.831 61.4151C104.761 60.7756 105.224 60.4568 105.335 60.3916C106.297 59.8282 107.112 59.5727 107.99 59.3028C109.3 58.9007 110.327 58.7449 111.094 58.6307C112.365 58.4423 113.512 58.272 115.061 58.3753C116.566 58.4749 117.318 58.5257 117.972 58.8554C118.459 59.1017 119.307 59.6452 120.021 59.5274C120.075 59.5184 120.242 59.5166 120.778 59.3916C120.947 59.3517 121.164 59.3101 121.461 59.272C122.112 59.1869 122.613 59.1615 122.997 59.1434C123.9 59.0999 124.651 59.1108 124.651 59.1108C124.651 59.1108 125.782 59.1977 125.463 59.6778C125.142 60.1579 124.023 60.6162 122.84 60.9676C121.655 61.3191 122.423 62.0238 122.423 62.0238C122.842 62.3788 123.514 62.9821 124.247 63.8154C125.418 65.1451 125.84 66.0345 127.158 67.8787C127.573 68.4584 128.22 69.3334 129.079 70.375C130.39 72.4873 132.151 72.8387 132.151 72.8387C132.064 72.1521 132.024 71.1811 132.247 70.0544C132.392 69.3261 132.609 68.712 132.823 68.2301C132.868 68.7537 133.247 72.8387 134.807 74.2789C135.075 74.5271 135.901 75.1792 136.535 75.6557C136.939 75.96 137.296 76.2154 137.783 76.4872C138.269 76.7589 138.656 76.9183 138.776 76.9672C139.461 77.2444 139.89 77.3078 140.28 77.4147C140.807 77.5596 141.533 77.8567 142.359 78.5396C142.359 78.5396 137.399 78.4708 137.015 78.7915C136.631 79.1121 138.327 81.2443 138.327 81.2443H138.839L141.613 84.3583C144.384 84.4489 150.129 85.0775 153.901 89.235C154.518 89.9144 155.116 90.7277 155.622 91.494C155.647 90.4216 155.589 89.0086 155.266 87.3873C155.015 86.1282 154.612 84.2044 153.346 82.1392C152.578 80.8856 151.754 80.0233 150.104 78.2987C149.227 77.3821 148.462 76.6575 147.928 76.1647C148.384 72.7898 147.941 70.1268 147.544 68.5272C147.216 67.1994 146.808 65.6124 145.667 63.8335C145.08 62.9205 143.45 60.6307 140.462 59.1398C137.761 57.792 135.287 57.763 132.74 57.7322C131.262 57.7141 130.028 57.83 129.157 57.946C126.195 55.4913 121.829 52.6381 116.057 51.1617C115.036 50.9009 114.047 50.7034 113.092 50.5548L113.498 46.852L112.601 50.4788L110.168 53.2522L106.712 56.9641L104.831 58.7557H99.7987L97.4944 57.2195L94.1666 54.0203L91.5434 49.9824C92.3894 50.948 93.0054 51.6744 93.3985 52.1961C93.5162 52.3537 93.7789 52.7088 94.0977 52.6852C94.3205 52.6689 94.4546 52.4841 94.4546 52.4841C95.0071 52.0476 95.5741 51.5784 96.1502 51.0766C96.6448 50.6454 97.0542 50.1436 97.5578 49.7958C97.7915 49.6346 98.4726 49.3411 98.7335 49.2306C98.7933 49.2052 98.8241 49.14 98.8059 49.0784L98.6828 48.6582C98.6791 48.6473 98.6773 48.6382 98.6773 48.6274C98.6266 47.9806 99.0034 47.4299 99.3367 47.0731C99.4291 46.9752 99.5885 47.0694 99.5487 47.198C99.4653 47.4625 99.4273 47.7723 99.5432 48.0676C99.661 48.3701 99.8657 48.4698 100.375 48.8357C101.788 49.8483 101.965 50.3338 102.487 50.2433C102.893 50.1726 103.148 49.8157 103.255 49.6672C103.626 49.1491 103.59 48.5477 103.576 48.2596C103.52 47.2288 103.471 45.7651 103.386 43.9427C103.386 43.921 103.378 43.8992 103.366 43.8793C103.212 43.6347 102.969 43.3503 102.616 43.267C102.549 43.2507 102.483 43.2507 102.418 43.2543L101.485 43.9246V46.977L100.953 44.8014L100.3 44.4608C100.271 44.468 100.243 44.4753 100.214 44.4807C98.056 44.8249 96.3658 44.1927 95.6394 43.7416C93.4311 42.3685 93.1086 41.6909 92.5452 40.8685C92.3369 40.566 92.5326 40.1511 92.8985 40.124C93.1612 40.104 93.4691 40.0823 93.7843 40.066C96.0977 39.9446 98.3603 40.0334 100.121 40.3214C100.344 40.3576 100.677 41.2489 101.594 41.537C101.809 41.604 102.742 41.8975 103.514 41.3449C103.895 41.0714 104.09 41.0026 104.25 40.8649C104.913 40.2924 105.71 40.2272 106.202 40.1928C106.831 40.1493 106.983 40.1874 108.059 40.1294C109.137 40.0696 109.51 40.0008 109.788 39.9374C110.429 39.7888 110.749 39.7145 111.068 39.4899C111.822 38.9591 112.297 37.8486 112.028 36.8179C111.974 36.6095 111.876 36.4356 111.807 36.2672C111.574 35.7038 111.499 35.5552 110.737 35.7726C110.532 35.8306 110.297 35.8596 110.045 35.9049C109.277 36.0443 107.539 36.3378 105.181 36.4809C102.978 36.6132 101.344 36.548 99.6773 36.4809C97.4799 36.3922 95.6756 36.2146 94.4926 36.0969C93.5832 36.0063 92.8133 35.9175 92.2391 35.8469C92.2065 35.8433 92.1739 35.8523 92.1485 35.8722C91.8134 36.1295 91.4565 36.4411 91.1014 36.8179C90.4058 37.5552 89.9294 38.316 89.6015 38.9736C89.5399 39.0968 89.3533 39.0443 89.3623 38.9066L89.558 36.2708L89.3098 38.4863C88.9421 37.1548 88.2863 36.3469 87.7319 36.3958C87.3678 36.4284 87.1178 36.8197 87.0073 36.9936C86.491 37.7997 86.607 38.7544 86.7936 39.6819C87.1106 41.2616 87.7392 44.3847 88.8841 44.4173C89.1105 44.4246 89.4294 44.3123 89.8225 43.7778L90.4203 47.1908L91.6141 50.1346C87.1903 50.4697 80.8553 51.7251 75.187 56.1072C74.399 56.7159 73.6761 57.3463 73.0113 57.984C72.0856 57.8536 70.7577 57.7322 69.1708 57.8137C67.1836 57.9152 63.9989 58.0764 61.1928 59.9042C56.1096 63.2158 55.548 69.8497 55.432 71.2101C55.2636 73.1938 55.481 74.8368 55.6875 75.9038C53.2962 77.7697 47.8652 82.5776 47.1116 89.8129C47.0065 90.8201 47.0011 91.7893 47.0681 92.715C46.8073 93.0574 46.4286 93.6063 46.0863 94.3363C44.887 96.9051 45.204 99.4975 45.3182 100.353C45.4921 101.642 45.7566 102.021 45.8308 103.552C45.8834 104.668 45.7566 104.747 45.8308 105.727C45.8997 106.633 45.9993 107.939 46.7692 109.269C47.0899 109.821 47.6533 110.794 48.7746 111.359C49.1768 111.562 50.1604 111.968 52.231 111.573C54.7926 111.084 55.0933 110.115 57.8197 109.099C60.4899 108.102 60.7109 108.841 63.1112 107.776C65.401 106.76 66.8231 105.367 67.3357 104.832C68.6871 103.421 69.3592 102.079 69.7252 101.334C70.7034 99.3398 70.7106 98.1768 70.707 97.8779C70.698 97.2548 70.5911 96.7421 70.4969 96.3943L70.4878 96.3979ZM55.6367 92.6444C58.0642 90.5466 60.4591 89.293 62.171 88.5448C61.2507 89.7604 59.8142 91.4705 57.7816 93.2186C55.3052 95.349 51.8615 96.9939 51.8615 96.9939C51.8615 96.9939 53.6839 94.3291 55.6367 92.6426V92.6444ZM92.7572 44.2796L93.0778 48.4535L93.6539 51.2052L92.3731 48.4535L92.7572 44.2796ZM90.5815 41.7543L91.605 46.6129L90.9003 44.5043L90.5797 41.7525L90.5815 41.7543Z" fill="url(#paint6_linear_2957_1058)"/>
<path d="M108.886 47.2994C108.996 47.14 108.909 47.2596 109.782 45.7959C110.05 45.3466 110.208 45.0857 110.199 44.7071C110.195 44.5876 110.184 44.131 109.911 43.9716C109.632 43.8086 109.371 44.1202 108.438 44.4191C107.826 44.6165 107.328 44.7687 106.773 44.6111C106.449 44.5187 106.38 44.3973 106.261 44.4517C105.938 44.6002 106.275 45.5785 106.42 47.3629C106.52 48.5856 106.447 49.1744 106.741 49.2831C106.971 49.3682 107.266 49.0983 107.733 48.6744C107.848 48.5712 108.275 48.1744 108.886 47.2976V47.2994Z" fill="url(#paint7_linear_2957_1058)"/>
<path d="M134.55 90.4017C136.972 88.3818 137.484 85.6409 137.66 84.0631C137.698 83.7225 137.607 83.3801 137.405 83.1048C135.146 80.0414 133.019 77.3549 132.28 77.7698C132.066 77.8893 132.142 78.0016 132.088 78.8223C132.062 79.219 131.602 82.0468 129.812 84.2913C129.263 84.9797 128.613 85.4743 127.316 86.467C126.66 86.9688 126.023 87.4072 125.416 87.7913C125.198 87.9289 125.079 88.1862 125.133 88.438C125.242 88.9434 125.631 89.6173 126.483 89.9434C127.811 90.4524 131.774 89.4959 131.774 89.4959C131.561 89.8582 130.09 90.5629 129.428 90.7767C128.95 90.9307 128.494 91.2875 128.278 91.4705C128.191 91.5448 128.061 91.8473 128.053 91.9596C128.037 92.2386 128.015 92.3292 128.202 92.5411C129.042 93.4976 132.548 92.0701 134.55 90.3999V90.4017Z" fill="url(#paint8_linear_2957_1058)"/>
<path d="M128.157 81.7297C128.719 80.8674 129.065 79.8819 129.157 78.8566C129.217 78.1972 129.257 77.5342 129.238 76.6755C129.22 73.9292 124.759 69.2518 124.759 69.2518C120.992 65.3044 119.108 63.3298 118.103 62.8516C115.069 60.982 106.716 60.2955 104.15 66.692C101.94 71.3948 101.734 80.6247 104.918 83.8438C106.967 85.9144 109.784 84.8111 110.551 84.6119C110.551 84.6119 107.777 81.8819 108.076 81.1989C108.076 81.1989 110.21 81.7967 110.935 81.6681C110.935 81.6681 111.234 78.5957 110.465 77.0595C112.82 80.2859 117.386 84.38 124.418 84.7387C125.931 84.7006 127.311 83.0286 128.159 81.7279L128.157 81.7297Z" fill="url(#paint9_linear_2957_1058)"/>
<path d="M119.302 109.164L116.657 118.445C116.561 118.809 117.009 119.066 117.273 118.8C117.913 118.153 119.206 116.369 119.764 114.664C120.407 112.698 120.376 109.561 119.94 109.023C119.751 108.791 119.378 108.878 119.302 109.166V109.164Z" fill="url(#paint10_linear_2957_1058)"/>
<path d="M122.452 103.876L123.729 100.228L122.452 103.876Z" fill="url(#paint11_linear_2957_1058)"/>
<path d="M134.358 98.5211C133.856 97.82 133.466 97.224 133.205 96.8146H132.693L128.405 93.1245L132.352 96.5592C132.868 98.1117 133.675 100.048 134.955 102.106C135.997 103.78 137.097 105.122 138.069 106.16C139.287 107.003 141.093 108.017 143.446 108.593C144.361 108.816 145.211 108.938 145.973 108.997C145.582 108.8 145.221 108.606 144.897 108.423C139.222 105.227 135.946 100.744 134.358 98.5247V98.5211Z" fill="url(#paint12_linear_2957_1058)"/>
<path d="M157.227 94.8527C157.118 94.5719 157.002 94.3038 156.881 94.0483C156.595 93.8744 155.872 93.1353 155.814 93.081C155.888 93.148 156.116 93.8708 156.116 93.8708C154.535 91.706 152.83 90.4089 151.721 89.6897C148.243 87.4326 144.81 87.0992 143.187 86.9597C141.729 86.8347 140.513 86.8891 139.689 86.9597C139.28 88.4851 138.486 90.5394 136.874 92.5067C136.45 93.023 136.017 93.4759 135.593 93.8726C137.669 96.2168 139.262 98.0555 140.287 99.2493C141.95 101.184 143.044 102.488 144.937 103.943C146.151 104.874 147.104 105.416 147.37 105.564C149.327 106.657 151.118 107.191 152.363 107.472C152.832 107.642 154.538 107.954 154.538 107.954C154.283 109.32 151.381 111.068 151.381 111.068C149.231 110.485 147.463 109.744 146.089 109.057C146.528 109.571 148.209 111.58 151.636 111.452C152.133 111.434 155.366 111.312 156.884 108.892C157.325 108.189 157.495 107.497 157.567 107.015L157.524 103.432C157.942 101.936 158.651 98.541 157.225 94.8563L157.227 94.8527ZM146.582 93.3165C146.242 92.9324 142.231 88.8365 142.231 88.8365C142.231 88.8365 146.839 91.61 147.564 92.3346C148.289 93.0592 151.745 96.3019 151.915 96.7294C152.086 97.157 146.923 93.7005 146.582 93.3165Z" fill="url(#paint13_linear_2957_1058)"/>
<path d="M94.8662 41.7545C94.7014 41.7491 94.6271 41.9592 94.7594 42.057C95.1615 42.3559 98.0491 42.932 98.5093 43.115C99.0491 43.3269 99.6451 42.6566 99.9349 42.269C100.016 42.1603 99.9404 42.0063 99.8045 42.0009L94.8662 41.7545Z" fill="url(#paint14_linear_2957_1058)"/>
<path d="M77.4607 89.7007C80.2705 89.2605 82.861 88.0685 82.7722 87.6844C82.7269 87.4888 82.0277 87.6699 80.5639 87.3638C79.2813 87.0957 78.3719 86.6555 78.0676 86.4997C76.9444 85.9272 76.2307 85.2678 75.6673 84.7388C74.2978 83.4544 73.5695 82.1954 73.363 81.8277C72.9011 80.9998 72.671 80.585 72.4989 79.9708C72.2851 79.2064 72.3232 78.7625 71.9554 78.4673C71.4536 78.0651 70.6511 78.3006 70.5153 78.3386C69.6059 78.6031 69.1657 79.3332 67.7635 81.603C67.586 81.8911 67.2472 82.4382 66.7889 83.1755C66.5063 83.632 66.4465 84.1936 66.6313 84.699C67.2146 86.3004 68.1602 88.1228 69.7001 89.8094C72.1909 92.5394 74.8159 93.36 75.9209 93.3455C76.151 93.3419 76.6818 93.3328 77.2144 93.0031C77.8158 92.7278 78.0368 92.322 78.1165 92.0629C78.1527 91.9434 78.064 91.8202 77.939 91.822C75.5894 91.8582 72.1475 89.6354 72.1475 89.6354C73.4373 89.8637 75.2923 90.0394 77.4589 89.6989L77.4607 89.7007Z" fill="url(#paint15_linear_2957_1058)"/>
<path d="M115.286 93.7857C114.336 93.1752 113.266 93.9234 111.702 94.1263C110.02 94.3455 108.699 93.8147 107.351 93.2731C104.594 92.1644 103.029 90.1463 102.232 89.092C101.866 88.6083 101.545 88.121 101.259 87.6265C98.0525 94.5738 90.6505 93.1861 84.0329 92.1608C78.7305 92.8147 84.1126 99.8707 86.6198 99.9178C84.0202 101.427 81.3772 98.9994 79.725 97.7621C76.8012 100.217 82.8862 106.782 83.7666 106.932C83.7992 106.921 83.83 106.912 83.8626 106.9C83.8481 106.93 83.8137 106.939 83.7666 106.932C79.9551 108.211 76.8483 101.923 76.3755 105.093C76.7142 105.862 77.0784 106.736 78.0403 109.318C78.7178 111.137 79.0566 112.046 79.1924 112.517C79.2885 112.852 79.6653 114.191 79.9605 116.1L80.216 119.428C80.216 119.428 83.3336 120.334 84.6434 120.584C84.647 120.584 84.6633 120.588 84.6941 120.593C84.7376 120.602 84.7865 120.611 84.8372 120.618C84.8445 120.618 84.8535 120.62 84.8626 120.622C85.705 120.733 87.2249 120.517 87.2249 120.517L87.3535 120.037C87.3535 120.037 87.2901 119.013 86.9694 117.445C86.6488 115.876 88.0582 112.805 88.0582 112.805C87.9948 113.167 87.9314 113.687 87.9622 114.309C87.9785 114.626 88.0582 115.812 88.8589 117.381C89.6197 118.874 90.3715 120.347 91.9621 120.901C93.2682 121.356 94.7283 121.05 95.1304 120.964C95.2844 120.932 95.6703 120.845 96.1232 120.676C96.7482 120.443 98.6304 119.74 99.7064 117.796C100.893 115.653 100.279 113.485 100.123 112.965C99.6158 111.278 98.5615 110.249 98.0742 109.829C97.8858 109.898 97.6231 109.99 97.3061 110.084C96.9184 110.2 96.4293 110.349 95.8333 110.436C95.2265 110.526 94.779 110.515 94.1685 110.499C93.5707 110.485 93.1577 110.474 92.6323 110.37C92.6323 110.37 92.0418 110.211 91.1958 109.794C89.0183 108.726 86.8408 105.613 87.0365 105.443C87.1216 105.369 87.5546 105.956 88.9241 106.883C89.8389 107.503 90.6016 108.019 91.7392 108.356C92.8932 108.697 93.6414 108.686 94.1685 108.677C94.5652 108.669 95.241 108.631 96.0562 108.452C96.4964 108.356 97.0706 108.226 97.7518 107.909C98.0561 107.767 98.7228 107.454 99.2553 106.948C100.612 105.659 100.554 103.613 100.536 102.916C100.522 102.401 100.44 101.561 100.052 100.572C99.9311 100.264 99.6648 100.032 99.3441 99.9541C98.7554 99.8128 97.7028 99.7204 96.3768 100.291C94.2971 101.188 91.0545 99.5446 91.0545 99.5446C94.9257 100.729 100.127 96.8146 100.857 95.8436C101.634 94.8093 101.735 92.9959 101.735 92.9959L101.688 119.14C102.07 119.439 102.705 119.859 103.576 120.133C104.007 120.269 104.92 120.542 106.072 120.358C107.049 120.2 107.703 119.791 108.28 119.43C108.88 119.055 109.732 118.51 110.36 117.477C110.654 116.995 110.86 116.577 111.032 115.686C111.485 113.34 111.478 112.168 111.384 111.814C111.228 111.224 111.003 111.106 110.679 110.954C110.384 110.812 110.088 110.87 109.974 110.89C108.976 111.066 107.933 111.028 106.934 110.858C106.031 110.704 104.663 110.294 102.551 108.235C103.143 108.813 104.032 108.78 104.55 108.823C105.139 108.872 105.619 108.829 106.454 108.774C107.532 108.706 108.32 108.423 108.503 108.39C109.367 108.24 109.672 107.941 110.072 107.718C110.715 107.361 111.076 106.869 111.32 106.534C111.733 105.968 111.918 105.467 112.088 104.997C112.279 104.476 112.445 104.021 112.472 103.398C112.483 103.16 112.518 102.367 112.248 101.862C111.617 100.68 109.458 100.979 106.904 100.646C104.695 100.358 102.679 98.5012 102.679 98.5012C103.087 98.4613 103.67 98.4106 104.375 98.3726C105.583 98.3074 106.199 98.503 106.838 98.599C107.697 98.7276 107.665 98.6606 108.63 98.82C109.163 98.9088 109.873 99.0247 110.764 98.9052C111.82 98.762 112.592 98.3545 113.259 98.0066C113.644 97.8056 114 97.5845 114.349 97.3382C115.976 96.1915 116.063 95.3455 116.056 95.0629C116.045 94.5556 115.711 94.0557 115.288 93.7821L115.286 93.7857Z" fill="url(#paint16_linear_2957_1058)"/>
<path d="M91.542 84.4199C92.8499 84.65 93.9332 84.6536 94.6778 84.6119C95.8208 84.5485 96.5364 84.4996 97.3009 84.0358C98.0744 83.5666 98.473 82.929 98.7737 82.4362C99.1324 81.8475 99.5255 81.0015 99.8624 78.661C99.9657 77.9436 100.163 76.3857 100.183 74.2444C100.199 72.4619 100.082 71.172 99.991 70.2119C99.8334 68.5326 99.7483 67.6776 99.415 66.8841C98.8679 65.5798 98.0454 64.7501 97.4947 64.1958C97.0817 63.7791 96.2864 62.9911 94.9984 62.3389C94.618 62.1469 93.3408 61.5328 91.542 61.3788C91.1416 61.3444 89.7866 61.2538 88.0855 61.6994C86.7975 62.0364 85.5965 62.6088 83.9896 63.7483C82.8302 64.5707 80.7325 66.2048 77.9101 69.7011C75.2688 72.9727 73.9482 74.6067 73.8142 76.5487C73.604 79.5885 75.4862 81.8783 75.9264 82.4145C78.1854 85.1662 81.3484 85.7731 82.7433 85.9144C82.919 85.9325 83.0204 85.7206 82.8936 85.5974C82.16 84.8855 81.6328 83.746 81.6328 83.746C86.8972 83.4906 92.6941 77.7009 92.6941 77.7009C93.2068 78.5324 92.3101 81.4127 92.3101 81.4127C93.0782 81.6681 94.8064 81.0921 94.8064 81.0921C94.6144 81.9888 91.542 84.4199 91.542 84.4199Z" fill="url(#paint17_linear_2957_1058)"/>
<path d="M75.6056 103.429C75.9227 104.07 76.3447 105.028 76.3737 105.093C76.1509 104.394 75.8013 103.689 75.3828 102.996C75.4571 103.133 75.5314 103.278 75.6074 103.429H75.6056Z" fill="url(#paint18_linear_2957_1058)"/>
<defs>
<linearGradient id="paint0_linear_2957_1058" x1="25.8516" y1="163.5" x2="183.148" y2="163.5" gradientUnits="userSpaceOnUse">
<stop stop-color="#BA872C"/>
<stop offset="0.06" stop-color="#C28F29"/>
<stop offset="0.17" stop-color="#DAA422"/>
<stop offset="0.24" stop-color="#EFB81C"/>
<stop offset="0.68" stop-color="#FEF38A"/>
<stop offset="0.84" stop-color="#EDCC66"/>
<stop offset="1" stop-color="#BA872C"/>
</linearGradient>
<linearGradient id="paint1_linear_2957_1058" x1="101.505" y1="54.9678" x2="103.543" y2="54.9678" gradientUnits="userSpaceOnUse">
<stop stop-color="#BA872C"/>
<stop offset="0.06" stop-color="#C28F29"/>
<stop offset="0.17" stop-color="#DAA422"/>
<stop offset="0.24" stop-color="#EFB81C"/>
<stop offset="0.68" stop-color="#FEF38A"/>
<stop offset="0.84" stop-color="#EDCC66"/>
<stop offset="1" stop-color="#BA872C"/>
</linearGradient>
<linearGradient id="paint2_linear_2957_1058" x1="98.4346" y1="53.7161" x2="106.873" y2="53.7161" gradientUnits="userSpaceOnUse">
<stop stop-color="#BA872C"/>
<stop offset="0.06" stop-color="#C28F29"/>
<stop offset="0.17" stop-color="#DAA422"/>
<stop offset="0.24" stop-color="#EFB81C"/>
<stop offset="0.68" stop-color="#FEF38A"/>
<stop offset="0.84" stop-color="#EDCC66"/>
<stop offset="1" stop-color="#BA872C"/>
</linearGradient>
<linearGradient id="paint3_linear_2957_1058" x1="96.7119" y1="51.6945" x2="100.272" y2="51.6945" gradientUnits="userSpaceOnUse">
<stop stop-color="#BA872C"/>
<stop offset="0.06" stop-color="#C28F29"/>
<stop offset="0.17" stop-color="#DAA422"/>
<stop offset="0.24" stop-color="#EFB81C"/>
<stop offset="0.68" stop-color="#FEF38A"/>
<stop offset="0.84" stop-color="#EDCC66"/>
<stop offset="1" stop-color="#BA872C"/>
</linearGradient>
<linearGradient id="paint4_linear_2957_1058" x1="85.6743" y1="23.5356" x2="117.291" y2="23.5356" gradientUnits="userSpaceOnUse">
<stop stop-color="#BA872C"/>
<stop offset="0.06" stop-color="#C28F29"/>
<stop offset="0.17" stop-color="#DAA422"/>
<stop offset="0.24" stop-color="#EFB81C"/>
<stop offset="0.68" stop-color="#FEF38A"/>
<stop offset="0.84" stop-color="#EDCC66"/>
<stop offset="1" stop-color="#BA872C"/>
</linearGradient>
<linearGradient id="paint5_linear_2957_1058" x1="113.777" y1="39.8432" x2="116.728" y2="39.8432" gradientUnits="userSpaceOnUse">
<stop stop-color="#BA872C"/>
<stop offset="0.06" stop-color="#C28F29"/>
<stop offset="0.17" stop-color="#DAA422"/>
<stop offset="0.24" stop-color="#EFB81C"/>
<stop offset="0.68" stop-color="#FEF38A"/>
<stop offset="0.84" stop-color="#EDCC66"/>
<stop offset="1" stop-color="#BA872C"/>
</linearGradient>
<linearGradient id="paint6_linear_2957_1058" x1="45.1859" y1="73.7119" x2="155.625" y2="73.7119" gradientUnits="userSpaceOnUse">
<stop stop-color="#BA872C"/>
<stop offset="0.06" stop-color="#C28F29"/>
<stop offset="0.17" stop-color="#DAA422"/>
<stop offset="0.24" stop-color="#EFB81C"/>
<stop offset="0.68" stop-color="#FEF38A"/>
<stop offset="0.84" stop-color="#EDCC66"/>
<stop offset="1" stop-color="#BA872C"/>
</linearGradient>
<linearGradient id="paint7_linear_2957_1058" x1="106.127" y1="46.6129" x2="110.197" y2="46.6129" gradientUnits="userSpaceOnUse">
<stop stop-color="#BA872C"/>
<stop offset="0.06" stop-color="#C28F29"/>
<stop offset="0.17" stop-color="#DAA422"/>
<stop offset="0.24" stop-color="#EFB81C"/>
<stop offset="0.68" stop-color="#FEF38A"/>
<stop offset="0.84" stop-color="#EDCC66"/>
<stop offset="1" stop-color="#BA872C"/>
</linearGradient>
<linearGradient id="paint8_linear_2957_1058" x1="125.12" y1="85.2895" x2="137.669" y2="85.2895" gradientUnits="userSpaceOnUse">
<stop stop-color="#BA872C"/>
<stop offset="0.06" stop-color="#C28F29"/>
<stop offset="0.17" stop-color="#DAA422"/>
<stop offset="0.24" stop-color="#EFB81C"/>
<stop offset="0.68" stop-color="#FEF38A"/>
<stop offset="0.84" stop-color="#EDCC66"/>
<stop offset="1" stop-color="#BA872C"/>
</linearGradient>
<linearGradient id="paint9_linear_2957_1058" x1="102.505" y1="73.3187" x2="129.242" y2="73.3187" gradientUnits="userSpaceOnUse">
<stop stop-color="#BA872C"/>
<stop offset="0.06" stop-color="#C28F29"/>
<stop offset="0.17" stop-color="#DAA422"/>
<stop offset="0.24" stop-color="#EFB81C"/>
<stop offset="0.68" stop-color="#FEF38A"/>
<stop offset="0.84" stop-color="#EDCC66"/>
<stop offset="1" stop-color="#BA872C"/>
</linearGradient>
<linearGradient id="paint10_linear_2957_1058" x1="116.645" y1="113.898" x2="120.259" y2="113.898" gradientUnits="userSpaceOnUse">
<stop stop-color="#BA872C"/>
<stop offset="0.06" stop-color="#C28F29"/>
<stop offset="0.17" stop-color="#DAA422"/>
<stop offset="0.24" stop-color="#EFB81C"/>
<stop offset="0.68" stop-color="#FEF38A"/>
<stop offset="0.84" stop-color="#EDCC66"/>
<stop offset="1" stop-color="#BA872C"/>
</linearGradient>
<linearGradient id="paint11_linear_2957_1058" x1="122.452" y1="102.052" x2="123.729" y2="102.052" gradientUnits="userSpaceOnUse">
<stop stop-color="#BA872C"/>
<stop offset="0.06" stop-color="#C28F29"/>
<stop offset="0.17" stop-color="#DAA422"/>
<stop offset="0.24" stop-color="#EFB81C"/>
<stop offset="0.68" stop-color="#FEF38A"/>
<stop offset="0.84" stop-color="#EDCC66"/>
<stop offset="1" stop-color="#BA872C"/>
</linearGradient>
<linearGradient id="paint12_linear_2957_1058" x1="128.405" y1="101.059" x2="145.973" y2="101.059" gradientUnits="userSpaceOnUse">
<stop stop-color="#BA872C"/>
<stop offset="0.06" stop-color="#C28F29"/>
<stop offset="0.17" stop-color="#DAA422"/>
<stop offset="0.24" stop-color="#EFB81C"/>
<stop offset="0.68" stop-color="#FEF38A"/>
<stop offset="0.84" stop-color="#EDCC66"/>
<stop offset="1" stop-color="#BA872C"/>
</linearGradient>
<linearGradient id="paint13_linear_2957_1058" x1="135.595" y1="99.1696" x2="158.075" y2="99.1696" gradientUnits="userSpaceOnUse">
<stop stop-color="#BA872C"/>
<stop offset="0.06" stop-color="#C28F29"/>
<stop offset="0.17" stop-color="#DAA422"/>
<stop offset="0.24" stop-color="#EFB81C"/>
<stop offset="0.68" stop-color="#FEF38A"/>
<stop offset="0.84" stop-color="#EDCC66"/>
<stop offset="1" stop-color="#BA872C"/>
</linearGradient>
<linearGradient id="paint14_linear_2957_1058" x1="94.6905" y1="42.4538" x2="99.9676" y2="42.4538" gradientUnits="userSpaceOnUse">
<stop stop-color="#BA872C"/>
<stop offset="0.06" stop-color="#C28F29"/>
<stop offset="0.17" stop-color="#DAA422"/>
<stop offset="0.24" stop-color="#EFB81C"/>
<stop offset="0.68" stop-color="#FEF38A"/>
<stop offset="0.84" stop-color="#EDCC66"/>
<stop offset="1" stop-color="#BA872C"/>
</linearGradient>
<linearGradient id="paint15_linear_2957_1058" x1="66.528" y1="85.7932" x2="82.7758" y2="85.7932" gradientUnits="userSpaceOnUse">
<stop stop-color="#BA872C"/>
<stop offset="0.06" stop-color="#C28F29"/>
<stop offset="0.17" stop-color="#DAA422"/>
<stop offset="0.24" stop-color="#EFB81C"/>
<stop offset="0.68" stop-color="#FEF38A"/>
<stop offset="0.84" stop-color="#EDCC66"/>
<stop offset="1" stop-color="#BA872C"/>
</linearGradient>
<linearGradient id="paint16_linear_2957_1058" x1="76.3737" y1="104.385" x2="116.054" y2="104.385" gradientUnits="userSpaceOnUse">
<stop stop-color="#BA872C"/>
<stop offset="0.06" stop-color="#C28F29"/>
<stop offset="0.17" stop-color="#DAA422"/>
<stop offset="0.24" stop-color="#EFB81C"/>
<stop offset="0.68" stop-color="#FEF38A"/>
<stop offset="0.84" stop-color="#EDCC66"/>
<stop offset="1" stop-color="#BA872C"/>
</linearGradient>
<linearGradient id="paint17_linear_2957_1058" x1="73.796" y1="73.6321" x2="100.183" y2="73.6321" gradientUnits="userSpaceOnUse">
<stop stop-color="#BA872C"/>
<stop offset="0.06" stop-color="#C28F29"/>
<stop offset="0.17" stop-color="#DAA422"/>
<stop offset="0.24" stop-color="#EFB81C"/>
<stop offset="0.68" stop-color="#FEF38A"/>
<stop offset="0.84" stop-color="#EDCC66"/>
<stop offset="1" stop-color="#BA872C"/>
</linearGradient>
<linearGradient id="paint18_linear_2957_1058" x1="75.381" y1="104.043" x2="76.3737" y2="104.043" gradientUnits="userSpaceOnUse">
<stop stop-color="#BA872C"/>
<stop offset="0.06" stop-color="#C28F29"/>
<stop offset="0.17" stop-color="#DAA422"/>
<stop offset="0.24" stop-color="#EFB81C"/>
<stop offset="0.68" stop-color="#FEF38A"/>
<stop offset="0.84" stop-color="#EDCC66"/>
<stop offset="1" stop-color="#BA872C"/>
</linearGradient>
</defs>
</svg>
