<svg width="162" height="54" viewBox="0 0 162 54" fill="none" xmlns="http://www.w3.org/2000/svg">
<path d="M30.3228 31.7896H35.349V49.384H30.3228V31.7896ZM11.3103 31.7896L5.02626 38.0737V31.7896H0V49.384H5.02626V43.1L11.3103 49.384H18.3991L9.60273 40.5877L18.3991 31.7896H11.3103ZM57.371 9.05943H52.3448V18.0701L39.7767 5.50195V26.6538H44.8029V17.6432L57.371 30.2113V9.05943ZM5.0279 20.3697H11.94C13.4988 20.3697 14.8302 19.8169 15.9359 18.7112C17.0415 17.6055 17.5944 16.2725 17.5944 14.7154C17.5944 13.1583 17.0415 11.8253 15.9359 10.7196C14.8302 9.6139 13.4971 9.06106 11.94 9.06106H0.00163597V14.0873H11.94C12.1167 14.0873 12.2639 14.1478 12.3866 14.2689C12.5076 14.3899 12.5681 14.5388 12.5681 14.7154C12.5681 14.8921 12.5076 15.0409 12.3866 15.1619C12.2655 15.283 12.1167 15.3435 11.94 15.3435H0.00163597V26.6538H5.0279V20.3697ZM32.2364 17.8574C32.2364 18.896 31.8684 19.7842 31.1308 20.5219C30.3931 21.2595 29.505 21.6275 28.4663 21.6275C27.4277 21.6275 26.5396 21.2595 25.8019 20.5219C25.0642 19.7842 24.6962 18.896 24.6962 17.8574V9.05943H19.67V17.8574C19.67 20.2863 20.5287 22.3603 22.2461 24.0777C23.9635 25.7951 26.0374 26.6538 28.4663 26.6538C30.8952 26.6538 32.9692 25.7951 34.6866 24.0777C36.404 22.3603 37.2627 20.2863 37.2627 17.8574V9.05943H32.2364V17.8574ZM61.061 40.8003L48.4929 28.2322V49.384H53.5191V40.3734L66.0872 52.9415V31.7896H61.061V40.8003ZM92.1443 9.05943V15.3435H84.6041V9.05943H79.5778V26.6538H84.6041V20.3697H92.1443V26.6538H97.1706V9.05943H92.1443ZM81.8072 34.3658C80.0898 36.0832 79.2311 38.1571 79.2311 40.586C79.2311 43.0149 80.0898 45.0889 81.8072 46.8063C83.5246 48.5237 85.5986 49.3824 88.0275 49.3824H96.8238V38.0721H91.7976V44.3561H88.0275C86.9888 44.3561 86.1007 43.9881 85.363 43.2504C84.6254 42.5128 84.2574 41.6246 84.2574 40.586C84.2574 39.5474 84.6254 38.6593 85.363 37.9216C86.1007 37.1839 86.9888 36.8159 88.0275 36.8159H96.8238V31.7896H88.0275C85.5969 31.7896 83.5246 32.6484 81.8072 34.3658ZM68.6813 14.0857C69.72 14.0857 70.6081 14.4537 71.3458 15.1914C71.9313 15.7786 72.2846 16.4557 72.4007 17.2277H77.4532C77.319 15.0654 76.4685 13.2025 74.9016 11.6355C73.1842 9.91813 71.1102 9.05943 68.6813 9.05943C66.2524 9.05943 64.1785 9.91813 62.4611 11.6355C60.7437 13.3529 59.885 15.4269 59.885 17.8558C59.885 20.2847 60.7437 22.3587 62.4611 24.0761C64.1785 25.7935 66.2524 26.6522 68.6813 26.6522C71.1102 26.6522 73.1842 25.7935 74.9016 24.0761C76.4685 22.5091 77.319 20.6445 77.4532 18.4839H72.4007C72.283 19.2543 71.9313 19.933 71.3458 20.5202C70.6081 21.2579 69.72 21.6259 68.6813 21.6259C67.6427 21.6259 66.7546 21.2579 66.0169 20.5202C65.2792 19.7826 64.9112 18.8944 64.9112 17.8558C64.9112 16.8172 65.2792 15.929 66.0169 15.1914C66.7546 14.4537 67.6427 14.0857 68.6813 14.0857Z" fill="url(#paint0_linear_3011_8379)"/>
<path d="M134.739 21.0972L135.238 21.2084L134.708 21.0029L134.238 21.2084L134.739 21.0972Z" fill="url(#paint1_linear_3011_8379)"/>
<path d="M135.216 20.2827L134.737 20.4357L134.226 20.2827L132.731 20.6989H136.873L135.216 20.2827Z" fill="url(#paint2_linear_3011_8379)"/>
<path d="M133.542 19.5966C133.675 19.5352 133.658 19.3413 133.517 19.304L132.802 19.1136C132.627 19.0674 132.441 19.1172 132.313 19.2444L131.915 19.6428C131.855 19.7033 131.891 19.8064 131.975 19.8162L132.663 19.8963C132.785 19.9105 132.908 19.8909 133.02 19.8385L133.542 19.5966Z" fill="url(#paint3_linear_3011_8379)"/>
<path d="M127.259 4.36216L127.346 4.76325L128.458 10.8641C128.473 10.8445 128.497 10.8338 128.523 10.8409C128.679 10.8845 128.884 10.9396 129.126 10.9948C130.087 11.2144 130.873 11.2723 131.86 11.3087C132.71 11.3398 133.934 11.3825 135.599 11.3087C136.049 11.2883 136.971 11.2402 138.144 11.1202C138.95 11.0375 139.657 10.9432 140.244 10.8552L141.192 4.36216C141.635 4.33459 141.988 3.9673 141.988 3.51641C141.988 3.06552 141.608 2.66799 141.139 2.66799C140.67 2.66799 140.291 3.04773 140.291 3.51641C140.291 3.84279 140.475 4.1256 140.744 4.267L138.594 6.8425V4.28034L136.646 6.03944L134.876 2.90722C135.326 2.7507 135.651 2.32382 135.651 1.81957C135.651 1.1837 134.499 0 134.499 0C134.499 0 133.348 1.1837 133.348 1.81957C133.348 2.28291 133.623 2.68222 134.017 2.86453L131.892 6.06078L130.111 4.51068L129.902 6.52146L127.689 4.2759C127.969 4.13716 128.163 3.84991 128.163 3.51552C128.163 3.04684 127.783 2.6671 127.314 2.6671C126.846 2.6671 126.466 3.04684 126.466 3.51552C126.466 3.9842 126.816 4.33281 127.259 4.36127V4.36216Z" fill="url(#paint4_linear_3011_8379)"/>
<path d="M140.73 15.97C140.816 15.9673 140.972 15.9113 141.254 15.2158C141.57 14.4359 141.806 13.8534 141.673 13.1001C141.602 12.707 141.384 11.992 141.087 11.9902C140.846 11.9884 140.593 12.4527 140.458 13.1214L140.273 11.3926C140.312 12.217 140.364 13.872 140.261 15.5022C140.337 15.6596 140.514 15.9771 140.73 15.9708V15.97Z" fill="url(#paint5_linear_3011_8379)"/>
<path d="M119.011 41.4445C119.011 41.4445 119.01 41.4409 119.009 41.4401C119.008 41.4356 119.006 41.4312 119.005 41.4258C118.86 41.6277 118.709 41.834 118.548 42.0475C117.742 43.1093 116.647 44.534 114.904 45.9854C113.911 46.8116 112.404 47.8993 110.347 48.8295C110.347 48.8295 108.62 48.4569 108.159 47.5773C108.159 47.5773 110.463 47.3256 113.521 44.8542C116.579 42.3827 118.129 40.0785 118.129 40.0785C118.129 40.0785 116.244 36.8111 115.7 36.7275C115.23 36.6555 112.928 36.6839 111.09 37.4114C110.656 37.583 110.251 37.8187 109.876 38.0962L108.16 39.3661C108.16 39.3661 109.123 35.7635 114.318 35.5963C114.438 35.5945 114.561 35.5963 114.683 35.5963C115.239 35.0751 116.552 34.2703 117.03 32.8144L114.8 32.6766C115.686 32.3965 119.045 30.873 119.167 28.8098C119.073 27.4589 119.544 27.3335 119.544 27.3335C119.689 32.7558 122.548 25.7959 124.289 24.6317C124.289 24.6317 124.76 24.38 123.377 23.9087C121.822 23.4374 122.262 23.312 122.262 23.312C122.262 23.312 124.445 23.2808 124.98 23.4694C125.358 23.6028 127.424 22.3835 130.039 22.9384C131.903 23.2897 133.126 24.1435 133.91 25.2676C134.009 25.2036 134.162 25.1048 134.421 24.9305C134.755 24.7055 134.917 24.589 135.38 24.2707C135.836 23.9567 136.064 23.8002 136.118 23.7682C136.59 23.4916 136.99 23.3662 137.422 23.2337C138.065 23.0363 138.569 22.9598 138.945 22.9038C139.569 22.8113 140.132 22.7277 140.893 22.7784C141.632 22.8273 142.001 22.8522 142.322 23.014C142.561 23.135 142.977 23.4018 143.328 23.344C143.354 23.3395 143.436 23.3386 143.699 23.2773C143.782 23.2577 143.889 23.2373 144.035 23.2186C144.354 23.1768 144.6 23.1643 144.789 23.1554C145.232 23.1341 145.601 23.1394 145.601 23.1394C145.601 23.1394 146.156 23.1821 145.999 23.4178C145.842 23.6535 145.292 23.8785 144.712 24.051C144.13 24.2235 144.507 24.5695 144.507 24.5695C144.712 24.7438 145.042 25.0399 145.403 25.449C145.977 26.1018 146.184 26.5384 146.832 27.4438C147.035 27.7284 147.353 28.1579 147.774 28.6693C148.418 29.7062 149.283 29.8788 149.283 29.8788C149.24 29.5417 149.22 29.065 149.33 28.5119C149.401 28.1544 149.508 27.8529 149.613 27.6163C149.635 27.8733 149.821 29.8788 150.586 30.5858C150.718 30.7076 151.124 31.0278 151.435 31.2617C151.633 31.4111 151.808 31.5365 152.048 31.6699C152.286 31.8033 152.476 31.8815 152.535 31.9056C152.871 32.0416 153.082 32.0727 153.273 32.1252C153.532 32.1964 153.888 32.3422 154.294 32.6775C154.294 32.6775 151.859 32.6437 151.671 32.8011C151.482 32.9585 152.314 34.0053 152.314 34.0053H152.566L153.928 35.534C155.288 35.5785 158.108 35.8871 159.96 37.9281C160.263 38.2616 160.557 38.6609 160.805 39.0371C160.817 38.5106 160.789 37.8169 160.631 37.021C160.507 36.4029 160.309 35.4584 159.688 34.4446C159.311 33.8292 158.906 33.4059 158.096 32.5592C157.665 32.1092 157.29 31.7535 157.028 31.5116C157.252 29.8548 157.034 28.5474 156.839 27.7622C156.678 27.1103 156.478 26.3312 155.918 25.4579C155.63 25.0097 154.829 23.8856 153.363 23.1537C152.037 22.492 150.822 22.4778 149.572 22.4626C148.846 22.4538 148.24 22.5107 147.813 22.5676C146.359 21.3625 144.215 19.9619 141.382 19.237C140.88 19.109 140.395 19.012 139.926 18.9391L140.125 17.1213L139.685 18.9018L138.491 20.2633L136.794 22.0856L135.871 22.9651H133.4L132.269 22.211L130.635 20.6404L129.347 18.6581C129.763 19.1321 130.065 19.4887 130.258 19.7449C130.316 19.8222 130.445 19.9965 130.601 19.985C130.711 19.977 130.777 19.8863 130.777 19.8863C131.048 19.6719 131.326 19.4416 131.609 19.1953C131.852 18.9836 132.053 18.7372 132.3 18.5665C132.415 18.4873 132.749 18.3433 132.877 18.289C132.907 18.2766 132.922 18.2446 132.913 18.2143L132.852 18.008C132.851 18.0027 132.85 17.9982 132.85 17.9929C132.825 17.6754 133.01 17.405 133.173 17.2298C133.219 17.1818 133.297 17.2281 133.277 17.2912C133.236 17.421 133.218 17.5731 133.275 17.7181C133.333 17.8666 133.433 17.9155 133.683 18.0951C134.377 18.5923 134.464 18.8306 134.72 18.7862C134.919 18.7515 135.044 18.5763 135.097 18.5034C135.279 18.249 135.261 17.9537 135.254 17.8123C135.227 17.3063 135.203 16.5877 135.161 15.6931C135.161 15.6824 135.157 15.6717 135.151 15.6619C135.076 15.5419 134.956 15.4023 134.783 15.3613C134.75 15.3533 134.718 15.3533 134.686 15.3551L134.228 15.6842V17.1827L133.967 16.1146L133.646 15.9474C133.632 15.951 133.618 15.9545 133.604 15.9572C132.545 16.1262 131.715 15.8158 131.358 15.5944C130.274 14.9202 130.116 14.5876 129.839 14.1839C129.737 14.0354 129.833 13.8317 130.013 13.8184C130.142 13.8086 130.293 13.7979 130.448 13.7899C131.583 13.7303 132.694 13.7739 133.558 13.9153C133.668 13.9331 133.831 14.3706 134.281 14.512C134.387 14.5449 134.845 14.689 135.224 14.4178C135.411 14.2835 135.507 14.2497 135.585 14.1821C135.911 13.9011 136.302 13.8691 136.544 13.8522C136.852 13.8308 136.927 13.8495 137.455 13.821C137.985 13.7917 138.168 13.7579 138.304 13.7268C138.619 13.6538 138.776 13.6174 138.933 13.5071C139.303 13.2465 139.536 12.7014 139.404 12.1953C139.377 12.0931 139.329 12.0077 139.295 11.925C139.181 11.6484 139.144 11.5755 138.77 11.6822C138.669 11.7106 138.554 11.7249 138.43 11.7471C138.053 11.8156 137.2 11.9597 136.042 12.0299C134.961 12.0948 134.159 12.0628 133.341 12.0299C132.262 11.9863 131.376 11.8992 130.795 11.8414C130.349 11.7969 129.971 11.7533 129.689 11.7187C129.673 11.7169 129.657 11.7213 129.644 11.7311C129.48 11.8574 129.305 12.0104 129.13 12.1953C128.789 12.5573 128.555 12.9308 128.394 13.2536C128.364 13.3141 128.272 13.2883 128.277 13.2207L128.373 11.9268L128.251 13.0144C128.07 12.3607 127.748 11.9641 127.476 11.9881C127.298 12.0041 127.175 12.1962 127.121 12.2816C126.867 12.6774 126.924 13.146 127.016 13.6014C127.171 14.3769 127.48 15.9101 128.042 15.9261C128.153 15.9296 128.31 15.8745 128.503 15.6121L128.796 17.2876L129.382 18.7328C127.21 18.8973 124.1 19.5136 121.318 21.6649C120.931 21.9637 120.576 22.2732 120.25 22.5863C119.795 22.5222 119.143 22.4626 118.364 22.5027C117.389 22.5525 115.825 22.6316 114.448 23.529C111.952 25.1546 111.676 28.4114 111.62 29.0793C111.537 30.0531 111.644 30.8597 111.745 31.3835C110.571 32.2995 107.905 34.6598 107.535 38.2118C107.483 38.7063 107.481 39.182 107.514 39.6365C107.385 39.8046 107.2 40.074 107.031 40.4324C106.443 41.6935 106.598 42.9661 106.654 43.3859C106.74 44.0191 106.87 44.205 106.906 44.9565C106.932 45.5043 106.87 45.5434 106.906 46.0246C106.94 46.4692 106.989 47.1104 107.367 47.7632C107.524 48.0344 107.801 48.512 108.351 48.7895C108.549 48.8891 109.032 49.0883 110.048 48.8944C111.306 48.6543 111.453 48.1785 112.792 47.6796C114.103 47.1905 114.211 47.5533 115.389 47.0304C116.514 46.5315 117.212 45.8476 117.463 45.5852C118.127 44.8924 118.457 44.2334 118.636 43.8679C119.117 42.8888 119.12 42.3178 119.118 42.1711C119.114 41.8652 119.061 41.6135 119.015 41.4427L119.011 41.4445ZM111.72 39.6018C112.912 38.572 114.087 37.9566 114.928 37.5893C114.476 38.186 113.771 39.0255 112.773 39.8837C111.557 40.9296 109.867 41.7371 109.867 41.7371C109.867 41.7371 110.761 40.4289 111.72 39.6009V39.6018ZM129.943 15.8585L130.101 17.9075L130.384 19.2584L129.755 17.9075L129.943 15.8585ZM128.875 14.6188L129.378 17.0039L129.032 15.9688L128.874 14.6179L128.875 14.6188Z" fill="url(#paint6_linear_3011_8379)"/>
<path d="M137.861 17.3408C137.915 17.2625 137.873 17.3212 138.301 16.6026C138.433 16.3821 138.51 16.254 138.506 16.0682C138.504 16.0095 138.499 15.7853 138.364 15.7071C138.227 15.627 138.099 15.78 137.641 15.9268C137.341 16.0237 137.096 16.0984 136.824 16.021C136.665 15.9757 136.631 15.9161 136.572 15.9428C136.414 16.0157 136.579 16.4959 136.651 17.3719C136.7 17.9722 136.664 18.2612 136.808 18.3146C136.921 18.3564 137.066 18.2239 137.295 18.0158C137.351 17.9651 137.561 17.7703 137.861 17.3399V17.3408Z" fill="url(#paint7_linear_3011_8379)"/>
<path d="M150.46 38.501C151.649 37.5094 151.901 36.1638 151.987 35.3892C152.006 35.222 151.961 35.0539 151.862 34.9187C150.753 33.4149 149.709 32.096 149.346 32.2997C149.241 32.3584 149.278 32.4135 149.252 32.8164C149.239 33.0111 149.013 34.3994 148.135 35.5012C147.865 35.8392 147.546 36.082 146.909 36.5693C146.587 36.8157 146.274 37.0309 145.976 37.2194C145.869 37.287 145.811 37.4133 145.837 37.5369C145.891 37.785 146.082 38.1159 146.5 38.276C147.152 38.5259 149.098 38.0563 149.098 38.0563C148.993 38.2342 148.271 38.5801 147.946 38.685C147.711 38.7606 147.487 38.9358 147.381 39.0257C147.339 39.0621 147.275 39.2106 147.271 39.2658C147.263 39.4027 147.252 39.4472 147.344 39.5513C147.757 40.0208 149.477 39.32 150.46 38.5001V38.501Z" fill="url(#paint8_linear_3011_8379)"/>
<path d="M147.322 34.2433C147.597 33.82 147.767 33.3362 147.813 32.8329C147.842 32.5092 147.862 32.1837 147.853 31.7621C147.844 30.4139 145.653 28.1176 145.653 28.1176C143.804 26.1798 142.88 25.2104 142.386 24.9756C140.896 24.0579 136.796 23.7208 135.536 26.861C134.451 29.1697 134.35 33.7009 135.913 35.2812C136.919 36.2977 138.302 35.7561 138.678 35.6583C138.678 35.6583 137.317 34.318 137.464 33.9828C137.464 33.9828 138.511 34.2762 138.867 34.2131C138.867 34.2131 139.014 32.7048 138.637 31.9507C139.793 33.5345 142.034 35.5444 145.486 35.7205C146.229 35.7018 146.906 34.881 147.323 34.2425L147.322 34.2433Z" fill="url(#paint9_linear_3011_8379)"/>
<path d="M142.975 47.7112L141.676 52.2673C141.629 52.446 141.849 52.5723 141.979 52.4416C142.292 52.1241 142.927 51.2481 143.201 50.4112C143.517 49.4463 143.502 47.906 143.288 47.6419C143.195 47.528 143.012 47.5707 142.975 47.7121V47.7112Z" fill="url(#paint10_linear_3011_8379)"/>
<path d="M144.521 45.1158L145.148 43.3247L144.521 45.1158Z" fill="url(#paint11_linear_3011_8379)"/>
<path d="M150.366 42.4872C150.12 42.143 149.928 41.8504 149.8 41.6495H149.549L147.444 39.8379L149.381 41.5241C149.635 42.2862 150.031 43.2369 150.659 44.2472C151.171 45.0689 151.711 45.7279 152.188 46.2375C152.786 46.651 153.672 47.1491 154.828 47.4319C155.277 47.5413 155.694 47.6008 156.068 47.6302C155.876 47.5333 155.699 47.4381 155.54 47.3483C152.754 45.7795 151.146 43.5784 150.366 42.489V42.4872Z" fill="url(#paint12_linear_3011_8379)"/>
<path d="M161.593 40.6859C161.539 40.5481 161.483 40.4164 161.423 40.291C161.282 40.2057 160.928 39.8428 160.899 39.8161C160.936 39.8491 161.048 40.2039 161.048 40.2039C160.271 39.1411 159.434 38.5044 158.89 38.1513C157.183 37.0432 155.497 36.8796 154.7 36.8111C153.985 36.7497 153.388 36.7764 152.983 36.8111C152.782 37.5599 152.393 38.5684 151.601 39.5342C151.393 39.7877 151.181 40.01 150.972 40.2048C151.992 41.3556 152.773 42.2582 153.277 42.8443C154.093 43.7941 154.63 44.4344 155.56 45.1486C156.155 45.6057 156.623 45.8716 156.754 45.9445C157.714 46.4808 158.594 46.7431 159.205 46.881C159.435 46.9646 160.273 47.1175 160.273 47.1175C160.148 47.7881 158.723 48.6463 158.723 48.6463C157.667 48.3599 156.799 47.9962 156.125 47.6591C156.34 47.9117 157.166 48.898 158.848 48.8348C159.092 48.8259 160.679 48.7664 161.425 47.5782C161.641 47.2332 161.724 46.8934 161.76 46.6569L161.739 44.8978C161.944 44.1632 162.292 42.4966 161.592 40.6877L161.593 40.6859ZM156.367 39.9318C156.2 39.7432 154.231 37.7324 154.231 37.7324C154.231 37.7324 156.493 39.094 156.849 39.4497C157.205 39.8055 158.902 41.3974 158.985 41.6073C159.069 41.8171 156.534 40.1203 156.367 39.9318Z" fill="url(#paint13_linear_3011_8379)"/>
<path d="M130.978 14.6187C130.897 14.616 130.861 14.7192 130.926 14.7672C131.123 14.914 132.541 15.1968 132.767 15.2866C133.032 15.3906 133.324 15.0616 133.467 14.8713C133.507 14.8179 133.469 14.7423 133.403 14.7397L130.978 14.6187Z" fill="url(#paint14_linear_3011_8379)"/>
<path d="M122.434 38.1568C123.813 37.9407 125.085 37.3555 125.041 37.167C125.019 37.0709 124.676 37.1598 123.957 37.0095C123.328 36.8779 122.881 36.6618 122.732 36.5853C122.18 36.3043 121.83 35.9806 121.553 35.7209C120.881 35.0904 120.524 34.4723 120.422 34.2918C120.195 33.8853 120.082 33.6817 119.998 33.3802C119.893 33.0049 119.912 32.787 119.731 32.642C119.485 32.4446 119.091 32.5602 119.024 32.5789C118.578 32.7087 118.362 33.0671 117.673 34.1815C117.586 34.3229 117.42 34.5915 117.195 34.9534C117.056 35.1775 117.027 35.4532 117.117 35.7013C117.404 36.4875 117.868 37.3822 118.624 38.2101C119.847 39.5504 121.135 39.9532 121.678 39.9461C121.791 39.9443 122.051 39.9399 122.313 39.778C122.608 39.6429 122.717 39.4436 122.756 39.3165C122.774 39.2578 122.73 39.1973 122.669 39.1982C121.515 39.216 119.825 38.1248 119.825 38.1248C120.459 38.2368 121.369 38.3231 122.433 38.1559L122.434 38.1568Z" fill="url(#paint15_linear_3011_8379)"/>
<path d="M141.003 40.1624C140.537 39.8627 140.011 40.23 139.244 40.3296C138.418 40.4372 137.769 40.1766 137.108 39.9107C135.754 39.3664 134.986 38.3757 134.594 37.8581C134.415 37.6207 134.257 37.3815 134.117 37.1387C132.543 40.5493 128.909 39.868 125.66 39.3647C123.057 39.6857 125.699 43.1497 126.93 43.1728C125.654 43.9136 124.356 42.7219 123.545 42.1145C122.11 43.3195 125.097 46.5424 125.529 46.6163C125.545 46.6109 125.561 46.6065 125.577 46.6002C125.569 46.6154 125.553 46.6198 125.529 46.6163C123.658 47.2441 122.133 44.1573 121.901 45.7136C122.067 46.0907 122.246 46.5202 122.718 47.7875C123.051 48.6804 123.217 49.1268 123.284 49.3581C123.331 49.5226 123.516 50.1798 123.661 51.1172L123.786 52.7509C123.786 52.7509 125.317 53.1955 125.96 53.3182C125.962 53.3182 125.97 53.32 125.985 53.3227C126.006 53.3271 126.03 53.3316 126.055 53.3351C126.059 53.3351 126.063 53.336 126.068 53.3369C126.481 53.3912 127.227 53.2853 127.227 53.2853L127.29 53.0497C127.29 53.0497 127.259 52.5472 127.102 51.777C126.944 51.0069 127.636 49.4995 127.636 49.4995C127.605 49.6773 127.574 49.9326 127.589 50.2376C127.597 50.3932 127.636 50.9758 128.029 51.7459C128.403 52.4787 128.772 53.2017 129.553 53.4739C130.194 53.6971 130.911 53.5468 131.108 53.505C131.184 53.489 131.373 53.4463 131.596 53.3636C131.902 53.2489 132.826 52.9038 133.355 51.9496C133.937 50.8975 133.636 49.833 133.559 49.5777C133.31 48.7498 132.793 48.2446 132.553 48.0383C132.461 48.0721 132.332 48.1174 132.176 48.1637C131.986 48.2206 131.746 48.2935 131.453 48.3362C131.155 48.3807 130.936 48.3754 130.636 48.3673C130.343 48.3602 130.14 48.3549 129.882 48.3042C129.882 48.3042 129.592 48.2259 129.177 48.0214C128.108 47.4967 127.039 45.9688 127.135 45.8852C127.177 45.8488 127.389 46.1369 128.061 46.5922C128.511 46.8964 128.885 47.1499 129.443 47.3153C130.01 47.4825 130.377 47.4771 130.636 47.4727C130.831 47.4691 131.162 47.4504 131.563 47.3624C131.779 47.3153 132.061 47.2512 132.395 47.0956C132.544 47.0262 132.872 46.8724 133.133 46.6243C133.799 45.9911 133.771 44.987 133.762 44.6446C133.755 44.392 133.715 43.9794 133.525 43.4938C133.465 43.3426 133.334 43.2288 133.177 43.1906C132.888 43.1212 132.371 43.0758 131.72 43.356C130.699 43.7962 129.107 42.9896 129.107 42.9896C131.008 43.5712 133.561 41.6494 133.919 41.1727C134.301 40.6649 134.351 39.7746 134.351 39.7746L134.328 52.6095C134.515 52.7562 134.827 52.9625 135.254 53.0968C135.466 53.1635 135.914 53.2978 136.48 53.2071C136.959 53.1297 137.28 52.9287 137.564 52.7517C137.858 52.5677 138.276 52.3 138.585 51.793C138.729 51.5565 138.83 51.351 138.915 50.9135C139.137 49.7618 139.134 49.1864 139.087 49.013C139.011 48.7231 138.901 48.6653 138.741 48.5906C138.596 48.5212 138.451 48.5497 138.395 48.5594C137.905 48.6457 137.393 48.627 136.903 48.5434C136.459 48.4678 135.788 48.2669 134.751 47.2557C135.042 47.5394 135.478 47.5234 135.733 47.5447C136.022 47.5687 136.257 47.5474 136.667 47.5207C137.197 47.4869 137.583 47.3482 137.673 47.3322C138.097 47.2584 138.247 47.1116 138.443 47.0022C138.759 46.827 138.936 46.5851 139.056 46.4206C139.259 46.1431 139.35 45.8968 139.433 45.6665C139.527 45.4103 139.608 45.1871 139.622 44.8812C139.627 44.7647 139.644 44.3751 139.512 44.127C139.202 43.5472 138.142 43.6939 136.888 43.5303C135.804 43.3889 134.814 42.4773 134.814 42.4773C135.014 42.4578 135.301 42.4329 135.646 42.4142C136.24 42.3822 136.542 42.4782 136.856 42.5253C137.278 42.5885 137.262 42.5556 137.736 42.6338C137.997 42.6774 138.346 42.7343 138.783 42.6756C139.302 42.6054 139.68 42.4053 140.008 42.2345C140.197 42.1358 140.371 42.0273 140.543 41.9064C141.342 41.3434 141.384 40.9281 141.381 40.7894C141.376 40.5404 141.212 40.2949 141.004 40.1606L141.003 40.1624Z" fill="url(#paint16_linear_3011_8379)"/>
<path d="M129.347 35.5641C129.989 35.677 130.521 35.6788 130.886 35.6584C131.447 35.6272 131.798 35.6032 132.174 35.3756C132.554 35.1452 132.749 34.8322 132.897 34.5903C133.073 34.3012 133.266 33.8859 133.431 32.7369C133.482 32.3847 133.579 31.6199 133.589 30.5687C133.597 29.6936 133.539 29.0604 133.494 28.5891C133.417 27.7647 133.375 27.3449 133.212 26.9554C132.943 26.3151 132.539 25.9078 132.269 25.6356C132.066 25.4311 131.676 25.0442 131.043 24.7241C130.857 24.6298 130.23 24.3283 129.347 24.2527C129.15 24.2358 128.485 24.1913 127.65 24.4101C127.017 24.5755 126.428 24.8566 125.639 25.416C125.07 25.8197 124.04 26.6219 122.654 28.3383C121.358 29.9444 120.709 30.7466 120.644 31.7C120.54 33.1923 121.464 34.3164 121.681 34.5796C122.79 35.9305 124.342 36.2284 125.027 36.2978C125.113 36.3067 125.163 36.2026 125.101 36.1422C124.741 35.7927 124.482 35.2333 124.482 35.2333C127.066 35.1079 129.912 32.2656 129.912 32.2656C130.164 32.6738 129.724 34.0878 129.724 34.0878C130.101 34.2132 130.949 33.9304 130.949 33.9304C130.855 34.3706 129.347 35.5641 129.347 35.5641Z" fill="url(#paint17_linear_3011_8379)"/>
<path d="M121.523 44.8961C121.679 45.211 121.886 45.6814 121.9 45.7134C121.791 45.3702 121.619 45.0242 121.414 44.6836C121.45 44.7512 121.487 44.8223 121.524 44.8961H121.523Z" fill="url(#paint18_linear_3011_8379)"/>
<defs>
<linearGradient id="paint0_linear_3011_8379" x1="0" y1="29.2217" x2="97.1722" y2="29.2217" gradientUnits="userSpaceOnUse">
<stop stop-color="#BA872C"/>
<stop offset="0.06" stop-color="#C28F29"/>
<stop offset="0.17" stop-color="#DAA422"/>
<stop offset="0.24" stop-color="#EFB81C"/>
<stop offset="0.68" stop-color="#FEF38A"/>
<stop offset="0.84" stop-color="#EDCC66"/>
<stop offset="1" stop-color="#BA872C"/>
</linearGradient>
<linearGradient id="paint1_linear_3011_8379" x1="134.238" y1="21.1052" x2="135.238" y2="21.1052" gradientUnits="userSpaceOnUse">
<stop stop-color="#BA872C"/>
<stop offset="0.06" stop-color="#C28F29"/>
<stop offset="0.17" stop-color="#DAA422"/>
<stop offset="0.24" stop-color="#EFB81C"/>
<stop offset="0.68" stop-color="#FEF38A"/>
<stop offset="0.84" stop-color="#EDCC66"/>
<stop offset="1" stop-color="#BA872C"/>
</linearGradient>
<linearGradient id="paint2_linear_3011_8379" x1="132.731" y1="20.4908" x2="136.873" y2="20.4908" gradientUnits="userSpaceOnUse">
<stop stop-color="#BA872C"/>
<stop offset="0.06" stop-color="#C28F29"/>
<stop offset="0.17" stop-color="#DAA422"/>
<stop offset="0.24" stop-color="#EFB81C"/>
<stop offset="0.68" stop-color="#FEF38A"/>
<stop offset="0.84" stop-color="#EDCC66"/>
<stop offset="1" stop-color="#BA872C"/>
</linearGradient>
<linearGradient id="paint3_linear_3011_8379" x1="131.885" y1="19.4987" x2="133.632" y2="19.4987" gradientUnits="userSpaceOnUse">
<stop stop-color="#BA872C"/>
<stop offset="0.06" stop-color="#C28F29"/>
<stop offset="0.17" stop-color="#DAA422"/>
<stop offset="0.24" stop-color="#EFB81C"/>
<stop offset="0.68" stop-color="#FEF38A"/>
<stop offset="0.84" stop-color="#EDCC66"/>
<stop offset="1" stop-color="#BA872C"/>
</linearGradient>
<linearGradient id="paint4_linear_3011_8379" x1="126.466" y1="5.67481" x2="141.988" y2="5.67481" gradientUnits="userSpaceOnUse">
<stop stop-color="#BA872C"/>
<stop offset="0.06" stop-color="#C28F29"/>
<stop offset="0.17" stop-color="#DAA422"/>
<stop offset="0.24" stop-color="#EFB81C"/>
<stop offset="0.68" stop-color="#FEF38A"/>
<stop offset="0.84" stop-color="#EDCC66"/>
<stop offset="1" stop-color="#BA872C"/>
</linearGradient>
<linearGradient id="paint5_linear_3011_8379" x1="140.262" y1="13.6808" x2="141.711" y2="13.6808" gradientUnits="userSpaceOnUse">
<stop stop-color="#BA872C"/>
<stop offset="0.06" stop-color="#C28F29"/>
<stop offset="0.17" stop-color="#DAA422"/>
<stop offset="0.24" stop-color="#EFB81C"/>
<stop offset="0.68" stop-color="#FEF38A"/>
<stop offset="0.84" stop-color="#EDCC66"/>
<stop offset="1" stop-color="#BA872C"/>
</linearGradient>
<linearGradient id="paint6_linear_3011_8379" x1="106.589" y1="30.3074" x2="160.807" y2="30.3074" gradientUnits="userSpaceOnUse">
<stop stop-color="#BA872C"/>
<stop offset="0.06" stop-color="#C28F29"/>
<stop offset="0.17" stop-color="#DAA422"/>
<stop offset="0.24" stop-color="#EFB81C"/>
<stop offset="0.68" stop-color="#FEF38A"/>
<stop offset="0.84" stop-color="#EDCC66"/>
<stop offset="1" stop-color="#BA872C"/>
</linearGradient>
<linearGradient id="paint7_linear_3011_8379" x1="136.507" y1="17.0037" x2="138.505" y2="17.0037" gradientUnits="userSpaceOnUse">
<stop stop-color="#BA872C"/>
<stop offset="0.06" stop-color="#C28F29"/>
<stop offset="0.17" stop-color="#DAA422"/>
<stop offset="0.24" stop-color="#EFB81C"/>
<stop offset="0.68" stop-color="#FEF38A"/>
<stop offset="0.84" stop-color="#EDCC66"/>
<stop offset="1" stop-color="#BA872C"/>
</linearGradient>
<linearGradient id="paint8_linear_3011_8379" x1="145.831" y1="35.9913" x2="151.992" y2="35.9913" gradientUnits="userSpaceOnUse">
<stop stop-color="#BA872C"/>
<stop offset="0.06" stop-color="#C28F29"/>
<stop offset="0.17" stop-color="#DAA422"/>
<stop offset="0.24" stop-color="#EFB81C"/>
<stop offset="0.68" stop-color="#FEF38A"/>
<stop offset="0.84" stop-color="#EDCC66"/>
<stop offset="1" stop-color="#BA872C"/>
</linearGradient>
<linearGradient id="paint9_linear_3011_8379" x1="134.729" y1="30.1142" x2="147.854" y2="30.1142" gradientUnits="userSpaceOnUse">
<stop stop-color="#BA872C"/>
<stop offset="0.06" stop-color="#C28F29"/>
<stop offset="0.17" stop-color="#DAA422"/>
<stop offset="0.24" stop-color="#EFB81C"/>
<stop offset="0.68" stop-color="#FEF38A"/>
<stop offset="0.84" stop-color="#EDCC66"/>
<stop offset="1" stop-color="#BA872C"/>
</linearGradient>
<linearGradient id="paint10_linear_3011_8379" x1="141.67" y1="50.035" x2="143.444" y2="50.035" gradientUnits="userSpaceOnUse">
<stop stop-color="#BA872C"/>
<stop offset="0.06" stop-color="#C28F29"/>
<stop offset="0.17" stop-color="#DAA422"/>
<stop offset="0.24" stop-color="#EFB81C"/>
<stop offset="0.68" stop-color="#FEF38A"/>
<stop offset="0.84" stop-color="#EDCC66"/>
<stop offset="1" stop-color="#BA872C"/>
</linearGradient>
<linearGradient id="paint11_linear_3011_8379" x1="144.521" y1="44.2203" x2="145.148" y2="44.2203" gradientUnits="userSpaceOnUse">
<stop stop-color="#BA872C"/>
<stop offset="0.06" stop-color="#C28F29"/>
<stop offset="0.17" stop-color="#DAA422"/>
<stop offset="0.24" stop-color="#EFB81C"/>
<stop offset="0.68" stop-color="#FEF38A"/>
<stop offset="0.84" stop-color="#EDCC66"/>
<stop offset="1" stop-color="#BA872C"/>
</linearGradient>
<linearGradient id="paint12_linear_3011_8379" x1="147.444" y1="43.7332" x2="156.068" y2="43.7332" gradientUnits="userSpaceOnUse">
<stop stop-color="#BA872C"/>
<stop offset="0.06" stop-color="#C28F29"/>
<stop offset="0.17" stop-color="#DAA422"/>
<stop offset="0.24" stop-color="#EFB81C"/>
<stop offset="0.68" stop-color="#FEF38A"/>
<stop offset="0.84" stop-color="#EDCC66"/>
<stop offset="1" stop-color="#BA872C"/>
</linearGradient>
<linearGradient id="paint13_linear_3011_8379" x1="150.973" y1="42.8052" x2="162.009" y2="42.8052" gradientUnits="userSpaceOnUse">
<stop stop-color="#BA872C"/>
<stop offset="0.06" stop-color="#C28F29"/>
<stop offset="0.17" stop-color="#DAA422"/>
<stop offset="0.24" stop-color="#EFB81C"/>
<stop offset="0.68" stop-color="#FEF38A"/>
<stop offset="0.84" stop-color="#EDCC66"/>
<stop offset="1" stop-color="#BA872C"/>
</linearGradient>
<linearGradient id="paint14_linear_3011_8379" x1="130.892" y1="14.962" x2="133.483" y2="14.962" gradientUnits="userSpaceOnUse">
<stop stop-color="#BA872C"/>
<stop offset="0.06" stop-color="#C28F29"/>
<stop offset="0.17" stop-color="#DAA422"/>
<stop offset="0.24" stop-color="#EFB81C"/>
<stop offset="0.68" stop-color="#FEF38A"/>
<stop offset="0.84" stop-color="#EDCC66"/>
<stop offset="1" stop-color="#BA872C"/>
</linearGradient>
<linearGradient id="paint15_linear_3011_8379" x1="117.067" y1="36.2385" x2="125.043" y2="36.2385" gradientUnits="userSpaceOnUse">
<stop stop-color="#BA872C"/>
<stop offset="0.06" stop-color="#C28F29"/>
<stop offset="0.17" stop-color="#DAA422"/>
<stop offset="0.24" stop-color="#EFB81C"/>
<stop offset="0.68" stop-color="#FEF38A"/>
<stop offset="0.84" stop-color="#EDCC66"/>
<stop offset="1" stop-color="#BA872C"/>
</linearGradient>
<linearGradient id="paint16_linear_3011_8379" x1="121.9" y1="45.3659" x2="141.38" y2="45.3659" gradientUnits="userSpaceOnUse">
<stop stop-color="#BA872C"/>
<stop offset="0.06" stop-color="#C28F29"/>
<stop offset="0.17" stop-color="#DAA422"/>
<stop offset="0.24" stop-color="#EFB81C"/>
<stop offset="0.68" stop-color="#FEF38A"/>
<stop offset="0.84" stop-color="#EDCC66"/>
<stop offset="1" stop-color="#BA872C"/>
</linearGradient>
<linearGradient id="paint17_linear_3011_8379" x1="120.635" y1="30.2681" x2="133.589" y2="30.2681" gradientUnits="userSpaceOnUse">
<stop stop-color="#BA872C"/>
<stop offset="0.06" stop-color="#C28F29"/>
<stop offset="0.17" stop-color="#DAA422"/>
<stop offset="0.24" stop-color="#EFB81C"/>
<stop offset="0.68" stop-color="#FEF38A"/>
<stop offset="0.84" stop-color="#EDCC66"/>
<stop offset="1" stop-color="#BA872C"/>
</linearGradient>
<linearGradient id="paint18_linear_3011_8379" x1="121.413" y1="45.1976" x2="121.9" y2="45.1976" gradientUnits="userSpaceOnUse">
<stop stop-color="#BA872C"/>
<stop offset="0.06" stop-color="#C28F29"/>
<stop offset="0.17" stop-color="#DAA422"/>
<stop offset="0.24" stop-color="#EFB81C"/>
<stop offset="0.68" stop-color="#FEF38A"/>
<stop offset="0.84" stop-color="#EDCC66"/>
<stop offset="1" stop-color="#BA872C"/>
</linearGradient>
</defs>
</svg>
