<svg width="53" height="35" viewBox="0 0 53 35" fill="none" xmlns="http://www.w3.org/2000/svg">
<rect width="53" height="35" rx="5" fill="#EFAF00"/>
<path d="M25.9531 28.0781L18.2985 24.1406V7.92188H33.7016V24.1406L25.9531 28.0781ZM19.0485 23.6841L25.9531 27.2344L32.9516 23.6831V8.67188H19.0485V23.6841ZM27.8427 15.7931L27.163 13.6369L28.9817 12.2902L26.7191 12.27L26 10.1222L25.2814 12.2681L23.0188 12.2883L24.8375 13.635L24.1578 15.7913L26.0005 14.4788L27.8427 15.7931ZM25.9124 20.6016L30.5188 18.263V15.9239L25.9185 18.2592L21.4813 15.9769V18.3206L25.9124 20.6016ZM25.9185 22.1325L21.4813 19.8502V22.1939L25.9128 24.473L30.5192 22.1344V19.7953L25.9185 22.1325Z" fill="black"/>
</svg>
