<svg width="53" height="35" viewBox="0 0 53 35" fill="none" xmlns="http://www.w3.org/2000/svg">
<rect width="53" height="35" rx="5" fill="#EFAF00"/>
<path d="M30.4608 17.6424C30.4608 15.6273 28.828 13.9913 26.8151 13.9902C24.8 13.9891 23.1629 15.6218 23.1607 17.6337C23.1585 19.6488 24.7912 21.2881 26.8019 21.2903C28.8226 21.2925 30.4608 19.6587 30.4608 17.6413V17.6424ZM26.4842 17.2589C26.6485 17.3323 26.825 17.3794 26.9948 17.4419C27.1767 17.5087 27.3685 17.5603 27.535 17.6556C28.1574 18.0172 28.1519 18.8379 27.5306 19.1995C27.4101 19.2697 27.2731 19.3124 27.1296 19.3738C27.1296 19.4264 27.1318 19.4899 27.1296 19.5524C27.123 19.7277 26.9795 19.8647 26.8085 19.8625C26.6409 19.8603 26.4831 19.7222 26.5006 19.5535C26.5192 19.3694 26.4447 19.3036 26.2825 19.2467C25.9418 19.1261 25.7095 18.8774 25.5725 18.5432C25.5013 18.37 25.5725 18.1892 25.7336 18.1191C25.8957 18.0479 26.0853 18.1158 26.1532 18.29C26.288 18.6374 26.7099 18.8116 27.0781 18.7086C27.2172 18.6703 27.3487 18.598 27.3619 18.4402C27.375 18.2813 27.2523 18.1991 27.1186 18.152C26.8951 18.0742 26.6661 18.0095 26.4414 17.935C26.1028 17.8221 25.8355 17.6249 25.7084 17.2797C25.5122 16.7483 25.8333 16.1763 26.4053 16.0327C26.4338 16.0251 26.4623 16.0174 26.4962 16.0086C26.4962 15.921 26.4962 15.8344 26.4962 15.7489C26.4984 15.5583 26.6365 15.4158 26.8162 15.4169C26.9948 15.418 27.1296 15.5616 27.1318 15.7533C27.1318 15.8355 27.1318 15.9177 27.1318 16.0042C27.4309 16.0755 27.6851 16.2146 27.8659 16.4623C27.947 16.573 28.0117 16.6979 28.0632 16.825C28.1267 16.9795 28.0391 17.1548 27.8879 17.2173C27.7301 17.283 27.5416 17.2195 27.4813 17.0562C27.329 16.6431 26.917 16.5445 26.5587 16.6486C26.4228 16.688 26.311 16.7614 26.2935 16.9214C26.276 17.0803 26.3505 17.1975 26.4864 17.2578L26.4842 17.2589ZM19.5095 17.6512C19.5073 18.4314 18.863 19.0691 18.0784 19.0691C17.2917 19.0691 16.6528 18.4259 16.6539 17.6348C16.6539 16.848 17.2972 16.2124 18.0905 16.2135C18.8762 16.2135 19.5117 16.859 19.5095 17.6523V17.6512ZM36.9686 17.6501C36.9675 18.4314 36.3232 19.0702 35.5386 19.0691C34.7507 19.0691 34.1119 18.427 34.113 17.6359C34.113 16.848 34.7551 16.2124 35.5485 16.2124C36.3352 16.2124 36.9708 16.8568 36.9697 17.649L36.9686 17.6501ZM22.3662 25.7381C22.3662 26.527 21.7263 27.1648 20.9351 27.1648C20.1473 27.1648 19.5095 26.5226 19.5106 25.7315C19.5106 24.9491 20.1528 24.3092 20.9373 24.3092C21.7263 24.3092 22.3673 24.9491 22.3662 25.7391V25.7381ZM34.1119 25.7402C34.1119 26.5292 33.472 27.1648 32.6786 27.1648C31.8918 27.1648 31.2541 26.5204 31.2552 25.7293C31.2563 24.9491 31.9006 24.3092 32.6852 24.3092C33.4741 24.3092 34.1119 24.9491 34.1108 25.7413L34.1119 25.7402ZM19.5106 9.54791C19.5106 8.75786 20.1506 8.11792 20.9406 8.11792C21.7274 8.11792 22.3684 8.76334 22.3662 9.55339C22.364 10.338 21.7175 10.9757 20.9253 10.9735C20.1517 10.9724 19.5117 10.3259 19.5106 9.54791ZM31.2552 9.54353C31.2563 8.75566 31.8984 8.11683 32.6896 8.11792C33.4709 8.11792 34.1097 8.76114 34.1108 9.54682C34.1108 10.3369 33.4643 10.9757 32.6666 10.9735C31.894 10.9713 31.2541 10.3226 31.2552 9.54353ZM22.684 15.4136C22.6862 15.601 22.5416 15.7358 22.3345 15.7358C21.8753 15.7358 21.4162 15.7314 20.9571 15.7391C20.8212 15.7413 20.6798 15.7643 20.5505 15.807C20.2054 15.9221 19.9983 16.2234 19.9873 16.5993C19.9851 16.6661 19.9873 16.734 19.9873 16.802C19.8492 16.5456 19.686 16.3176 19.4778 16.1215C19.4602 16.1051 19.4657 16.0481 19.4778 16.0185C19.6706 15.5692 20.0125 15.2887 20.4793 15.1671C20.6404 15.1254 20.8113 15.1079 20.9779 15.1057C21.4304 15.098 21.883 15.1024 22.3355 15.1035C22.5383 15.1035 22.6818 15.2328 22.684 15.4158V15.4136ZM30.9385 15.4202C30.9385 15.2361 31.081 15.1024 31.2804 15.1024C31.7625 15.1024 32.2458 15.0882 32.7268 15.1057C33.3437 15.1287 33.8303 15.384 34.1196 15.9571C34.1667 16.0514 34.1711 16.1116 34.0834 16.1905C33.8949 16.3593 33.7612 16.573 33.6495 16.8162C33.6352 16.6694 33.6352 16.5368 33.6078 16.4097C33.5311 16.0525 33.2572 15.8081 32.8879 15.7566C32.7937 15.7434 32.6972 15.7369 32.6019 15.7369C32.1625 15.7347 31.7231 15.7369 31.2837 15.7358C31.0821 15.7358 30.9396 15.6032 30.9385 15.4202ZM22.684 19.8658C22.6829 20.0455 22.5405 20.1803 22.3476 20.1803C21.8655 20.1803 21.3822 20.1945 20.9012 20.1759C20.281 20.1529 19.7911 19.8965 19.5019 19.3201C19.458 19.2313 19.4482 19.171 19.5358 19.0943C19.7265 18.9245 19.8624 18.7097 19.9741 18.4654C19.9884 18.6144 19.9895 18.7492 20.0169 18.8763C20.0947 19.2313 20.373 19.4768 20.7401 19.5261C20.8376 19.5392 20.9373 19.5458 21.036 19.5458C21.4721 19.548 21.9082 19.5458 22.3443 19.5458C22.5437 19.5458 22.6873 19.6806 22.6851 19.8647L22.684 19.8658ZM34.1349 19.1502C34.1557 19.17 34.1568 19.2291 34.1437 19.2598C33.9333 19.7496 33.5541 20.0334 33.0391 20.1386C32.8945 20.1682 32.7444 20.177 32.5975 20.1792C32.1614 20.1846 31.7253 20.1814 31.2892 20.1814C31.081 20.1814 30.9363 20.0499 30.9374 19.8625C30.9374 19.6751 31.0821 19.548 31.2924 19.548C31.7351 19.548 32.1778 19.5513 32.6205 19.5458C32.7444 19.5447 32.8726 19.5327 32.992 19.502C33.3788 19.4044 33.6199 19.0921 33.6341 18.6878C33.6363 18.6199 33.6341 18.5508 33.6341 18.4829C33.7711 18.7349 33.9311 18.9585 34.1349 19.1524V19.1502ZM22.5109 13.7316C22.5996 13.8204 22.6533 13.919 22.6281 14.0505C22.5832 14.2828 22.3169 14.3858 22.1284 14.2422C22.0945 14.2159 22.0649 14.1853 22.0342 14.1546C21.7208 13.8423 21.4019 13.5344 21.0962 13.2144C20.6897 12.7892 20.5242 12.2917 20.6809 11.7077C20.7028 11.6266 20.7368 11.6014 20.8289 11.6014C21.0447 11.6014 21.2606 11.5762 21.448 11.5631C21.3987 11.6748 21.3143 11.8085 21.2792 11.9553C21.2047 12.2709 21.3252 12.5405 21.5433 12.764C21.8622 13.0906 22.1865 13.4105 22.5098 13.7316H22.5109ZM25.6481 24.5283C25.6371 24.5447 25.6251 24.5612 25.6119 24.5754C25.2394 24.9458 24.8821 25.3348 24.4877 25.6811C24.0932 26.0262 23.6176 26.1358 23.0993 25.9923C23.0259 25.9715 22.9941 25.9452 22.9952 25.852C22.9963 25.6329 22.97 25.4126 22.9558 25.2219C23.0675 25.2734 23.1979 25.3578 23.3415 25.3962C23.6549 25.4784 23.9222 25.3556 24.1447 25.1419C24.4767 24.8242 24.7978 24.4954 25.1221 24.17C25.2087 24.0834 25.3029 24.0286 25.43 24.0473C25.659 24.0801 25.7763 24.3376 25.6492 24.5305L25.6481 24.5283ZM21.4721 23.7152C21.4721 23.7152 21.4721 23.7163 21.4721 23.7174C21.4721 23.7174 21.4721 23.7163 21.471 23.7152H21.4721ZM21.4732 23.7174C21.4776 23.724 21.4786 23.7295 21.4732 23.7174V23.7174ZM22.5503 21.5072C22.4681 21.6015 22.375 21.687 22.2862 21.7757C22.0485 22.0146 21.8129 22.2557 21.5707 22.4902C21.2507 22.7992 21.1159 23.301 21.4732 23.7152C21.2463 23.7043 21.0075 23.6955 20.7686 23.6791C20.7434 23.6769 20.7094 23.6363 20.6985 23.6068C20.567 23.2375 20.6053 22.8759 20.7752 22.5318C20.8541 22.3718 20.9592 22.2162 21.082 22.0869C21.4063 21.7439 21.7471 21.4152 22.0813 21.081C22.1668 20.9955 22.2665 20.955 22.387 20.9835C22.6259 21.0415 22.7147 21.3188 22.5503 21.5072ZM30.6624 25.2011C30.67 25.1945 30.6799 25.1924 30.6646 25.2C30.6536 25.4269 30.6437 25.6657 30.6262 25.9035C30.624 25.9298 30.5868 25.966 30.5583 25.9758C30.1035 26.1303 29.6806 26.0405 29.2839 25.795C29.1918 25.7381 29.1053 25.6679 29.0286 25.5923C28.6944 25.2636 28.3645 24.9294 28.0336 24.5973C27.9459 24.5097 27.901 24.4078 27.9328 24.284C27.9963 24.0407 28.2769 23.9596 28.4653 24.1327C28.5914 24.2489 28.7097 24.3749 28.8313 24.4954C29.0395 24.7025 29.2466 24.9118 29.4559 25.1178C29.7956 25.451 30.2536 25.5463 30.6635 25.2L30.6624 25.2011ZM22.958 10.087C22.9382 10.0914 22.9426 10.0914 22.9448 10.0903C22.9492 10.087 22.9536 10.0837 22.958 10.0805C22.958 10.0827 22.958 10.0848 22.958 10.087ZM23.0171 10.0377C22.9974 10.052 22.9788 10.0662 22.959 10.0805C22.97 9.84706 22.9788 9.60818 22.9985 9.3693C23.0007 9.34081 23.0631 9.30465 23.1026 9.2926C23.5267 9.16768 23.9266 9.23342 24.297 9.46573C24.4274 9.54791 24.549 9.64763 24.6597 9.75502C24.9709 10.0564 25.2733 10.3654 25.5801 10.6722C25.6722 10.7642 25.7248 10.8694 25.6886 11.002C25.6284 11.2288 25.3687 11.3154 25.1835 11.1708C25.155 11.1488 25.1298 11.1225 25.1035 11.0962C24.7879 10.7818 24.4723 10.4651 24.1556 10.1517C24.0241 10.0213 23.8696 9.92924 23.6888 9.88541C23.4412 9.82515 23.2187 9.8898 23.0171 10.0377ZM28.027 10.6919C28.3448 10.3697 28.6659 10.0509 28.9869 9.732C29.1502 9.56983 29.3343 9.43834 29.5469 9.34958C29.869 9.2148 30.1967 9.19398 30.5331 9.29369C30.6054 9.31561 30.6284 9.343 30.6295 9.42847C30.6295 9.65092 30.6558 9.87226 30.6689 10.0629C30.5616 10.0125 30.4323 9.92705 30.2898 9.8887C29.9775 9.80433 29.709 9.92377 29.4866 10.1374C29.1502 10.4596 28.8237 10.7916 28.496 11.1225C28.3897 11.2288 28.2692 11.2705 28.1278 11.219C27.9076 11.139 27.855 10.8672 28.0281 10.6919H28.027ZM32.1384 11.5532C32.1384 11.5532 32.1439 11.5609 32.1472 11.5652C32.145 11.5652 32.1428 11.5652 32.1406 11.5652C32.1384 11.5565 32.1373 11.5532 32.1373 11.5521C32.1373 11.5521 32.1373 11.5532 32.1373 11.5543L32.1384 11.5532ZM31.0481 13.8061C31.0733 13.771 31.104 13.7415 31.1347 13.7108C31.4261 13.4182 31.7209 13.1289 32.0091 12.8331C32.1022 12.7366 32.1921 12.6303 32.2567 12.5142C32.4288 12.2074 32.3992 11.9071 32.1932 11.6244C32.1789 11.6047 32.1636 11.585 32.1483 11.5652C32.3795 11.5773 32.6129 11.5937 32.8463 11.5992C32.9109 11.6003 32.9131 11.6365 32.9263 11.6759C33.0534 12.0562 33.0205 12.4287 32.8331 12.7761C32.7378 12.9536 32.6096 13.1202 32.4715 13.267C32.1756 13.5826 31.8623 13.8817 31.5565 14.1874C31.459 14.285 31.3483 14.3354 31.2081 14.2894C31.0032 14.2214 30.9232 13.9803 31.0492 13.8061H31.0481ZM31.1084 21.5467C31.0349 21.4733 30.9878 21.3911 30.9911 21.2848C30.9955 21.161 31.0525 21.07 31.1599 21.0131C31.2716 20.9539 31.3823 20.9637 31.4864 21.035C31.5028 21.0459 31.5182 21.058 31.5324 21.0722C31.8842 21.4262 32.2425 21.7735 32.5844 22.1362C32.8627 22.4332 33.0095 22.7948 32.9964 23.2068C32.992 23.346 32.9504 23.4851 32.9197 23.6232C32.9142 23.6462 32.8813 23.6791 32.8583 23.6802C32.6172 23.6955 32.3762 23.7054 32.1702 23.7152C32.2184 23.6111 32.3028 23.4775 32.3422 23.3317C32.4244 23.0216 32.3028 22.7575 32.0935 22.5373C31.7713 22.2009 31.4382 21.8754 31.1084 21.5456V21.5467Z" fill="black"/>
</svg>
