<svg width="267" height="266" viewBox="0 0 267 266" fill="none" xmlns="http://www.w3.org/2000/svg">
<path d="M133.023 33.7475C134.664 33.7475 136.385 32.4178 136.385 30.7771V23.7156C136.385 22.0748 134.664 20.7451 133.023 20.7451C131.383 20.7451 129.662 22.0748 129.662 23.7156V30.7771C129.662 32.4178 131.383 33.7475 133.023 33.7475ZM157.012 43.1254C157.774 43.1254 158.53 42.8358 159.114 42.2567L164.106 37.2649C165.264 36.1014 165.264 34.2247 164.106 33.0612C162.942 31.9031 161.066 31.9031 159.902 33.0612L154.91 38.0531C153.752 39.2112 153.752 41.0932 154.91 42.2567C155.489 42.8358 156.251 43.1254 157.012 43.1254ZM107.592 43.0986C108.171 43.6776 108.933 43.9672 109.694 43.9672C110.456 43.9672 111.212 43.6776 111.796 43.0986C112.96 41.9404 112.96 40.0584 111.796 38.8949L106.804 33.903C105.646 32.7395 103.764 32.7395 102.606 33.903C101.442 35.0612 101.442 36.9432 102.606 38.1013L107.598 43.0932L107.592 43.0986ZM93.5658 75.1944C93.0564 72.61 92.7937 69.9237 92.7937 67.2053C92.7937 64.1973 93.1261 61.1947 93.7749 58.294C94.1342 56.6961 93.1261 55.1037 91.5283 54.7444C89.9412 54.3905 88.338 55.3932 87.9788 56.991C87.2335 60.3207 86.8528 63.7523 86.8528 67.1999C86.8528 70.3044 87.1477 73.3821 87.7375 76.3418C88.0163 77.7574 89.2603 78.7386 90.649 78.7386C90.8366 78.7386 91.035 78.7225 91.2281 78.6796C92.8366 78.3633 93.8822 76.7976 93.5658 75.189V75.1944ZM173.677 83.8967C172.208 83.1674 170.422 83.768 169.693 85.2371C162.787 99.1349 148.862 107.773 133.351 107.778C117.839 107.778 103.914 99.1349 97.0081 85.2371C96.2789 83.768 94.488 83.1674 93.0243 83.8967C91.5551 84.6259 90.9546 86.2612 91.6838 87.7304C99.5979 103.66 115.549 113.424 133.324 113.424H133.372C151.146 113.424 167.098 103.66 175.012 87.7304C175.741 86.2612 175.141 84.6259 173.671 83.8967H173.677ZM178.953 76.3526C179.548 73.3607 179.854 70.283 179.854 67.2053C179.854 63.7523 179.473 60.3046 178.717 56.9589C178.358 55.3557 176.765 54.3477 175.167 54.7123C173.57 55.0715 172.562 56.6586 172.921 58.2618C173.575 61.1786 173.913 64.192 173.913 67.2053C173.913 69.8916 173.645 72.5778 173.125 75.189C172.803 76.7976 173.848 78.3633 175.457 78.685C175.655 78.7225 175.848 78.7439 176.041 78.7439C177.43 78.7439 178.669 77.7681 178.953 76.3526ZM162.058 123.987H104.209C102.429 123.987 100.375 126.094 100.375 127.885V250.483C100.375 252.263 102.424 253.62 104.209 253.62H162.058C163.838 253.62 165.194 252.263 165.194 250.483V127.885C165.194 126.089 163.843 123.987 162.058 123.987ZM110.622 64.5566L121.222 72.4438C122.01 73.0122 122.337 74.1221 122.037 75.0443L117.989 87.5534C117.319 89.6177 119.683 91.3603 121.437 90.0842L132.037 82.3953C132.825 81.827 133.887 81.8323 134.67 82.4007L145.27 90.1056C147.029 91.3818 149.388 89.666 148.717 87.6017L144.669 75.1408C144.369 74.2186 144.696 73.2052 145.484 72.6368L156.085 64.5566C157.843 63.2805 156.937 60.1277 154.766 60.1277H141.661C140.691 60.1277 139.828 59.8757 139.533 58.9535L135.485 46.6802C134.814 44.6159 131.892 44.7071 131.222 46.7714L127.174 58.9052C126.873 59.8274 126.01 60.1277 125.04 60.1277H111.935C109.764 60.1277 108.863 63.2805 110.622 64.5566ZM88.8528 190.12C88.8528 188.329 87.3997 186.881 85.6142 186.881H27.2776C25.4868 186.881 24.0391 188.334 24.0391 190.12V250.853C24.0391 252.644 25.4921 254.092 27.2776 254.092H85.6142C87.4051 254.092 88.8528 252.639 88.8528 250.853V190.12ZM50.0385 151.064C50.5372 151.429 50.7463 152.067 50.5533 152.657L49.1538 156.962C48.7302 158.27 50.2262 159.359 51.3415 158.549L55.0036 155.884C55.5022 155.52 56.1778 155.52 56.6765 155.884L60.3386 158.549C61.4539 159.359 62.9498 158.27 62.5262 156.962L61.1268 152.657C60.9391 152.072 61.1429 151.429 61.6415 151.064L65.309 148.281C66.4243 147.472 65.8505 145.59 64.4726 145.59H59.9418C59.3252 145.59 58.7783 145.311 58.5906 144.727L57.1912 140.48C56.7676 139.172 54.9124 139.198 54.4888 140.507L53.0894 144.71C52.9017 145.295 52.3548 145.59 51.7382 145.59H47.2075C45.8295 145.59 45.2558 147.472 46.371 148.281L50.0332 151.064H50.0385ZM55.84 176.318C70.3062 176.318 82.0754 164.549 82.0754 150.083C82.0754 135.617 70.3062 123.848 55.84 123.848C41.3738 123.848 29.6046 135.617 29.6046 150.083C29.6046 164.549 41.3738 176.318 55.84 176.318ZM55.84 129.794C67.0462 129.794 76.1345 138.882 76.1345 150.088C76.1345 161.295 67.0462 170.383 55.84 170.383C44.6338 170.383 35.5455 161.3 35.5455 150.088C35.5455 138.877 44.6338 129.794 55.84 129.794ZM242.968 190.12C242.968 188.329 241.515 186.881 239.729 186.881H181.392C179.602 186.881 178.154 188.334 178.154 190.12V250.853C178.154 252.644 179.607 254.092 181.392 254.092H239.729C241.52 254.092 242.968 252.639 242.968 250.853V190.12ZM204.614 151.064C205.113 151.429 205.322 152.067 205.129 152.657L203.73 156.962C203.306 158.27 204.802 159.359 205.917 158.549L209.58 155.884C210.078 155.52 210.754 155.52 211.252 155.884L214.915 158.549C216.03 159.359 217.526 158.27 217.102 156.962L215.703 152.657C215.51 152.072 215.719 151.429 216.217 151.064L219.88 148.281C220.995 147.472 220.421 145.59 219.043 145.59H214.512C213.896 145.59 213.349 145.311 213.161 144.727L211.762 140.48C211.338 139.172 209.483 139.198 209.059 140.507L207.66 144.71C207.472 145.295 206.925 145.59 206.309 145.59H201.778C200.4 145.59 199.826 147.472 200.942 148.281L204.604 151.064H204.614ZM210.416 176.318C224.882 176.318 236.651 164.549 236.651 150.083C236.651 135.617 224.882 123.848 210.416 123.848C195.95 123.848 184.181 135.617 184.181 150.083C184.181 164.549 195.95 176.318 210.416 176.318ZM210.416 129.794C221.622 129.794 230.71 138.882 230.71 150.088C230.71 161.295 221.622 170.383 210.416 170.383C199.21 170.383 190.121 161.3 190.121 150.088C190.121 138.877 199.21 129.794 210.416 129.794Z" fill="url(#paint0_linear_2924_1874)"/>
<defs>
<linearGradient id="paint0_linear_2924_1874" x1="-3.77271" y1="42.8573" x2="168.101" y2="218.103" gradientUnits="userSpaceOnUse">
<stop stop-color="#B9852C"/>
<stop offset="0.06" stop-color="#C18D29"/>
<stop offset="0.17" stop-color="#D9A222"/>
<stop offset="0.24" stop-color="#EEB61D"/>
<stop offset="0.68" stop-color="#FDF289"/>
<stop offset="0.84" stop-color="#ECCA65"/>
<stop offset="1" stop-color="#B9852C"/>
</linearGradient>
</defs>
</svg>
