<svg width="394" height="394" viewBox="0 0 394 394" fill="none" xmlns="http://www.w3.org/2000/svg">
<g clip-path="url(#clip0_2924_1922)">
<path d="M129.217 250.25C134.607 244.646 140.953 240.231 147.495 236.104C159.326 228.642 171.838 222.454 184.653 216.912C200.79 209.94 217.032 203.227 233.744 197.717C244.787 194.072 255.953 190.889 267.469 189.116C274.933 187.965 282.433 187.129 290.115 189.051C293.344 155.292 296.571 121.612 299.793 87.9342C299.394 88.149 299.214 88.3999 299.067 88.6698C296.116 94.3066 292.922 99.8317 290.285 105.61C286.592 113.704 281.132 120.315 274.48 126.064C273.225 127.147 272.03 128.297 270.775 129.445C281.597 136.628 287.144 149.954 282.992 163.4C281.87 167.038 280.185 170.359 277.331 172.972C270.795 178.956 261.526 177.562 257.47 169.741C255.41 165.775 253.953 161.499 252.231 157.362C251.043 154.507 250.754 151.536 251.113 148.478C251.735 143.125 253.612 138.175 255.963 133.387C257.422 130.415 259.081 127.532 260.673 124.564C260.23 124.396 259.809 124.232 259.382 124.071C250.615 120.743 243.613 115.423 239.751 106.591C237.036 100.387 234.345 94.1741 231.641 87.9657C231.474 87.5869 231.329 87.1989 231.176 86.8211C230.974 89.8801 231.037 92.8449 231.009 95.8136C230.937 103.519 230.534 111.188 228.069 118.585C226.171 124.274 223.141 129.2 218.211 132.769C216.75 133.83 215.147 134.686 213.478 135.72C214.188 136.239 214.851 136.706 215.491 137.195C216.179 137.723 216.869 138.257 217.527 138.824C224.971 145.2 230.925 152.583 233.177 162.399C234.583 168.537 234.418 174.592 231.684 180.376C227.497 189.243 218.325 192.285 209.842 187.396C202.529 183.181 198.118 176.603 196.112 168.508C194.815 163.285 195.341 157.938 196.258 152.695C197.134 147.66 198.328 142.679 199.393 137.625C195.693 136.541 191.798 135.385 187.891 134.261C176.537 130.987 169.473 122.833 163.81 113.097C163.439 112.459 163.135 112.018 162.368 112.218C161.435 112.46 161.73 113.201 161.831 113.79C162.233 116.085 162.733 118.365 163.082 120.661C164.122 127.481 164.373 134.319 161.504 140.77C159.483 145.318 156.954 149.633 154.641 154.044C154.205 154.879 153.717 155.682 153.223 156.553C154.037 157.017 154.711 157.4 155.381 157.785C160.741 160.881 165.781 164.417 170.511 168.434C179.08 175.719 182.645 184.981 181.319 196.036C179.825 208.486 168.513 214.265 157.476 208.312C149.688 204.113 145.151 197.29 142.69 189.012C140.467 181.511 140.458 173.865 141.73 166.184C141.807 165.726 141.848 165.262 141.92 164.648C138.272 165.922 134.761 166.436 131.163 166.152C124.652 165.64 119.031 162.873 113.799 159.172C107.221 154.52 101.704 148.714 96.2019 142.895C95.8788 142.553 95.5468 142.222 95.3318 142C97.7402 148.454 100.208 154.955 102.583 161.487C105.325 169.02 105.623 176.601 102.751 184.178C102.027 186.082 101.171 187.935 100.349 189.873C100.836 190.004 101.181 190.107 101.537 190.192C106.881 191.534 112.077 193.291 116.998 195.791C121.443 198.057 125.876 200.571 128.172 205.164C130.595 210.021 132.569 215.132 134.343 220.267C135.86 224.644 135.022 228.738 131.46 232.066C127.162 236.089 122.13 237.143 116.708 235.301C105.063 231.344 98.1362 223.219 96.1518 211.008C95.5725 207.451 95.6885 203.908 96.6042 200.262C94.4976 200.351 92.5413 200.437 90.5884 200.515C83.1326 200.814 75.7965 200.309 68.6669 197.807C61.9303 195.448 55.1281 193.267 48.3537 191.008C47.9278 190.866 47.4785 190.779 47.0393 190.669C47.0071 190.767 46.9726 190.86 46.9347 190.961C72.7295 212.801 98.5186 234.644 124.134 256.333C125.896 254.203 127.434 252.086 129.225 250.221L129.217 250.25Z" fill="url(#paint0_linear_2924_1922)"/>
<path d="M295.362 222.643C294.434 222.64 293.993 222.365 293.654 221.498C291.802 216.816 289.905 212.153 287.96 207.503C287.606 206.648 287.72 206.154 288.372 205.495C290.702 203.127 291.966 200.306 291.469 196.92C290.97 193.561 288.393 191.442 285.066 191.553C272.353 191.981 259.852 193.997 247.598 197.267C237.711 199.909 227.902 202.907 218.178 206.127C205.043 210.479 192.382 216.043 179.964 222.14C170.807 226.641 161.879 231.561 153.27 237.055C144.547 242.622 136.178 248.642 128.631 255.76C128.222 256.144 127.817 256.683 127.716 257.21C127.132 260.346 127.953 263.009 130.58 264.977C132.435 266.371 134.554 267.086 136.848 267.073C137.917 267.065 138.339 267.459 138.707 268.394C140.519 272.993 142.376 277.574 144.295 282.13C144.703 283.1 144.547 283.67 143.818 284.367C141.986 286.131 140.518 288.161 139.706 290.608C138.837 293.235 139.327 295.572 141.244 297.586C144.974 301.503 149.473 303.419 154.928 302.823C169.867 301.195 184.366 297.53 198.619 292.954C210.117 289.263 221.446 285.061 232.848 281.086C232.806 280.966 232.763 280.845 232.72 280.724C249.623 273.874 266.128 266.207 281.766 256.782C288.586 252.673 295.262 248.341 301.225 243.016C305.047 239.602 306.726 235.232 306.606 230.154C306.545 227.629 305.362 225.706 303.152 224.442C300.734 223.054 298.079 222.635 295.355 222.626L295.362 222.643ZM240.855 220.626C243.561 219.493 246.544 220.717 247.67 223.42C248.781 226.103 247.519 229.173 244.856 230.25C242.256 231.308 239.2 230.047 238.08 227.473C236.94 224.848 238.205 221.737 240.858 220.619L240.855 220.626ZM209.733 229.147C214.063 227.366 218.899 229.368 220.631 233.658C222.331 237.869 220.26 242.714 216.02 244.439C211.78 246.164 206.921 244.139 205.196 239.931C203.457 235.69 205.472 230.901 209.728 229.15L209.733 229.147ZM181.547 244.754C184.242 243.658 187.27 244.93 188.357 247.616C189.435 250.267 188.091 253.376 185.427 254.421C182.814 255.444 179.752 254.153 178.682 251.572C177.584 248.923 178.88 245.84 181.545 244.749L181.547 244.754ZM285.562 248.81C271.153 258.333 255.695 265.844 239.828 272.575C226.759 278.122 213.47 283.095 199.873 287.2C187.383 290.973 174.764 294.234 161.751 295.67C161.355 295.713 160.958 295.724 160.563 295.753L160.402 295.424C163.346 293.372 166.23 291.219 169.255 289.286C185.052 279.185 202.067 271.527 219.32 264.344C231.791 259.152 244.394 254.301 257.273 250.224C268.884 246.552 280.579 243.201 292.794 242.194C293.283 242.153 293.776 242.137 294.262 242.103C294.335 242.251 294.408 242.399 294.485 242.538C291.511 244.629 288.582 246.8 285.554 248.807L285.562 248.81Z" fill="url(#paint1_linear_2924_1922)"/>
</g>
<defs>
<linearGradient id="paint0_linear_2924_1922" x1="99.4121" y1="120.723" x2="323.692" y2="223.202" gradientUnits="userSpaceOnUse">
<stop stop-color="#B9852C"/>
<stop offset="0.06" stop-color="#C18D29"/>
<stop offset="0.17" stop-color="#D9A222"/>
<stop offset="0.24" stop-color="#EEB61D"/>
<stop offset="0.68" stop-color="#FDF289"/>
<stop offset="0.84" stop-color="#ECCA65"/>
<stop offset="1" stop-color="#B9852C"/>
</linearGradient>
<linearGradient id="paint1_linear_2924_1922" x1="72.1075" y1="180.485" x2="296.39" y2="282.97" gradientUnits="userSpaceOnUse">
<stop stop-color="#B9852C"/>
<stop offset="0.06" stop-color="#C18D29"/>
<stop offset="0.17" stop-color="#D9A222"/>
<stop offset="0.24" stop-color="#EEB61D"/>
<stop offset="0.68" stop-color="#FDF289"/>
<stop offset="0.84" stop-color="#ECCA65"/>
<stop offset="1" stop-color="#B9852C"/>
</linearGradient>
<clipPath id="clip0_2924_1922">
<rect width="302" height="302" fill="white" transform="translate(0 114.033) rotate(-22.1378)"/>
</clipPath>
</defs>
</svg>
