<svg width="51" height="35" viewBox="0 0 51 35" fill="none" xmlns="http://www.w3.org/2000/svg">
<path d="M20.5834 24.8748L33.3421 17.4998L20.5834 10.1248V24.8748ZM49.0017 5.62609C49.3213 6.7815 49.5425 8.33025 49.69 10.2969C49.8621 12.2636 49.9359 13.9598 49.9359 15.4348L50.0834 17.4998C50.0834 22.8836 49.69 26.8415 49.0017 29.3736C48.3871 31.5861 46.9613 33.0119 44.7488 33.6265C43.5934 33.9461 41.4792 34.1673 38.2342 34.3148C35.0384 34.4869 32.1129 34.5607 29.4088 34.5607L25.5 34.7082C15.1996 34.7082 8.78335 34.3148 6.25127 33.6265C4.03877 33.0119 2.61294 31.5861 1.99835 29.3736C1.67877 28.2182 1.45752 26.6694 1.31002 24.7028C1.13794 22.7361 1.06419 21.0398 1.06419 19.5648L0.916687 17.4998C0.916687 12.1161 1.31002 8.15817 1.99835 5.62609C2.61294 3.41359 4.03877 1.98775 6.25127 1.37317C7.40669 1.05359 9.52085 0.832337 12.7659 0.684837C15.9617 0.512754 18.8871 0.439004 21.5913 0.439004L25.5 0.291504C35.8004 0.291504 42.2167 0.684837 44.7488 1.37317C46.9613 1.98775 48.3871 3.41359 49.0017 5.62609Z" fill="#EFAF00"/>
</svg>
